<?xml version="1.0" standalone="no"?>
<!DOCTYPE svg PUBLIC "-//W3C//DTD SVG 20010904//EN"
 "http://www.w3.org/TR/2001/REC-SVG-20010904/DTD/svg10.dtd">
<svg version="1.0" xmlns="http://www.w3.org/2000/svg"
 width="640.000000pt" height="480.000000pt" viewBox="0 0 640.000000 480.000000"
 preserveAspectRatio="xMidYMid meet">

<g transform="translate(0.000000,480.000000) scale(0.100000,-0.100000)"
fill="#000000" stroke="none">
<path d="M2842 4373 l2 -68 3 62 c4 61 4 62 36 66 31 4 31 4 -5 5 l-38 2 2
-67z"/>
<path d="M3189 4420 c0 -11 -1 -38 -1 -60 0 -77 2 -90 12 -90 6 0 10 8 10 18
0 9 10 22 23 27 17 8 22 18 22 45 0 27 -5 37 -22 45 -13 5 -23 15 -23 22 0 22
-20 14 -21 -7z m49 -64 c-2 -15 -7 -28 -13 -29 -12 -2 -19 38 -10 60 9 25 27
1 23 -31z"/>
<path d="M3655 4430 c-3 -5 1 -10 9 -10 12 0 16 -11 16 -49 0 -30 -5 -51 -12
-54 -7 -3 5 -5 27 -5 22 0 32 2 23 5 -15 4 -18 16 -18 64 0 52 -2 59 -19 59
-11 0 -23 -4 -26 -10z"/>
<path d="M2941 4335 c1 -38 4 -58 6 -44 3 21 8 25 28 21 33 -6 54 36 37 73 -9
20 -18 25 -42 23 l-30 -2 1 -71z m59 25 c0 -30 -21 -45 -39 -27 -23 23 -4 71
25 60 8 -3 14 -18 14 -33z"/>
<path d="M3044 4398 c-5 -8 -2 -9 11 -5 9 4 24 2 33 -5 13 -11 11 -14 -14 -18
-23 -4 -29 -10 -29 -30 0 -21 5 -25 33 -26 31 -1 32 0 32 41 0 30 -5 45 -16
49 -24 9 -42 7 -50 -6z m56 -47 c0 -5 -7 -14 -15 -21 -18 -15 -42 1 -31 19 8
13 46 15 46 2z"/>
<path d="M3144 4386 c-9 -39 -1 -70 21 -75 19 -3 19 -3 3 16 -22 24 -23 41 -1
65 15 17 15 18 0 18 -9 0 -19 -11 -23 -24z"/>
<path d="M3280 4360 c0 -61 18 -66 45 -12 l19 37 7 -40 c6 -40 6 -40 8 13 0
28 -3 52 -9 52 -5 0 -18 -17 -29 -37 l-20 -38 -1 38 c0 20 -4 37 -10 37 -5 0
-10 -22 -10 -50z"/>
<path d="M3390 4360 c0 -27 5 -50 10 -50 6 0 10 9 10 19 0 30 16 33 28 6 7
-14 16 -25 22 -25 6 0 3 13 -7 30 -14 25 -15 34 -5 50 17 28 -2 25 -21 -2
l-16 -23 0 23 c-2 46 -21 20 -21 -28z"/>
<path d="M3490 4360 c0 -58 12 -64 37 -17 l18 32 3 -32 c5 -52 22 -38 22 17 0
58 -12 64 -37 18 l-18 -33 -3 33 c-5 51 -22 37 -22 -18z"/>
<path d="M460 4259 c0 -5 5 -7 10 -4 6 4 10 -10 10 -34 0 -22 -5 -42 -12 -44
-7 -3 3 -5 22 -5 19 0 27 2 18 5 -14 3 -18 15 -18 49 0 32 -4 44 -15 44 -8 0
-15 -5 -15 -11z"/>
<path d="M534 4245 c-10 -39 3 -75 26 -75 29 0 47 42 32 75 -7 15 -20 25 -32
25 -13 0 -22 -9 -26 -25z m41 -26 c0 -24 -5 -34 -15 -34 -16 0 -25 37 -16 62
10 26 31 8 31 -28z"/>
<path d="M624 4257 c-3 -8 -4 -30 -2 -49 2 -28 7 -33 28 -33 23 0 25 4 25 45
0 39 -3 45 -23 48 -13 2 -24 -3 -28 -11z m41 -38 c0 -24 -5 -34 -15 -34 -16 0
-25 37 -16 62 10 26 31 8 31 -28z"/>
<path d="M773 4213 l27 -4 0 -299 0 -299 -27 -4 -28 -4 28 -2 27 -1 0 -304 0
-305 -27 -4 -28 -4 28 -2 27 -1 0 -299 0 -300 -27 -4 -28 -4 28 -2 27 -1 0
-304 0 -305 -27 -4 -28 -4 28 -2 27 -1 0 -304 0 -305 -27 -4 -28 -4 28 -2 27
-1 0 -299 0 -300 -27 -4 -28 -4 27 -2 c21 -1 28 -7 31 -29 l4 -27 2 28 1 27
409 0 410 0 4 -27 4 -28 2 28 1 27 404 0 405 0 4 -27 4 -28 2 28 1 27 409 0
410 0 4 -28 4 -27 2 28 1 27 409 0 410 0 4 -27 4 -28 2 28 1 27 404 0 405 0 4
-27 4 -28 2 28 1 27 409 0 410 0 4 -27 c2 -16 5 817 6 1850 l1 1877 -2512 -1
c-1382 -1 -2501 -4 -2485 -6z m4987 -1843 l0 -1840 -2475 0 -2475 0 0 1840 0
1840 2475 0 2475 0 0 -1840z"/>
<path d="M3258 4100 c-4 -58 -10 -573 -13 -1145 -7 -1318 -18 -1574 -68 -1675
-37 -75 -60 -81 -325 -91 -125 -4 -450 -8 -722 -8 -272 -1 -501 -1 -507 -1 -7
0 -13 -4 -13 -10 0 -6 84 -10 233 -10 356 -1 1022 -18 1118 -29 122 -13 168
-28 205 -65 48 -48 64 -115 76 -323 6 -101 15 -183 19 -183 5 0 7 103 4 230
-6 338 -13 349 -250 376 l-70 8 78 7 c84 9 128 28 158 69 28 37 49 153 59 329
9 154 34 2390 28 2546 l-3 80 -7 -105z m-65 -2998 c22 -19 47 -72 47 -99 0
-10 -9 0 -19 22 -20 44 -53 78 -91 95 -23 10 -22 10 9 5 19 -3 43 -13 54 -23z"/>
<path d="M3296 3270 c2 -514 7 -1058 10 -1207 5 -249 4 -273 -11 -273 -11 0
-15 -6 -11 -17 10 -36 18 -283 9 -283 -13 0 12 -181 30 -217 9 -16 22 -35 30
-41 28 -23 104 -43 201 -52 138 -14 1390 -14 1394 0 3 7 -82 10 -255 10 -386
1 -1026 18 -1123 30 -94 12 -164 41 -192 80 -44 62 -56 363 -64 1695 -4 594
-10 1109 -14 1145 -5 36 -6 -356 -4 -870z m62 -1985 c20 -40 21 -47 7 -35 -21
17 -45 71 -44 97 0 14 2 15 6 3 3 -8 17 -37 31 -65z m122 -73 c3 -3 -8 -2 -25
2 -16 4 -34 12 -40 17 -5 5 6 4 25 -2 19 -7 37 -14 40 -17z"/>
<path d="M5570 4079 c0 -5 5 -7 10 -4 6 4 10 -10 10 -34 0 -22 -5 -42 -12 -44
-7 -3 3 -5 22 -5 19 0 27 2 18 5 -14 3 -18 15 -18 49 0 32 -4 44 -15 44 -8 0
-15 -5 -15 -11z"/>
<path d="M5150 4040 c0 -6 57 -10 150 -10 93 0 150 4 150 10 0 6 -57 10 -150
10 -93 0 -150 -4 -150 -10z"/>
<path d="M5570 3869 c0 -5 5 -7 10 -4 6 4 10 -10 10 -34 0 -22 -5 -42 -12 -44
-7 -3 3 -5 22 -5 19 0 27 2 18 5 -14 3 -18 15 -18 49 0 32 -4 44 -15 44 -8 0
-15 -5 -15 -11z"/>
<path d="M5150 3830 c0 -6 57 -10 150 -10 93 0 150 4 150 10 0 6 -57 10 -150
10 -93 0 -150 -4 -150 -10z"/>
<path d="M5566 3662 c-3 -6 2 -8 13 -5 31 8 35 -17 7 -46 -34 -35 -33 -41 7
-40 25 1 27 3 9 6 l-24 5 22 23 c12 13 20 31 18 42 -3 19 -42 30 -52 15z"/>
<path d="M5150 3620 c0 -6 57 -10 150 -10 93 0 150 4 150 10 0 6 -57 10 -150
10 -93 0 -150 -4 -150 -10z"/>
<path d="M5566 3452 c-3 -6 2 -8 13 -5 31 8 35 -17 7 -46 -34 -35 -33 -41 7
-40 25 1 27 3 9 6 l-24 5 22 23 c12 13 20 31 18 42 -3 19 -42 30 -52 15z"/>
<path d="M5150 3410 c0 -6 57 -10 150 -10 93 0 150 4 150 10 0 6 -57 10 -150
10 -93 0 -150 -4 -150 -10z"/>
<path d="M5588 3240 c26 -11 29 -30 5 -30 -15 0 -15 -1 2 -13 22 -17 11 -41
-16 -34 -11 3 -19 1 -19 -4 0 -15 46 -10 60 6 6 8 8 20 4 27 -5 7 -8 22 -9 33
0 14 -8 21 -25 22 -25 3 -25 3 -2 -7z"/>
<path d="M5150 3200 c0 -6 57 -10 150 -10 93 0 150 4 150 10 0 6 -57 10 -150
10 -93 0 -150 -4 -150 -10z"/>
<path d="M5588 3030 c26 -11 29 -30 5 -30 -15 0 -15 -1 2 -13 22 -17 11 -41
-16 -34 -11 3 -19 1 -19 -4 0 -15 46 -10 60 6 6 8 8 20 4 27 -5 7 -8 22 -9 33
0 14 -8 21 -25 22 -25 3 -25 3 -2 -7z"/>
<path d="M5150 2990 c0 -6 57 -10 150 -10 93 0 150 4 150 10 0 6 -57 10 -150
10 -93 0 -150 -4 -150 -10z"/>
<path d="M549 3643 c0 -5 -1 -26 -2 -48 -2 -37 0 -40 26 -43 31 -4 46 20 28
42 -9 10 -9 16 -1 21 8 5 8 11 -1 21 -12 15 -48 19 -50 7z m41 -18 c0 -8 -7
-15 -15 -15 -8 0 -15 7 -15 15 0 8 7 15 15 15 8 0 15 -7 15 -15z m8 -42 c5
-17 -26 -29 -40 -15 -6 6 -7 15 -3 22 9 14 37 9 43 -7z"/>
<path d="M634 3625 c-10 -39 3 -75 26 -75 29 0 47 42 32 75 -7 15 -20 25 -32
25 -13 0 -22 -9 -26 -25z m41 -26 c0 -24 -5 -34 -15 -34 -16 0 -25 37 -16 62
10 26 31 8 31 -28z"/>
<path d="M552 3028 c-32 -32 1 -104 36 -81 25 15 21 46 -8 60 l-24 12 24 10
c22 9 23 10 5 10 -12 1 -26 -4 -33 -11z m40 -40 c7 -19 -2 -38 -18 -38 -8 0
-14 8 -14 18 0 30 23 44 32 20z"/>
<path d="M634 3015 c-10 -39 3 -75 26 -75 29 0 47 42 32 75 -7 15 -20 25 -32
25 -13 0 -22 -9 -26 -25z m41 -26 c0 -24 -5 -34 -15 -34 -16 0 -25 37 -16 62
10 26 31 8 31 -28z"/>
<path d="M240 2550 c0 -4 11 -11 25 -14 32 -8 32 -19 -2 -34 -30 -12 -29 -12
46 5 14 4 27 0 32 -8 5 -8 9 -9 9 -3 0 6 -6 16 -12 21 -22 16 -98 42 -98 33z"/>
<path d="M277 2424 c-4 -4 -7 -15 -7 -25 0 -10 -8 -20 -17 -22 -10 -3 1 -5 25
-6 42 -1 43 0 40 26 -3 27 -26 41 -41 27z m33 -29 c0 -8 -7 -15 -15 -15 -8 0
-15 7 -15 15 0 8 7 15 15 15 8 0 15 -7 15 -15z"/>
<path d="M561 2394 c-26 -33 -26 -44 -1 -44 11 0 20 -7 20 -15 0 -21 18 -19
22 3 5 26 -3 82 -12 82 -5 0 -18 -12 -29 -26z m19 -14 c0 -11 -7 -20 -15 -20
-13 0 -13 3 -3 20 7 11 14 20 15 20 2 0 3 -9 3 -20z"/>
<path d="M624 2406 c-3 -8 -4 -29 -2 -48 2 -25 8 -34 25 -36 29 -4 47 36 33
73 -10 27 -47 35 -56 11z m41 -37 c0 -24 -5 -34 -15 -34 -16 0 -25 37 -16 62
10 26 31 8 31 -28z"/>
<path d="M243 2320 c2 -21 7 -25 37 -25 30 0 35 4 37 25 3 25 3 25 -7 3 -5
-13 -18 -23 -30 -23 -12 0 -25 10 -30 23 -10 22 -10 22 -7 -3z"/>
<path d="M232 2258 c-15 -15 -15 -51 0 -66 7 -7 24 -12 38 -12 31 0 50 17 50
45 0 28 -19 45 -50 45 -14 0 -31 -5 -38 -12z m64 -12 c15 -12 17 -18 8 -33 -6
-10 -21 -18 -34 -18 -13 0 -28 8 -34 18 -9 15 -7 21 8 33 11 8 23 14 26 14 3
0 15 -6 26 -14z"/>
<path d="M546 1792 c-3 -6 2 -8 13 -5 31 8 35 -17 7 -46 -34 -35 -33 -41 7
-40 25 1 27 3 9 6 l-24 5 22 23 c12 13 20 31 18 42 -3 19 -42 30 -52 15z"/>
<path d="M634 1786 c-3 -8 -4 -29 -2 -48 2 -25 8 -34 25 -36 29 -4 47 36 33
73 -10 27 -47 35 -56 11z m41 -37 c0 -24 -5 -34 -15 -34 -16 0 -25 37 -16 62
10 26 31 8 31 -28z"/>
<path d="M642 1178 c-26 -26 -8 -88 25 -88 23 0 38 46 25 75 -13 27 -31 32
-50 13z m33 -38 c0 -38 -20 -52 -30 -21 -8 27 3 63 18 58 7 -2 12 -19 12 -37z"/>
<path d="M540 561 c0 -5 8 -7 19 -4 30 8 33 -13 6 -45 -32 -39 -32 -42 8 -41
23 1 26 3 10 6 l-23 4 22 29 c11 16 18 36 15 44 -7 17 -57 23 -57 7z"/>
<path d="M628 545 c-8 -19 -8 -31 0 -50 19 -42 62 -25 62 25 0 50 -43 67 -62
25z m47 -5 c8 -26 -3 -62 -18 -57 -7 2 -13 14 -15 26 -7 45 20 71 33 31z"/>
<path d="M453 513 c15 -2 37 -2 50 0 12 2 0 4 -28 4 -27 0 -38 -2 -22 -4z"/>
<path d="M785 410 c-4 -6 -1 -9 7 -8 8 2 14 -10 16 -34 2 -28 -1 -37 -15 -41
-10 -3 -2 -5 17 -5 19 0 29 2 23 5 -8 3 -13 23 -13 49 0 32 -4 44 -14 44 -8 0
-18 -5 -21 -10z"/>
<path d="M870 400 c0 -13 7 -20 19 -20 20 0 35 -25 25 -41 -3 -5 -15 -9 -26
-9 -12 0 -19 -3 -15 -6 3 -4 18 -3 32 0 33 8 31 46 -2 61 -13 5 -23 13 -23 17
0 3 10 9 23 11 19 4 18 4 -5 6 -22 1 -28 -4 -28 -19z"/>
<path d="M1615 410 c-4 -6 -1 -9 7 -8 8 2 14 -10 16 -34 2 -28 -1 -37 -15 -41
-10 -3 -2 -5 17 -5 19 0 29 2 23 5 -8 3 -13 23 -13 49 0 32 -4 44 -14 44 -8 0
-18 -5 -21 -10z"/>
<path d="M1698 396 c-16 -37 3 -79 35 -74 19 3 22 9 22 48 0 39 -3 45 -22 48
-16 2 -26 -4 -35 -22z m47 -27 c0 -24 -5 -34 -15 -34 -16 0 -25 37 -16 62 10
26 31 8 31 -28z"/>
<path d="M2480 401 c0 -13 8 -21 23 -23 31 -4 29 -40 -3 -49 -14 -4 -18 -7 -8
-8 30 -2 48 11 48 35 0 17 -7 25 -25 30 -31 8 -32 21 -2 27 19 4 18 4 -5 6
-21 1 -28 -4 -28 -18z"/>
<path d="M3262 408 c-26 -26 -8 -88 25 -88 23 0 38 46 25 75 -13 27 -31 32
-50 13z m33 -38 c0 -38 -20 -52 -30 -21 -8 27 3 63 18 58 7 -2 12 -19 12 -37z"/>
<path d="M4070 401 c0 -13 8 -21 23 -23 14 -2 22 -10 22 -23 0 -14 -6 -20 -22
-19 -13 0 -23 -3 -23 -8 0 -15 49 -8 59 9 11 21 -3 53 -24 53 -24 0 -17 18 8
23 16 3 13 5 -10 6 -26 1 -33 -3 -33 -18z"/>
<path d="M4870 409 c0 -5 5 -7 10 -4 6 4 10 -10 10 -34 0 -22 -5 -42 -12 -44
-7 -3 3 -5 22 -5 19 0 27 2 18 5 -14 3 -18 15 -18 49 0 32 -4 44 -15 44 -8 0
-15 -5 -15 -11z"/>
<path d="M4944 395 c-10 -39 3 -75 26 -75 29 0 47 42 32 75 -7 15 -20 25 -32
25 -13 0 -22 -9 -26 -25z m41 -26 c0 -24 -5 -34 -15 -34 -16 0 -25 37 -16 62
10 26 31 8 31 -28z"/>
<path d="M5700 409 c0 -5 5 -7 10 -4 6 4 10 -10 10 -34 0 -22 -5 -42 -12 -44
-7 -3 3 -5 22 -5 19 0 27 2 18 5 -14 3 -18 15 -18 49 0 32 -4 44 -15 44 -8 0
-15 -5 -15 -11z"/>
<path d="M5770 401 c0 -13 8 -21 23 -23 14 -2 22 -10 22 -23 0 -14 -6 -20 -22
-19 -13 0 -23 -3 -23 -8 0 -5 12 -8 28 -6 21 2 28 9 30 31 3 22 -1 30 -17 34
-28 7 -27 21 2 26 16 3 13 5 -10 6 -26 1 -33 -3 -33 -18z"/>
<path d="M693 363 c15 -2 37 -2 50 0 12 2 0 4 -28 4 -27 0 -38 -2 -22 -4z"/>
<path d="M1523 363 c15 -2 37 -2 50 0 12 2 0 4 -28 4 -27 0 -38 -2 -22 -4z"/>
<path d="M2393 363 c15 -2 37 -2 50 0 12 2 0 4 -28 4 -27 0 -38 -2 -22 -4z"/>
<path d="M3102 218 c-7 -7 -12 -24 -12 -38 0 -31 17 -50 45 -50 28 0 45 19 45
50 0 31 -17 50 -45 50 -12 0 -26 -5 -33 -12z m58 -18 c20 -38 -19 -77 -48 -48
-23 23 -7 68 25 68 7 0 17 -9 23 -20z"/>
<path d="M3204 196 c-12 -31 0 -61 26 -63 25 -3 25 -3 3 7 -13 5 -23 18 -23
30 0 12 9 24 23 30 l22 9 -23 0 c-12 1 -25 -5 -28 -13z"/>
<path d="M3281 172 c-1 -42 0 -43 27 -40 34 4 39 41 5 46 -12 2 -24 11 -26 20
-3 9 -5 -2 -6 -26z m39 -17 c0 -8 -7 -15 -15 -15 -8 0 -15 7 -15 15 0 8 7 15
15 15 8 0 15 -7 15 -15z"/>
<path d="M3409 191 c9 -17 10 -26 2 -34 -19 -19 -12 -31 8 -13 17 16 19 16 25
0 4 -9 9 -14 13 -11 3 4 0 14 -7 22 -10 12 -10 19 -2 27 17 17 15 33 -3 18
-12 -10 -18 -10 -32 1 -15 13 -15 12 -4 -10z"/>
</g>
</svg>
