<?xml version="1.0" encoding="UTF-8"?>
<!DOCTYPE svg PUBLIC "-//W3C//DTD SVG 1.1//EN" "http://www.w3.org/Graphics/SVG/1.1/DTD/svg11.dtd">
<svg xmlns="http://www.w3.org/2000/svg" version="1.1" width="640px" height="480px" style="shape-rendering:geometricPrecision; text-rendering:geometricPrecision; image-rendering:optimizeQuality; fill-rule:evenodd; clip-rule:evenodd" xmlns:xlink="http://www.w3.org/1999/xlink">
<g><path style="opacity:1" fill="#fefefe" d="M -0.5,-0.5 C 212.833,-0.5 426.167,-0.5 639.5,-0.5C 639.5,159.5 639.5,319.5 639.5,479.5C 426.167,479.5 212.833,479.5 -0.5,479.5C -0.5,319.5 -0.5,159.5 -0.5,-0.5 Z"/></g>
<g><path style="opacity:1" fill="#000000" d="M 283.5,35.5 C 285.857,35.3367 288.19,35.5034 290.5,36C 288.527,36.4955 286.527,36.6621 284.5,36.5C 284.666,40.5138 284.499,44.5138 284,48.5C 283.501,44.1794 283.334,39.8461 283.5,35.5 Z"/></g>
<g><path style="opacity:1" fill="#3d3d3d" d="M 352.5,43.5 C 352.262,45.6449 351.262,47.3115 349.5,48.5C 348.167,45.1667 348.167,41.8333 349.5,38.5C 350.308,40.4233 350.808,42.4233 351,44.5C 351.383,43.944 351.883,43.6107 352.5,43.5 Z"/></g>
<g><path style="opacity:1" fill="#202020" d="M 307.5,47.5 C 305.316,48.9829 303.983,48.3163 303.5,45.5C 303.608,44.5581 303.941,43.7247 304.5,43C 310.817,41.9079 310.483,40.9079 303.5,40C 307.978,37.4077 310.311,38.7411 310.5,44C 310.333,45.5 310.167,47 310,48.5C 309.329,47.7476 308.496,47.4142 307.5,47.5 Z"/></g>
<g><path style="opacity:1" fill="#2a2a2a" d="M 318.5,35.5 C 320.048,35.8212 320.715,36.8212 320.5,38.5C 325.151,39.1742 326.651,41.8408 325,46.5C 323.89,48.0368 322.39,48.7035 320.5,48.5C 320.762,49.9778 320.429,51.3112 319.5,52.5C 318.702,50.9223 318.202,49.2556 318,47.5C 316.667,48.8333 315.333,48.8333 314,47.5C 313.333,45.1667 313.333,42.8333 314,40.5C 314.953,38.4078 316.286,38.0745 318,39.5C 318.49,38.2068 318.657,36.8734 318.5,35.5 Z"/></g>
<g><path style="opacity:1" fill="#f6f6f6" d="M 320.5,40.5 C 321.5,40.5 322.5,40.5 323.5,40.5C 322.5,49.8333 321.5,49.8333 320.5,40.5 Z"/></g>
<g><path style="opacity:1" fill="#f0f0f0" d="M 315.5,40.5 C 316.5,40.5 317.5,40.5 318.5,40.5C 318.5,42.5 318.5,44.5 318.5,46.5C 314.556,46.1156 313.556,44.1156 315.5,40.5 Z"/></g>
<g><path style="opacity:1" fill="#3d3d3d" d="M 352.5,43.5 C 352.738,41.3551 353.738,39.6885 355.5,38.5C 356.833,41.8333 356.833,45.1667 355.5,48.5C 354.692,46.5767 354.192,44.5767 354,42.5C 353.617,43.056 353.117,43.3893 352.5,43.5 Z"/></g>
<g><path style="opacity:1" fill="#252525" d="M 293.5,38.5 C 295.314,38.7721 297.314,38.9387 299.5,39C 302.167,42 302.167,45 299.5,48C 297.888,48.7203 296.388,48.5536 295,47.5C 294.667,49.1667 294.333,50.8333 294,52.5C 293.501,47.8452 293.334,43.1785 293.5,38.5 Z"/></g>
<g><path style="opacity:1" fill="#ececec" d="M 295.5,40.5 C 296.833,40.5 298.167,40.5 299.5,40.5C 299.5,42.5 299.5,44.5 299.5,46.5C 294.74,46.7993 293.406,44.7993 295.5,40.5 Z"/></g>
<g><path style="opacity:1" fill="#282828" d="M 327.5,38.5 C 329.197,40.3052 330.03,42.6385 330,45.5C 331.015,42.7899 332.515,40.4566 334.5,38.5C 335.657,41.7844 335.824,45.1177 335,48.5C 335.186,39.5467 333.686,39.2133 330.5,47.5C 329.675,48.3857 328.675,48.719 327.5,48.5C 327.5,45.1667 327.5,41.8333 327.5,38.5 Z"/></g>
<g><path style="opacity:1" fill="#cfcfcf" d="M 307.5,47.5 C 304.827,47.3155 304.16,46.1489 305.5,44C 309.817,43.3035 310.484,44.4702 307.5,47.5 Z"/></g>
<g><path style="opacity:1" fill="#353535" d="M 338.5,38.5 C 340.045,39.2297 340.878,40.563 341,42.5C 344.941,37.0624 345.774,37.2291 343.5,43C 344.484,44.6565 345.484,46.3232 346.5,48C 345.833,48.6667 345.167,48.6667 344.5,48C 343.54,46.5806 342.707,45.0806 342,43.5C 341.02,45.0589 340.187,46.7256 339.5,48.5C 338.513,45.2317 338.18,41.8984 338.5,38.5 Z"/></g>
<g><path style="opacity:1" fill="#242424" d="M 364.5,35.5 C 370.989,34.9753 372.823,37.642 370,43.5C 368.833,44.6667 367.667,45.8333 366.5,47C 368.167,47.3333 369.833,47.6667 371.5,48C 363.268,49.2648 362.434,47.4315 369,42.5C 370.009,40.9751 370.509,39.3084 370.5,37.5C 367.918,37.9746 365.918,37.3079 364.5,35.5 Z"/></g>
<g><path style="opacity:1" fill="#0a0a0a" d="M 46.5,53.5 C 46.56,52.9569 46.8933,52.6236 47.5,52.5C 48.4841,55.4281 48.8174,58.4281 48.5,61.5C 51.2627,62.4551 50.2627,62.6218 45.5,62C 46.6841,60.8197 47.3507,59.3197 47.5,57.5C 47.4892,55.9549 47.1558,54.6216 46.5,53.5 Z"/></g>
<g><path style="opacity:1" fill="#525252" d="M 53.5,52.5 C 59.7863,53.3146 61.1196,56.4812 57.5,62C 55.5665,62.7826 54.0665,62.2826 53,60.5C 52.3985,57.7795 52.5651,55.1128 53.5,52.5 Z"/></g>
<g><path style="opacity:1" fill="#f4f4f4" d="M 54.5,53.5 C 56.8896,53.6848 57.8896,55.0182 57.5,57.5C 57.6578,59.3186 56.9911,60.6519 55.5,61.5C 54.52,58.9135 54.1866,56.2469 54.5,53.5 Z"/></g>
<g><path style="opacity:1" fill="#242424" d="M 62.5,52.5 C 64.1439,52.2865 65.6439,52.6198 67,53.5C 67.7772,56.4294 67.6105,59.2628 66.5,62C 64.8876,62.7203 63.3876,62.5536 62,61.5C 61.2642,58.408 61.4309,55.408 62.5,52.5 Z"/></g>
<g><path style="opacity:1" fill="#eeeeee" d="M 63.5,53.5 C 65.8896,53.6848 66.8896,55.0182 66.5,57.5C 65.1667,62.8333 63.8333,62.8333 62.5,57.5C 62.6233,56.0755 62.9566,54.7421 63.5,53.5 Z"/></g>
<g><path style="opacity:1" fill="#000000" d="M 75.5,58.5 C 242.333,57.5003 409.333,57.167 576.5,57.5C 576.833,183.522 576.5,306.855 575.5,427.5C 555.167,427.5 534.833,427.5 514.5,427.5C 514.167,432.833 513.833,432.833 513.5,427.5C 493.167,427.5 472.833,427.5 452.5,427.5C 452.167,432.833 451.833,432.833 451.5,427.5C 431.167,427.5 410.833,427.5 390.5,427.5C 390.167,432.833 389.833,432.833 389.5,427.5C 369.167,427.5 348.833,427.5 328.5,427.5C 328.167,432.833 327.833,432.833 327.5,427.5C 307.167,427.5 286.833,427.5 266.5,427.5C 266.167,432.833 265.833,432.833 265.5,427.5C 245.167,427.5 224.833,427.5 204.5,427.5C 204.167,432.833 203.833,432.833 203.5,427.5C 183.167,427.5 162.833,427.5 142.5,427.5C 142.167,432.833 141.833,432.833 141.5,427.5C 121.167,427.5 100.833,427.5 80.5,427.5C 80.1667,432.833 79.8333,432.833 79.5,427.5C 74.1667,427.167 74.1667,426.833 79.5,426.5C 79.5,406.5 79.5,386.5 79.5,366.5C 74.1667,366.167 74.1667,365.833 79.5,365.5C 79.5,345.167 79.5,324.833 79.5,304.5C 74.1667,304.167 74.1667,303.833 79.5,303.5C 79.5,283.167 79.5,262.833 79.5,242.5C 74.1667,242.167 74.1667,241.833 79.5,241.5C 79.5,221.5 79.5,201.5 79.5,181.5C 74.1667,181.167 74.1667,180.833 79.5,180.5C 79.5,160.167 79.5,139.833 79.5,119.5C 74.1667,119.167 74.1667,118.833 79.5,118.5C 79.5,98.5 79.5,78.5 79.5,58.5C 78.1667,58.5 76.8333,58.5 75.5,58.5 Z"/></g>
<g><path style="opacity:1" fill="#fefefe" d="M 141.5,58.5 C 141.5,78.5 141.5,98.5 141.5,118.5C 121.167,118.5 100.833,118.5 80.5,118.5C 80.5,98.5 80.5,78.5 80.5,58.5C 100.833,58.5 121.167,58.5 141.5,58.5 Z"/></g>
<g><path style="opacity:1" fill="#adaeb0" d="M 141.5,58.5 C 141.833,58.5 142.167,58.5 142.5,58.5C 142.5,78.5 142.5,98.5 142.5,118.5C 162.833,118.5 183.167,118.5 203.5,118.5C 203.5,98.5 203.5,78.5 203.5,58.5C 203.833,58.5 204.167,58.5 204.5,58.5C 205.1,99.5628 205.767,140.563 206.5,181.5C 205.168,191.144 204.501,201.144 204.5,211.5C 204.501,221.856 205.168,231.856 206.5,241.5C 206.5,241.833 206.5,242.167 206.5,242.5C 205.168,251.642 204.502,261.142 204.5,271C 204.5,280.673 204.834,290.173 205.5,299.5C 205.794,309.871 206.461,320.205 207.5,330.5C 205.824,331.183 205.157,332.517 205.5,334.5C 204.506,344.653 204.172,354.986 204.5,365.5C 224.833,365.5 245.167,365.5 265.5,365.5C 265.5,364.5 265.5,363.5 265.5,362.5C 266.167,362.5 266.5,362.833 266.5,363.5C 276.311,364.832 286.477,365.499 297,365.5C 307.523,365.499 317.689,364.832 327.5,363.5C 327.833,363.5 328.167,363.5 328.5,363.5C 338.311,364.832 348.477,365.499 359,365.5C 369.523,365.499 379.689,364.832 389.5,363.5C 389.833,363.5 390.167,363.5 390.5,363.5C 400.311,364.832 410.477,365.499 421,365.5C 431.523,365.499 441.689,364.832 451.5,363.5C 451.833,363.5 452.167,363.5 452.5,363.5C 472.473,365.488 492.806,366.155 513.5,365.5C 513.5,345.167 513.5,324.833 513.5,304.5C 493.167,304.5 472.833,304.5 452.5,304.5C 452.5,323.5 452.5,342.5 452.5,361.5C 397.331,361.832 342.331,361.499 287.5,360.5C 314.339,360.831 341.005,360.498 367.5,359.5C 374.833,359.5 382.167,359.5 389.5,359.5C 389.5,341.167 389.5,322.833 389.5,304.5C 369.167,304.5 348.833,304.5 328.5,304.5C 328.5,322.833 328.5,341.167 328.5,359.5C 328.167,359.5 327.833,359.5 327.5,359.5C 327.5,341.167 327.5,322.833 327.5,304.5C 307.167,304.5 286.833,304.5 266.5,304.5C 266.5,322.5 266.5,340.5 266.5,358.5C 266.167,358.5 265.833,358.5 265.5,358.5C 265.5,340.5 265.5,322.5 265.5,304.5C 247.5,304.5 229.5,304.5 211.5,304.5C 211.5,307.167 211.5,309.833 211.5,312.5C 210.523,309.713 210.19,306.713 210.5,303.5C 228.833,303.5 247.167,303.5 265.5,303.5C 265.5,283.167 265.5,262.833 265.5,242.5C 246.833,242.5 228.167,242.5 209.5,242.5C 209.5,242.167 209.5,241.833 209.5,241.5C 228.167,241.5 246.833,241.5 265.5,241.5C 265.5,221.5 265.5,201.5 265.5,181.5C 246.5,181.5 227.5,181.5 208.5,181.5C 208.5,181.167 208.5,180.833 208.5,180.5C 227.5,180.5 246.5,180.5 265.5,180.5C 265.5,160.167 265.5,139.833 265.5,119.5C 246.5,119.5 227.5,119.5 208.5,119.5C 207.833,119.5 207.5,119.167 207.5,118.5C 226.833,118.5 246.167,118.5 265.5,118.5C 265.5,98.5 265.5,78.5 265.5,58.5C 265.833,58.5 266.167,58.5 266.5,58.5C 266.5,78.5 266.5,98.5 266.5,118.5C 286.833,118.5 307.167,118.5 327.5,118.5C 327.5,98.5 327.5,78.5 327.5,58.5C 327.833,58.5 328.167,58.5 328.5,58.5C 328.5,78.5 328.5,98.5 328.5,118.5C 348.833,118.5 369.167,118.5 389.5,118.5C 389.5,98.5 389.5,78.5 389.5,58.5C 389.833,58.5 390.167,58.5 390.5,58.5C 390.5,78.5 390.5,98.5 390.5,118.5C 410.833,118.5 431.167,118.5 451.5,118.5C 451.5,98.5 451.5,78.5 451.5,58.5C 451.833,58.5 452.167,58.5 452.5,58.5C 452.5,78.5 452.5,98.5 452.5,118.5C 471.5,118.5 490.5,118.5 509.5,118.5C 509.5,118.833 509.5,119.167 509.5,119.5C 490.5,119.5 471.5,119.5 452.5,119.5C 452.5,139.833 452.5,160.167 452.5,180.5C 472.833,180.5 493.167,180.5 513.5,180.5C 513.5,164.5 513.5,148.5 513.5,132.5C 513.833,132.5 514.167,132.5 514.5,132.5C 514.5,148.5 514.5,164.5 514.5,180.5C 534.833,180.5 555.167,180.5 575.5,180.5C 575.5,180.833 575.5,181.167 575.5,181.5C 555.167,181.5 534.833,181.5 514.5,181.5C 514.5,201.5 514.5,221.5 514.5,241.5C 534.833,241.5 555.167,241.5 575.5,241.5C 575.5,241.833 575.5,242.167 575.5,242.5C 555.167,242.5 534.833,242.5 514.5,242.5C 514.5,262.833 514.5,283.167 514.5,303.5C 534.833,303.5 555.167,303.5 575.5,303.5C 575.5,303.833 575.5,304.167 575.5,304.5C 555.167,304.5 534.833,304.5 514.5,304.5C 514.5,324.833 514.5,345.167 514.5,365.5C 534.833,365.5 555.167,365.5 575.5,365.5C 575.5,365.833 575.5,366.167 575.5,366.5C 555.167,366.5 534.833,366.5 514.5,366.5C 514.5,386.5 514.5,406.5 514.5,426.5C 514.167,426.5 513.833,426.5 513.5,426.5C 513.5,406.5 513.5,386.5 513.5,366.5C 493.167,366.5 472.833,366.5 452.5,366.5C 452.5,386.5 452.5,406.5 452.5,426.5C 452.167,426.5 451.833,426.5 451.5,426.5C 451.5,406.5 451.5,386.5 451.5,366.5C 431.167,366.5 410.833,366.5 390.5,366.5C 390.5,386.5 390.5,406.5 390.5,426.5C 390.167,426.5 389.833,426.5 389.5,426.5C 389.5,406.5 389.5,386.5 389.5,366.5C 369.167,366.5 348.833,366.5 328.5,366.5C 328.5,386.5 328.5,406.5 328.5,426.5C 328.167,426.5 327.833,426.5 327.5,426.5C 327.5,406.5 327.5,386.5 327.5,366.5C 307.167,366.5 286.833,366.5 266.5,366.5C 266.5,386.5 266.5,406.5 266.5,426.5C 266.167,426.5 265.833,426.5 265.5,426.5C 265.5,406.5 265.5,386.5 265.5,366.5C 245.167,366.5 224.833,366.5 204.5,366.5C 204.5,386.5 204.5,406.5 204.5,426.5C 204.167,426.5 203.833,426.5 203.5,426.5C 203.5,406.5 203.5,386.5 203.5,366.5C 183.167,366.5 162.833,366.5 142.5,366.5C 142.5,386.5 142.5,406.5 142.5,426.5C 142.167,426.5 141.833,426.5 141.5,426.5C 141.5,406.5 141.5,386.5 141.5,366.5C 121.167,366.5 100.833,366.5 80.5,366.5C 80.5,366.167 80.5,365.833 80.5,365.5C 100.833,365.5 121.167,365.5 141.5,365.5C 141.5,345.167 141.5,324.833 141.5,304.5C 121.167,304.5 100.833,304.5 80.5,304.5C 80.5,304.167 80.5,303.833 80.5,303.5C 100.833,303.5 121.167,303.5 141.5,303.5C 141.5,283.167 141.5,262.833 141.5,242.5C 121.167,242.5 100.833,242.5 80.5,242.5C 80.5,242.167 80.5,241.833 80.5,241.5C 100.833,241.5 121.167,241.5 141.5,241.5C 141.5,221.5 141.5,201.5 141.5,181.5C 121.167,181.5 100.833,181.5 80.5,181.5C 80.5,181.167 80.5,180.833 80.5,180.5C 100.833,180.5 121.167,180.5 141.5,180.5C 141.5,160.167 141.5,139.833 141.5,119.5C 121.167,119.5 100.833,119.5 80.5,119.5C 80.5,119.167 80.5,118.833 80.5,118.5C 100.833,118.5 121.167,118.5 141.5,118.5C 141.5,98.5 141.5,78.5 141.5,58.5 Z"/></g>
<g><path style="opacity:1" fill="#fefefe" d="M 142.5,58.5 C 162.833,58.5 183.167,58.5 203.5,58.5C 203.5,78.5 203.5,98.5 203.5,118.5C 183.167,118.5 162.833,118.5 142.5,118.5C 142.5,98.5 142.5,78.5 142.5,58.5 Z"/></g>
<g><path style="opacity:1" fill="#439538" d="M 204.5,58.5 C 205.5,58.5 206.5,58.5 207.5,58.5C 207.5,78.5 207.5,98.5 207.5,118.5C 207.5,119.167 207.833,119.5 208.5,119.5C 208.5,139.833 208.5,160.167 208.5,180.5C 208.5,180.833 208.5,181.167 208.5,181.5C 208.611,201.505 208.945,221.505 209.5,241.5C 209.5,241.833 209.5,242.167 209.5,242.5C 209.268,262.849 209.601,283.183 210.5,303.5C 210.19,306.713 210.523,309.713 211.5,312.5C 211.591,321.564 212.424,330.564 214,339.5C 214.701,343.109 215.868,346.442 217.5,349.5C 218.591,352.428 220.591,354.594 223.5,356C 226.559,356.645 229.559,357.478 232.5,358.5C 250.792,360.175 269.125,360.841 287.5,360.5C 342.331,361.499 397.331,361.832 452.5,361.5C 452.5,362.167 452.5,362.833 452.5,363.5C 452.167,363.5 451.833,363.5 451.5,363.5C 431.167,363.5 410.833,363.5 390.5,363.5C 390.167,363.5 389.833,363.5 389.5,363.5C 369.167,363.5 348.833,363.5 328.5,363.5C 328.167,363.5 327.833,363.5 327.5,363.5C 307.167,363.5 286.833,363.5 266.5,363.5C 266.5,362.833 266.167,362.5 265.5,362.5C 252.004,363.136 238.671,362.136 225.5,359.5C 223.071,358.449 220.738,357.116 218.5,355.5C 216.819,352.797 215.153,350.131 213.5,347.5C 210.084,335.763 208.418,323.763 208.5,311.5C 207.833,288.5 207.167,265.5 206.5,242.5C 206.5,242.167 206.5,241.833 206.5,241.5C 206.5,221.5 206.5,201.5 206.5,181.5C 205.767,140.563 205.1,99.5628 204.5,58.5 Z"/></g>
<g><path style="opacity:1" fill="#fefefe" d="M 207.5,58.5 C 226.833,58.5 246.167,58.5 265.5,58.5C 265.5,78.5 265.5,98.5 265.5,118.5C 246.167,118.5 226.833,118.5 207.5,118.5C 207.5,98.5 207.5,78.5 207.5,58.5 Z"/></g>
<g><path style="opacity:1" fill="#fefefe" d="M 266.5,58.5 C 286.833,58.5 307.167,58.5 327.5,58.5C 327.5,78.5 327.5,98.5 327.5,118.5C 307.167,118.5 286.833,118.5 266.5,118.5C 266.5,98.5 266.5,78.5 266.5,58.5 Z"/></g>
<g><path style="opacity:1" fill="#fefefe" d="M 328.5,58.5 C 348.833,58.5 369.167,58.5 389.5,58.5C 389.5,78.5 389.5,98.5 389.5,118.5C 369.167,118.5 348.833,118.5 328.5,118.5C 328.5,98.5 328.5,78.5 328.5,58.5 Z"/></g>
<g><path style="opacity:1" fill="#fefefe" d="M 390.5,58.5 C 410.833,58.5 431.167,58.5 451.5,58.5C 451.5,78.5 451.5,98.5 451.5,118.5C 431.167,118.5 410.833,118.5 390.5,118.5C 390.5,98.5 390.5,78.5 390.5,58.5 Z"/></g>
<g><path style="opacity:1" fill="#fefefe" d="M 452.5,58.5 C 472.833,58.5 493.167,58.5 513.5,58.5C 513.5,60.5 513.5,62.5 513.5,64.5C 512.178,64.33 511.011,64.6634 510,65.5C 509.5,83.1635 509.333,100.83 509.5,118.5C 490.5,118.5 471.5,118.5 452.5,118.5C 452.5,98.5 452.5,78.5 452.5,58.5 Z"/></g>
<g><path style="opacity:1" fill="#fafafa" d="M 514.5,58.5 C 534.833,58.5 555.167,58.5 575.5,58.5C 575.5,78.5 575.5,98.5 575.5,118.5C 573.5,118.5 571.5,118.5 569.5,118.5C 569.826,100.59 569.492,82.7566 568.5,65C 550.503,64.5001 532.503,64.3334 514.5,64.5C 514.5,62.5 514.5,60.5 514.5,58.5 Z"/></g>
<g><path style="opacity:1" fill="#777777" d="M 54.5,114.5 C 56.4672,114.261 58.3005,114.594 60,115.5C 60.2022,118.259 60.0355,121.092 59.5,124C 57.5594,124.743 55.7261,124.576 54,123.5C 54.1387,120.473 54.3053,117.473 54.5,114.5 Z"/></g>
<g><path style="opacity:1" fill="#525252" d="M 63.5,114.5 C 69.7863,115.315 71.1196,118.481 67.5,124C 65.5665,124.783 64.0665,124.283 63,122.5C 62.3985,119.779 62.5651,117.113 63.5,114.5 Z"/></g>
<g><path style="opacity:1" fill="#f4f4f4" d="M 64.5,115.5 C 66.8896,115.685 67.8896,117.018 67.5,119.5C 67.6578,121.319 66.9911,122.652 65.5,123.5C 64.52,120.914 64.1866,118.247 64.5,115.5 Z"/></g>
<g><path style="opacity:1" fill="#fefefe" d="M 80.5,119.5 C 100.833,119.5 121.167,119.5 141.5,119.5C 141.5,139.833 141.5,160.167 141.5,180.5C 121.167,180.5 100.833,180.5 80.5,180.5C 80.5,160.167 80.5,139.833 80.5,119.5 Z"/></g>
<g><path style="opacity:1" fill="#fefefe" d="M 142.5,119.5 C 162.833,119.5 183.167,119.5 203.5,119.5C 203.5,139.833 203.5,160.167 203.5,180.5C 183.167,180.5 162.833,180.5 142.5,180.5C 142.5,160.167 142.5,139.833 142.5,119.5 Z"/></g>
<g><path style="opacity:1" fill="#fefefe" d="M 208.5,119.5 C 227.5,119.5 246.5,119.5 265.5,119.5C 265.5,139.833 265.5,160.167 265.5,180.5C 246.5,180.5 227.5,180.5 208.5,180.5C 208.5,160.167 208.5,139.833 208.5,119.5 Z"/></g>
<g><path style="opacity:1" fill="#fefefe" d="M 266.5,119.5 C 286.833,119.5 307.167,119.5 327.5,119.5C 327.5,139.833 327.5,160.167 327.5,180.5C 307.167,180.5 286.833,180.5 266.5,180.5C 266.5,160.167 266.5,139.833 266.5,119.5 Z"/></g>
<g><path style="opacity:1" fill="#fefefe" d="M 328.5,119.5 C 348.833,119.5 369.167,119.5 389.5,119.5C 389.5,139.833 389.5,160.167 389.5,180.5C 369.167,180.5 348.833,180.5 328.5,180.5C 328.5,160.167 328.5,139.833 328.5,119.5 Z"/></g>
<g><path style="opacity:1" fill="#fefefe" d="M 390.5,119.5 C 410.833,119.5 431.167,119.5 451.5,119.5C 451.5,139.833 451.5,160.167 451.5,180.5C 431.167,180.5 410.833,180.5 390.5,180.5C 390.5,160.167 390.5,139.833 390.5,119.5 Z"/></g>
<g><path style="opacity:1" fill="#fefefe" d="M 509.5,119.5 C 509.334,123.514 509.501,127.514 510,131.5C 511.011,132.337 512.178,132.67 513.5,132.5C 513.5,148.5 513.5,164.5 513.5,180.5C 493.167,180.5 472.833,180.5 452.5,180.5C 452.5,160.167 452.5,139.833 452.5,119.5C 471.5,119.5 490.5,119.5 509.5,119.5 Z"/></g>
<g><path style="opacity:1" fill="#fefefe" d="M 575.5,119.5 C 575.5,139.833 575.5,160.167 575.5,180.5C 555.167,180.5 534.833,180.5 514.5,180.5C 514.5,164.5 514.5,148.5 514.5,132.5C 532.503,132.667 550.503,132.5 568.5,132C 569.464,127.934 569.797,123.767 569.5,119.5C 571.5,119.5 573.5,119.5 575.5,119.5 Z"/></g>
<g><path style="opacity:1" fill="#d5d5d5" d="M 513.5,58.5 C 513.833,58.5 514.167,58.5 514.5,58.5C 514.5,60.5 514.5,62.5 514.5,64.5C 532.503,64.3334 550.503,64.5001 568.5,65C 569.492,82.7566 569.826,100.59 569.5,118.5C 571.5,118.5 573.5,118.5 575.5,118.5C 575.5,118.833 575.5,119.167 575.5,119.5C 573.5,119.5 571.5,119.5 569.5,119.5C 569.797,123.767 569.464,127.934 568.5,132C 550.503,132.5 532.503,132.667 514.5,132.5C 514.167,132.5 513.833,132.5 513.5,132.5C 512.178,132.67 511.011,132.337 510,131.5C 509.501,127.514 509.334,123.514 509.5,119.5C 509.5,119.167 509.5,118.833 509.5,118.5C 509.333,100.83 509.5,83.1635 510,65.5C 511.011,64.6634 512.178,64.33 513.5,64.5C 513.5,62.5 513.5,60.5 513.5,58.5 Z"/></g>
<g><path style="opacity:1" fill="#fbfbfb" d="M 511.5,65.5 C 530.41,65.174 549.243,65.5073 568,66.5C 568.826,88.0729 568.66,109.573 567.5,131C 548.593,131.825 529.76,131.659 511,130.5C 510.179,108.761 510.345,87.0938 511.5,65.5 Z"/></g>
<g><path style="opacity:1" fill="#464646" d="M 557.5,116.5 C 562.041,116.815 563.041,118.649 560.5,122C 558.741,122.798 557.074,122.631 555.5,121.5C 556.582,121.251 557.915,121.085 559.5,121C 559.957,120.586 560.291,120.086 560.5,119.5C 559.007,118.859 558.007,117.859 557.5,116.5 Z"/></g>
<g><path style="opacity:1" fill="#008000" d="M 514.5,116.5 C 524.522,116.168 534.522,116.501 544.5,117.5C 539.5,117.833 534.5,118.167 529.5,118.5C 524.119,118.494 519.119,117.828 514.5,116.5 Z"/></g>
<g><path style="opacity:1" fill="#0000ff" d="M 514.5,95.5 C 524.522,95.1681 534.522,95.5015 544.5,96.5C 539.5,96.8333 534.5,97.1667 529.5,97.5C 524.119,97.4942 519.119,96.8275 514.5,95.5 Z"/></g>
<g><path style="opacity:1" fill="#2a2a2a" d="M 555.5,91.5 C 562.737,92.2724 563.403,95.1057 557.5,100C 558.833,100.333 560.167,100.667 561.5,101C 559.421,101.808 557.421,101.641 555.5,100.5C 557.167,98.5 558.833,96.5 560.5,94.5C 559.38,92.4038 557.88,92.0705 556,93.5C 555.536,92.9056 555.369,92.2389 555.5,91.5 Z"/></g>
<g><path style="opacity:1" fill="#fe0000" d="M 514.5,74.5 C 524.522,74.1681 534.522,74.5015 544.5,75.5C 539.5,75.8333 534.5,76.1667 529.5,76.5C 524.119,76.4942 519.119,75.8275 514.5,74.5 Z"/></g>
<g><path style="opacity:1" fill="#0a0a0a" d="M 557.5,71.5 C 557.56,70.9569 557.893,70.6236 558.5,70.5C 559.484,73.4281 559.817,76.4281 559.5,79.5C 562.263,80.4551 561.263,80.6218 556.5,80C 557.684,78.8197 558.351,77.3197 558.5,75.5C 558.489,73.9549 558.156,72.6216 557.5,71.5 Z"/></g>
<g><path style="opacity:1" fill="#525252" d="M 63.5,175.5 C 69.7863,176.315 71.1196,179.481 67.5,185C 65.5665,185.783 64.0665,185.283 63,183.5C 62.3985,180.779 62.5651,178.113 63.5,175.5 Z"/></g>
<g><path style="opacity:1" fill="#f4f4f4" d="M 64.5,176.5 C 66.8896,176.685 67.8896,178.018 67.5,180.5C 67.6578,182.319 66.9911,183.652 65.5,184.5C 64.52,181.914 64.1866,179.247 64.5,176.5 Z"/></g>
<g><path style="opacity:1" fill="#fefefe" d="M 80.5,181.5 C 100.833,181.5 121.167,181.5 141.5,181.5C 141.5,201.5 141.5,221.5 141.5,241.5C 121.167,241.5 100.833,241.5 80.5,241.5C 80.5,221.5 80.5,201.5 80.5,181.5 Z"/></g>
<g><path style="opacity:1" fill="#fefefe" d="M 142.5,181.5 C 162.833,181.5 183.167,181.5 203.5,181.5C 203.5,201.5 203.5,221.5 203.5,241.5C 183.167,241.5 162.833,241.5 142.5,241.5C 142.5,221.5 142.5,201.5 142.5,181.5 Z"/></g>
<g><path style="opacity:1" fill="#fefefe" d="M 208.5,181.5 C 227.5,181.5 246.5,181.5 265.5,181.5C 265.5,201.5 265.5,221.5 265.5,241.5C 246.833,241.5 228.167,241.5 209.5,241.5C 208.945,221.505 208.611,201.505 208.5,181.5 Z"/></g>
<g><path style="opacity:1" fill="#fefefe" d="M 266.5,181.5 C 286.833,181.5 307.167,181.5 327.5,181.5C 327.5,201.5 327.5,221.5 327.5,241.5C 307.167,241.5 286.833,241.5 266.5,241.5C 266.5,221.5 266.5,201.5 266.5,181.5 Z"/></g>
<g><path style="opacity:1" fill="#fefefe" d="M 328.5,181.5 C 348.833,181.5 369.167,181.5 389.5,181.5C 389.5,201.5 389.5,221.5 389.5,241.5C 369.167,241.5 348.833,241.5 328.5,241.5C 328.5,221.5 328.5,201.5 328.5,181.5 Z"/></g>
<g><path style="opacity:1" fill="#fefefe" d="M 390.5,181.5 C 410.833,181.5 431.167,181.5 451.5,181.5C 451.5,201.5 451.5,221.5 451.5,241.5C 431.167,241.5 410.833,241.5 390.5,241.5C 390.5,221.5 390.5,201.5 390.5,181.5 Z"/></g>
<g><path style="opacity:1" fill="#fefefe" d="M 452.5,181.5 C 472.833,181.5 493.167,181.5 513.5,181.5C 513.5,201.5 513.5,221.5 513.5,241.5C 493.167,241.5 472.833,241.5 452.5,241.5C 452.5,221.5 452.5,201.5 452.5,181.5 Z"/></g>
<g><path style="opacity:1" fill="#fefefe" d="M 575.5,181.5 C 575.5,201.5 575.5,221.5 575.5,241.5C 555.167,241.5 534.833,241.5 514.5,241.5C 514.5,221.5 514.5,201.5 514.5,181.5C 534.833,181.5 555.167,181.5 575.5,181.5 Z"/></g>
<g><path style="opacity:1" fill="#676767" d="M 55.5,175.5 C 56.8734,175.343 58.2068,175.51 59.5,176C 57.9559,176.29 56.6226,176.956 55.5,178C 59.9177,178.723 61.2511,181.057 59.5,185C 54.0081,185.486 52.1747,182.986 54,177.5C 54.7172,176.956 55.2172,176.289 55.5,175.5 Z"/></g>
<g><path style="opacity:1" fill="#f9faf9" d="M 206.5,181.5 C 206.5,201.5 206.5,221.5 206.5,241.5C 205.168,231.856 204.501,221.856 204.5,211.5C 204.501,201.144 205.168,191.144 206.5,181.5 Z"/></g>
<g><path style="opacity:1" fill="#383838" d="M 23.5,223.5 C 26.7248,225.021 30.0581,226.355 33.5,227.5C 34.5827,228.365 34.7494,229.365 34,230.5C 33.3261,229.422 32.3261,228.755 31,228.5C 28.5324,229.503 26.0324,230.003 23.5,230C 29.0551,228.431 29.3885,226.931 24.5,225.5C 23.7025,225.043 23.3691,224.376 23.5,223.5 Z"/></g>
<g><path style="opacity:1" fill="#1b1b1b" d="M 27.5,236.5 C 31.0681,236.759 32.4015,238.759 31.5,242.5C 28.8127,242.664 26.146,242.497 23.5,242C 24.448,241.517 25.448,241.351 26.5,241.5C 26.366,239.708 26.6993,238.042 27.5,236.5 Z"/></g>
<g><path style="opacity:1" fill="#e7e7e7" d="M 27.5,238.5 C 28.5,238.5 29.5,238.5 30.5,238.5C 30.5,239.5 30.5,240.5 30.5,241.5C 29.5,241.5 28.5,241.5 27.5,241.5C 27.5,240.5 27.5,239.5 27.5,238.5 Z"/></g>
<g><path style="opacity:1" fill="#313131" d="M 62.5,237.5 C 68.5477,238.46 69.8811,241.627 66.5,247C 64.8876,247.72 63.3876,247.554 62,246.5C 61.2642,243.408 61.4309,240.408 62.5,237.5 Z"/></g>
<g><path style="opacity:1" fill="#eeeeee" d="M 63.5,238.5 C 65.8896,238.685 66.8896,240.018 66.5,242.5C 65.1667,247.833 63.8333,247.833 62.5,242.5C 62.6233,241.075 62.9566,239.742 63.5,238.5 Z"/></g>
<g><path style="opacity:1" fill="#fefefe" d="M 80.5,242.5 C 100.833,242.5 121.167,242.5 141.5,242.5C 141.5,262.833 141.5,283.167 141.5,303.5C 121.167,303.5 100.833,303.5 80.5,303.5C 80.5,283.167 80.5,262.833 80.5,242.5 Z"/></g>
<g><path style="opacity:1" fill="#fefefe" d="M 142.5,242.5 C 162.833,242.5 183.167,242.5 203.5,242.5C 203.5,262.833 203.5,283.167 203.5,303.5C 183.167,303.5 162.833,303.5 142.5,303.5C 142.5,283.167 142.5,262.833 142.5,242.5 Z"/></g>
<g><path style="opacity:1" fill="#f2f6f3" d="M 206.5,242.5 C 207.167,265.5 207.833,288.5 208.5,311.5C 208.131,307.232 207.131,303.232 205.5,299.5C 204.834,290.173 204.5,280.673 204.5,271C 204.502,261.142 205.168,251.642 206.5,242.5 Z"/></g>
<g><path style="opacity:1" fill="#fefefe" d="M 209.5,242.5 C 228.167,242.5 246.833,242.5 265.5,242.5C 265.5,262.833 265.5,283.167 265.5,303.5C 247.167,303.5 228.833,303.5 210.5,303.5C 209.601,283.183 209.268,262.849 209.5,242.5 Z"/></g>
<g><path style="opacity:1" fill="#fefefe" d="M 266.5,242.5 C 286.833,242.5 307.167,242.5 327.5,242.5C 327.5,262.833 327.5,283.167 327.5,303.5C 307.167,303.5 286.833,303.5 266.5,303.5C 266.5,283.167 266.5,262.833 266.5,242.5 Z"/></g>
<g><path style="opacity:1" fill="#fefefe" d="M 328.5,242.5 C 348.833,242.5 369.167,242.5 389.5,242.5C 389.5,262.833 389.5,283.167 389.5,303.5C 369.167,303.5 348.833,303.5 328.5,303.5C 328.5,283.167 328.5,262.833 328.5,242.5 Z"/></g>
<g><path style="opacity:1" fill="#fefefe" d="M 390.5,242.5 C 410.833,242.5 431.167,242.5 451.5,242.5C 451.5,262.833 451.5,283.167 451.5,303.5C 431.167,303.5 410.833,303.5 390.5,303.5C 390.5,283.167 390.5,262.833 390.5,242.5 Z"/></g>
<g><path style="opacity:1" fill="#fefefe" d="M 452.5,242.5 C 472.833,242.5 493.167,242.5 513.5,242.5C 513.5,262.833 513.5,283.167 513.5,303.5C 493.167,303.5 472.833,303.5 452.5,303.5C 452.5,283.167 452.5,262.833 452.5,242.5 Z"/></g>
<g><path style="opacity:1" fill="#fefefe" d="M 575.5,242.5 C 575.5,262.833 575.5,283.167 575.5,303.5C 555.167,303.5 534.833,303.5 514.5,303.5C 514.5,283.167 514.5,262.833 514.5,242.5C 534.833,242.5 555.167,242.5 575.5,242.5 Z"/></g>
<g><path style="opacity:1" fill="#2c2c2c" d="M 57.5,237.5 C 59.1408,239.203 60.1408,241.37 60.5,244C 59.9288,245.205 59.2621,246.372 58.5,247.5C 57.6143,246.675 57.281,245.675 57.5,244.5C 56.0222,244.762 54.6888,244.429 53.5,243.5C 54.5575,243.094 55.8908,243.094 57.5,243.5C 57.0651,241.297 57.0651,239.297 57.5,237.5 Z"/></g>
<g><path style="opacity:1" fill="#222222" d="M 23.5,245.5 C 24.3282,249.255 26.4949,250.255 30,248.5C 31.1993,244.814 31.5326,245.147 31,249.5C 28.9361,250.591 26.7695,250.758 24.5,250C 23.6198,248.644 23.2865,247.144 23.5,245.5 Z"/></g>
<g><path style="opacity:1" fill="#292929" d="M 23.5,252.5 C 30.9974,251.804 32.9974,254.637 29.5,261C 21.749,262.091 19.749,259.258 23.5,252.5 Z"/></g>
<g><path style="opacity:1" fill="#ededed" d="M 23.5,254.5 C 25.5273,254.338 27.5273,254.505 29.5,255C 30.6497,259.186 28.983,260.852 24.5,260C 22.3652,258.444 22.0319,256.611 23.5,254.5 Z"/></g>
<g><path style="opacity:1" fill="#2a2a2a" d="M 53.5,299.5 C 60.7365,300.272 61.4032,303.106 55.5,308C 56.8333,308.333 58.1667,308.667 59.5,309C 57.4213,309.808 55.4213,309.641 53.5,308.5C 55.1667,306.5 56.8333,304.5 58.5,302.5C 57.3803,300.404 55.8803,300.07 54,301.5C 53.5357,300.906 53.369,300.239 53.5,299.5 Z"/></g>
<g><path style="opacity:1" fill="#382cfd" d="M 205.5,299.5 C 207.131,303.232 208.131,307.232 208.5,311.5C 208.418,323.763 210.084,335.763 213.5,347.5C 211.07,344.54 209.403,341.207 208.5,337.5C 208.326,335.139 207.993,332.806 207.5,330.5C 206.461,320.205 205.794,309.871 205.5,299.5 Z"/></g>
<g><path style="opacity:1" fill="#313131" d="M 63.5,299.5 C 69.5477,300.46 70.8811,303.627 67.5,309C 65.8876,309.72 64.3876,309.554 63,308.5C 62.2642,305.408 62.4309,302.408 63.5,299.5 Z"/></g>
<g><path style="opacity:1" fill="#eeeeee" d="M 64.5,300.5 C 66.8896,300.685 67.8896,302.018 67.5,304.5C 66.1667,309.833 64.8333,309.833 63.5,304.5C 63.6233,303.075 63.9566,301.742 64.5,300.5 Z"/></g>
<g><path style="opacity:1" fill="#fefefe" d="M 80.5,304.5 C 100.833,304.5 121.167,304.5 141.5,304.5C 141.5,324.833 141.5,345.167 141.5,365.5C 121.167,365.5 100.833,365.5 80.5,365.5C 80.5,345.167 80.5,324.833 80.5,304.5 Z"/></g>
<g><path style="opacity:1" fill="#fefefe" d="M 142.5,304.5 C 162.833,304.5 183.167,304.5 203.5,304.5C 203.5,324.833 203.5,345.167 203.5,365.5C 183.167,365.5 162.833,365.5 142.5,365.5C 142.5,345.167 142.5,324.833 142.5,304.5 Z"/></g>
<g><path style="opacity:1" fill="#fdfdfe" d="M 265.5,358.5 C 250.871,358.81 236.537,356.976 222.5,353C 220.677,352.003 219.01,350.836 217.5,349.5C 215.868,346.442 214.701,343.109 214,339.5C 212.424,330.564 211.591,321.564 211.5,312.5C 211.5,309.833 211.5,307.167 211.5,304.5C 229.5,304.5 247.5,304.5 265.5,304.5C 265.5,322.5 265.5,340.5 265.5,358.5 Z"/></g>
<g><path style="opacity:1" fill="#fefefe" d="M 327.5,359.5 C 307.162,359.401 286.829,359.067 266.5,358.5C 266.5,340.5 266.5,322.5 266.5,304.5C 286.833,304.5 307.167,304.5 327.5,304.5C 327.5,322.833 327.5,341.167 327.5,359.5 Z"/></g>
<g><path style="opacity:1" fill="#fefefe" d="M 367.5,359.5 C 354.5,359.5 341.5,359.5 328.5,359.5C 328.5,341.167 328.5,322.833 328.5,304.5C 348.833,304.5 369.167,304.5 389.5,304.5C 389.5,322.833 389.5,341.167 389.5,359.5C 382.167,359.5 374.833,359.5 367.5,359.5 Z"/></g>
<g><path style="opacity:1" fill="#fefefe" d="M 390.5,304.5 C 410.833,304.5 431.167,304.5 451.5,304.5C 451.5,322.833 451.5,341.167 451.5,359.5C 431.167,359.5 410.833,359.5 390.5,359.5C 390.5,341.167 390.5,322.833 390.5,304.5 Z"/></g>
<g><path style="opacity:1" fill="#fefefe" d="M 452.5,363.5 C 452.5,362.833 452.5,362.167 452.5,361.5C 452.5,342.5 452.5,323.5 452.5,304.5C 472.833,304.5 493.167,304.5 513.5,304.5C 513.5,324.833 513.5,345.167 513.5,365.5C 492.806,366.155 472.473,365.488 452.5,363.5 Z"/></g>
<g><path style="opacity:1" fill="#fefefe" d="M 575.5,304.5 C 575.5,324.833 575.5,345.167 575.5,365.5C 555.167,365.5 534.833,365.5 514.5,365.5C 514.5,345.167 514.5,324.833 514.5,304.5C 534.833,304.5 555.167,304.5 575.5,304.5 Z"/></g>
<g><path style="opacity:1" fill="#fdfbfa" d="M 205.5,334.5 C 204.382,349.334 211.049,357.668 225.5,359.5C 238.671,362.136 252.004,363.136 265.5,362.5C 265.5,363.5 265.5,364.5 265.5,365.5C 245.167,365.5 224.833,365.5 204.5,365.5C 204.172,354.986 204.506,344.653 205.5,334.5 Z"/></g>
<g><path style="opacity:1" fill="#ecdce7" d="M 208.5,337.5 C 209.403,341.207 211.07,344.54 213.5,347.5C 215.153,350.131 216.819,352.797 218.5,355.5C 215.805,355.067 213.638,353.734 212,351.5C 209.579,347.149 208.412,342.483 208.5,337.5 Z"/></g>
<g><path style="opacity:1" fill="#5235f0" d="M 217.5,349.5 C 219.01,350.836 220.677,352.003 222.5,353C 236.537,356.976 250.871,358.81 265.5,358.5C 265.833,358.5 266.167,358.5 266.5,358.5C 286.829,359.067 307.162,359.401 327.5,359.5C 327.833,359.5 328.167,359.5 328.5,359.5C 341.5,359.5 354.5,359.5 367.5,359.5C 341.005,360.498 314.339,360.831 287.5,360.5C 269.125,360.841 250.792,360.175 232.5,358.5C 229.559,357.478 226.559,356.645 223.5,356C 220.591,354.594 218.591,352.428 217.5,349.5 Z"/></g>
<g><path style="opacity:1" fill="#fc3225" d="M 207.5,330.5 C 207.993,332.806 208.326,335.139 208.5,337.5C 208.412,342.483 209.579,347.149 212,351.5C 213.638,353.734 215.805,355.067 218.5,355.5C 220.738,357.116 223.071,358.449 225.5,359.5C 211.049,357.668 204.382,349.334 205.5,334.5C 205.157,332.517 205.824,331.183 207.5,330.5 Z"/></g>
<g><path style="opacity:1" fill="#1d1d1d" d="M 64.5,361.5 C 63.9396,363.801 63.4396,366.134 63,368.5C 62.3333,366.5 62.3333,364.5 63,362.5C 63.3826,361.944 63.8826,361.611 64.5,361.5 Z"/></g>
<g><path style="opacity:1" fill="#fcfcfc" d="M 266.5,363.5 C 286.833,363.5 307.167,363.5 327.5,363.5C 317.689,364.832 307.523,365.499 297,365.5C 286.477,365.499 276.311,364.832 266.5,363.5 Z"/></g>
<g><path style="opacity:1" fill="#fcfcfc" d="M 328.5,363.5 C 348.833,363.5 369.167,363.5 389.5,363.5C 379.689,364.832 369.523,365.499 359,365.5C 348.477,365.499 338.311,364.832 328.5,363.5 Z"/></g>
<g><path style="opacity:1" fill="#fcfcfc" d="M 390.5,363.5 C 410.833,363.5 431.167,363.5 451.5,363.5C 441.689,364.832 431.523,365.499 421,365.5C 410.477,365.499 400.311,364.832 390.5,363.5 Z"/></g>
<g><path style="opacity:1" fill="#494949" d="M 64.5,361.5 C 66.1534,360.201 67.6534,360.534 69,362.5C 70.2965,366.175 69.2965,368.842 66,370.5C 65.5,370.333 65,370.167 64.5,370C 67.3788,368.334 68.2121,365.834 67,362.5C 66.3292,361.748 65.4959,361.414 64.5,361.5 Z"/></g>
<g><path style="opacity:1" fill="#fefefe" d="M 80.5,366.5 C 100.833,366.5 121.167,366.5 141.5,366.5C 141.5,386.5 141.5,406.5 141.5,426.5C 121.167,426.5 100.833,426.5 80.5,426.5C 80.5,406.5 80.5,386.5 80.5,366.5 Z"/></g>
<g><path style="opacity:1" fill="#fefefe" d="M 203.5,426.5 C 183.167,426.5 162.833,426.5 142.5,426.5C 142.5,406.5 142.5,386.5 142.5,366.5C 162.833,366.5 183.167,366.5 203.5,366.5C 203.5,386.5 203.5,406.5 203.5,426.5 Z"/></g>
<g><path style="opacity:1" fill="#fefefe" d="M 265.5,426.5 C 245.167,426.5 224.833,426.5 204.5,426.5C 204.5,406.5 204.5,386.5 204.5,366.5C 224.833,366.5 245.167,366.5 265.5,366.5C 265.5,386.5 265.5,406.5 265.5,426.5 Z"/></g>
<g><path style="opacity:1" fill="#fefefe" d="M 327.5,426.5 C 307.167,426.5 286.833,426.5 266.5,426.5C 266.5,406.5 266.5,386.5 266.5,366.5C 286.833,366.5 307.167,366.5 327.5,366.5C 327.5,386.5 327.5,406.5 327.5,426.5 Z"/></g>
<g><path style="opacity:1" fill="#fefefe" d="M 389.5,426.5 C 369.167,426.5 348.833,426.5 328.5,426.5C 328.5,406.5 328.5,386.5 328.5,366.5C 348.833,366.5 369.167,366.5 389.5,366.5C 389.5,386.5 389.5,406.5 389.5,426.5 Z"/></g>
<g><path style="opacity:1" fill="#fefefe" d="M 451.5,426.5 C 431.167,426.5 410.833,426.5 390.5,426.5C 390.5,406.5 390.5,386.5 390.5,366.5C 410.833,366.5 431.167,366.5 451.5,366.5C 451.5,386.5 451.5,406.5 451.5,426.5 Z"/></g>
<g><path style="opacity:1" fill="#fefefe" d="M 513.5,426.5 C 493.167,426.5 472.833,426.5 452.5,426.5C 452.5,406.5 452.5,386.5 452.5,366.5C 472.833,366.5 493.167,366.5 513.5,366.5C 513.5,386.5 513.5,406.5 513.5,426.5 Z"/></g>
<g><path style="opacity:1" fill="#fefefe" d="M 575.5,366.5 C 575.5,386.5 575.5,406.5 575.5,426.5C 555.167,426.5 534.833,426.5 514.5,426.5C 514.5,406.5 514.5,386.5 514.5,366.5C 534.833,366.5 555.167,366.5 575.5,366.5 Z"/></g>
<g><path style="opacity:1" fill="#868686" d="M 63.5,422.5 C 64.9305,422.421 66.2638,422.754 67.5,423.5C 68.7825,426.372 68.7825,429.205 67.5,432C 62.0081,432.486 60.1747,429.986 62,424.5C 62.7172,423.956 63.2172,423.289 63.5,422.5 Z"/></g>
<g><path style="opacity:1" fill="#3b3b3b" d="M 57.5,423.5 C 59.3442,424.204 59.8442,425.537 59,427.5C 57.8333,428.667 56.6667,429.833 55.5,431C 56.8333,431.333 58.1667,431.667 59.5,432C 52.8985,433.074 52.0651,431.574 57,427.5C 57.49,426.207 57.6567,424.873 57.5,423.5 Z"/></g>
<g><path style="opacity:1" fill="#0f0f0f" d="M 79.5,441.5 C 78.1667,441.5 76.8333,441.5 75.5,441.5C 75.5,440.167 75.5,438.833 75.5,437.5C 81.3239,437.347 81.6572,438.013 76.5,439.5C 77.6016,440.176 78.6016,440.842 79.5,441.5 Z"/></g>
<g><path style="opacity:1" fill="#0a0a0a" d="M 439.5,438.5 C 439.56,437.957 439.893,437.624 440.5,437.5C 441.484,440.428 441.817,443.428 441.5,446.5C 444.263,447.455 443.263,447.622 438.5,447C 439.684,445.82 440.351,444.32 440.5,442.5C 440.489,440.955 440.156,439.622 439.5,438.5 Z"/></g>
<g><path style="opacity:1" fill="#0a0a0a" d="M 501.5,438.5 C 501.56,437.957 501.893,437.624 502.5,437.5C 503.484,440.428 503.817,443.428 503.5,446.5C 506.263,447.455 505.263,447.622 500.5,447C 501.684,445.82 502.351,444.32 502.5,442.5C 502.489,440.955 502.156,439.622 501.5,438.5 Z"/></g>
<g><path style="opacity:1" fill="#0a0a0a" d="M 563.5,438.5 C 563.56,437.957 563.893,437.624 564.5,437.5C 565.484,440.428 565.817,443.428 565.5,446.5C 568.263,447.455 567.263,447.622 562.5,447C 563.684,445.82 564.351,444.32 564.5,442.5C 564.489,440.955 564.156,439.622 563.5,438.5 Z"/></g>
<g><path style="opacity:1" fill="#2a2a2a" d="M 255.5,437.5 C 262.737,438.272 263.403,441.106 257.5,446C 258.833,446.333 260.167,446.667 261.5,447C 259.421,447.808 257.421,447.641 255.5,446.5C 257.167,444.5 258.833,442.5 260.5,440.5C 259.38,438.404 257.88,438.07 256,439.5C 255.536,438.906 255.369,438.239 255.5,437.5 Z"/></g>
<g><path style="opacity:1" fill="#1d1d1d" d="M 196.5,438.5 C 195.94,440.801 195.44,443.134 195,445.5C 194.333,443.5 194.333,441.5 195,439.5C 195.383,438.944 195.883,438.611 196.5,438.5 Z"/></g>
<g><path style="opacity:1" fill="#3b3b3b" d="M 208.5,437.5 C 210.39,437.297 211.89,437.963 213,439.5C 213.851,442.053 213.518,444.386 212,446.5C 212.305,444.557 212.305,442.557 212,440.5C 207.64,439.377 206.473,441.044 208.5,445.5C 208.154,446.696 207.654,446.696 207,445.5C 206.109,442.502 206.609,439.836 208.5,437.5 Z"/></g>
<g><path style="opacity:1" fill="#202020" d="M 318.5,437.5 C 324.324,437.347 324.657,438.013 319.5,439.5C 323.398,440.806 324.398,443.306 322.5,447C 320.741,447.798 319.074,447.631 317.5,446.5C 318.582,446.251 319.915,446.085 321.5,446C 323.161,442.85 322.161,441.35 318.5,441.5C 318.5,440.167 318.5,438.833 318.5,437.5 Z"/></g>
<g><path style="opacity:1" fill="#3b3b3b" d="M 331.5,437.5 C 333.39,437.297 334.89,437.963 336,439.5C 336.851,442.053 336.518,444.386 335,446.5C 335.305,444.557 335.305,442.557 335,440.5C 330.64,439.377 329.473,441.044 331.5,445.5C 331.154,446.696 330.654,446.696 330,445.5C 329.109,442.502 329.609,439.836 331.5,437.5 Z"/></g>
<g><path style="opacity:1" fill="#1d1d1d" d="M 460.5,438.5 C 459.94,440.801 459.44,443.134 459,445.5C 458.333,443.5 458.333,441.5 459,439.5C 459.383,438.944 459.883,438.611 460.5,438.5 Z"/></g>
<g><path style="opacity:1" fill="#202020" d="M 521.5,437.5 C 527.324,437.347 527.657,438.013 522.5,439.5C 526.398,440.806 527.398,443.306 525.5,447C 523.741,447.798 522.074,447.631 520.5,446.5C 521.582,446.251 522.915,446.085 524.5,446C 526.161,442.85 525.161,441.35 521.5,441.5C 521.5,440.167 521.5,438.833 521.5,437.5 Z"/></g>
<g><path style="opacity:1" fill="#1d1d1d" d="M 584.5,438.5 C 583.94,440.801 583.44,443.134 583,445.5C 582.333,443.5 582.333,441.5 583,439.5C 583.383,438.944 583.883,438.611 584.5,438.5 Z"/></g>
<g><path style="opacity:1" fill="#313131" d="M 89.5,437.5 C 95.5477,438.46 96.8811,441.627 93.5,447C 91.8876,447.72 90.3876,447.554 89,446.5C 88.2642,443.408 88.4309,440.408 89.5,437.5 Z"/></g>
<g><path style="opacity:1" fill="#eeeeee" d="M 90.5,438.5 C 92.8896,438.685 93.8896,440.018 93.5,442.5C 92.1667,447.833 90.8333,447.833 89.5,442.5C 89.6233,441.075 89.9566,439.742 90.5,438.5 Z"/></g>
<g><path style="opacity:1" fill="#2b2b2b" d="M 150.5,437.5 C 152.527,437.338 154.527,437.505 156.5,438C 151.46,438.744 151.293,439.91 156,441.5C 157.5,446.667 155.667,448.5 150.5,447C 154.638,447.218 155.972,445.552 154.5,442C 153.207,441.51 151.873,441.343 150.5,441.5C 150.5,440.167 150.5,438.833 150.5,437.5 Z"/></g>
<g><path style="opacity:1" fill="#494949" d="M 196.5,438.5 C 198.153,437.201 199.653,437.534 201,439.5C 202.297,443.175 201.297,445.842 198,447.5C 197.5,447.333 197,447.167 196.5,447C 199.379,445.334 200.212,442.834 199,439.5C 198.329,438.748 197.496,438.414 196.5,438.5 Z"/></g>
<g><path style="opacity:1" fill="#222222" d="M 379.5,438.5 C 381.265,437.539 383.265,437.205 385.5,437.5C 385.181,441.136 384.015,444.469 382,447.5C 382.063,444.513 382.897,441.68 384.5,439C 382.866,438.506 381.199,438.34 379.5,438.5 Z"/></g>
<g><path style="opacity:1" fill="#525252" d="M 446.5,437.5 C 452.786,438.315 454.12,441.481 450.5,447C 448.567,447.783 447.067,447.283 446,445.5C 445.398,442.779 445.565,440.113 446.5,437.5 Z"/></g>
<g><path style="opacity:1" fill="#f4f4f4" d="M 447.5,438.5 C 449.89,438.685 450.89,440.018 450.5,442.5C 450.658,444.319 449.991,445.652 448.5,446.5C 447.52,443.914 447.187,441.247 447.5,438.5 Z"/></g>
<g><path style="opacity:1" fill="#494949" d="M 460.5,438.5 C 462.153,437.201 463.653,437.534 465,439.5C 466.297,443.175 465.297,445.842 462,447.5C 461.5,447.333 461,447.167 460.5,447C 463.379,445.334 464.212,442.834 463,439.5C 462.329,438.748 461.496,438.414 460.5,438.5 Z"/></g>
<g><path style="opacity:1" fill="#2c2c2c" d="M 569.5,437.5 C 571.527,437.338 573.527,437.505 575.5,438C 570.46,438.744 570.293,439.91 575,441.5C 576.45,446.885 574.617,448.552 569.5,446.5C 570.582,446.251 571.915,446.085 573.5,446C 575.009,442.331 573.676,440.831 569.5,441.5C 569.5,440.167 569.5,438.833 569.5,437.5 Z"/></g>
<g><path style="opacity:1" fill="#494949" d="M 584.5,438.5 C 586.153,437.201 587.653,437.534 589,439.5C 590.297,443.175 589.297,445.842 586,447.5C 585.5,447.333 585,447.167 584.5,447C 587.379,445.334 588.212,442.834 587,439.5C 586.329,438.748 585.496,438.414 584.5,438.5 Z"/></g>
<g><path style="opacity:1" fill="#3b3b3b" d="M 141.5,438.5 C 143.344,439.204 143.844,440.537 143,442.5C 141.833,443.667 140.667,444.833 139.5,446C 140.833,446.333 142.167,446.667 143.5,447C 136.898,448.074 136.065,446.574 141,442.5C 141.49,441.207 141.657,439.873 141.5,438.5 Z"/></g>
<g><path style="opacity:1" fill="#2b2b2b" d="M 507.5,437.5 C 514.737,438.272 515.403,441.106 509.5,446C 510.833,446.333 512.167,446.667 513.5,447C 511.421,447.808 509.421,447.641 507.5,446.5C 509.167,444.5 510.833,442.5 512.5,440.5C 511.38,438.404 509.88,438.07 508,439.5C 507.536,438.906 507.369,438.239 507.5,437.5 Z"/></g>
<g><path style="opacity:1" fill="#262626" d="M 79.5,441.5 C 80.6491,441.791 81.3158,442.624 81.5,444C 80.8621,447.293 78.8621,448.293 75.5,447C 79.8954,447.128 81.2287,445.294 79.5,441.5 Z"/></g>
<g><path style="opacity:1" fill="#2f2f2f" d="M 269.5,437.5 C 275.324,437.347 275.657,438.013 270.5,439.5C 275.348,440.769 276.348,443.269 273.5,447C 271.741,447.798 270.074,447.631 268.5,446.5C 269.582,446.251 270.915,446.085 272.5,446C 274.161,442.85 273.161,441.35 269.5,441.5C 269.5,440.167 269.5,438.833 269.5,437.5 Z"/></g>
<g><path style="opacity:1" fill="#2f2f2f" d="M 392.5,437.5 C 398.324,437.347 398.657,438.013 393.5,439.5C 398.348,440.769 399.348,443.269 396.5,447C 394.741,447.798 393.074,447.631 391.5,446.5C 392.582,446.251 393.915,446.085 395.5,446C 397.161,442.85 396.161,441.35 392.5,441.5C 392.5,440.167 392.5,438.833 392.5,437.5 Z"/></g>
<g><path style="opacity:1" fill="#2c2c2c" d="M 310.5,456.5 C 317.628,456.706 319.294,459.873 315.5,466C 309.498,466.993 307.332,464.493 309,458.5C 309.717,457.956 310.217,457.289 310.5,456.5 Z"/></g>
<g><path style="opacity:1" fill="#ededed" d="M 311.5,457.5 C 312.822,457.33 313.989,457.663 315,458.5C 315.667,460.5 315.667,462.5 315,464.5C 311.958,465.986 310.125,464.986 309.5,461.5C 309.752,459.927 310.418,458.594 311.5,457.5 Z"/></g>
<g><path style="opacity:1" fill="#1a1a1a" d="M 320.5,458.5 C 324.893,458.457 325.226,458.957 321.5,460C 319.682,463.387 320.682,465.387 324.5,466C 322.888,466.72 321.388,466.554 320,465.5C 319.297,463.071 319.463,460.738 320.5,458.5 Z"/></g>
<g><path style="opacity:1" fill="#343434" d="M 339.5,459.5 C 339.56,458.957 339.893,458.624 340.5,458.5C 341.937,461.044 343.437,461.044 345,458.5C 345.333,460.047 344.833,461.38 343.5,462.5C 346.328,466.198 345.995,466.865 342.5,464.5C 339.005,466.865 338.672,466.198 341.5,462.5C 341.058,461.261 340.391,460.261 339.5,459.5 Z"/></g>
<g><path style="opacity:1" fill="#303030" d="M 327.5,458.5 C 328.404,459.209 328.737,460.209 328.5,461.5C 332.676,460.831 334.009,462.331 332.5,466C 330.866,466.494 329.199,466.66 327.5,466.5C 327.5,463.833 327.5,461.167 327.5,458.5 Z"/></g>
<g><path style="opacity:1" fill="#e6e6e6" d="M 328.5,462.5 C 329.5,462.5 330.5,462.5 331.5,462.5C 331.5,463.5 331.5,464.5 331.5,465.5C 330.5,465.5 329.5,465.5 328.5,465.5C 328.5,464.5 328.5,463.5 328.5,462.5 Z"/></g>
</svg>
