<?xml version="1.0" encoding="UTF-8"?>
<!DOCTYPE svg PUBLIC "-//W3C//DTD SVG 1.1//EN" "http://www.w3.org/Graphics/SVG/1.1/DTD/svg11.dtd">
<svg xmlns="http://www.w3.org/2000/svg" version="1.1" width="640px" height="480px" style="shape-rendering:geometricPrecision; text-rendering:geometricPrecision; image-rendering:optimizeQuality; fill-rule:evenodd; clip-rule:evenodd" xmlns:xlink="http://www.w3.org/1999/xlink">
<g><path style="opacity:1" fill="#fefefe" d="M -0.5,-0.5 C 212.833,-0.5 426.167,-0.5 639.5,-0.5C 639.5,159.5 639.5,319.5 639.5,479.5C 426.167,479.5 212.833,479.5 -0.5,479.5C -0.5,319.5 -0.5,159.5 -0.5,-0.5 Z"/></g>
<g><path style="opacity:1" fill="#000000" d="M 283.5,35.5 C 285.857,35.3367 288.19,35.5034 290.5,36C 288.527,36.4955 286.527,36.6621 284.5,36.5C 284.666,40.5138 284.499,44.5138 284,48.5C 283.501,44.1794 283.334,39.8461 283.5,35.5 Z"/></g>
<g><path style="opacity:1" fill="#3d3d3d" d="M 352.5,43.5 C 352.262,45.6449 351.262,47.3115 349.5,48.5C 348.167,45.1667 348.167,41.8333 349.5,38.5C 350.308,40.4233 350.808,42.4233 351,44.5C 351.383,43.944 351.883,43.6107 352.5,43.5 Z"/></g>
<g><path style="opacity:1" fill="#202020" d="M 307.5,47.5 C 305.316,48.9829 303.983,48.3163 303.5,45.5C 303.608,44.5581 303.941,43.7247 304.5,43C 310.817,41.9079 310.483,40.9079 303.5,40C 307.978,37.4077 310.311,38.7411 310.5,44C 310.333,45.5 310.167,47 310,48.5C 309.329,47.7476 308.496,47.4142 307.5,47.5 Z"/></g>
<g><path style="opacity:1" fill="#2a2a2a" d="M 318.5,35.5 C 320.048,35.8212 320.715,36.8212 320.5,38.5C 325.151,39.1742 326.651,41.8408 325,46.5C 323.89,48.0368 322.39,48.7035 320.5,48.5C 320.762,49.9778 320.429,51.3112 319.5,52.5C 318.702,50.9223 318.202,49.2556 318,47.5C 316.667,48.8333 315.333,48.8333 314,47.5C 313.333,45.1667 313.333,42.8333 314,40.5C 314.953,38.4078 316.286,38.0745 318,39.5C 318.49,38.2068 318.657,36.8734 318.5,35.5 Z"/></g>
<g><path style="opacity:1" fill="#f6f6f6" d="M 320.5,40.5 C 321.5,40.5 322.5,40.5 323.5,40.5C 322.5,49.8333 321.5,49.8333 320.5,40.5 Z"/></g>
<g><path style="opacity:1" fill="#f0f0f0" d="M 315.5,40.5 C 316.5,40.5 317.5,40.5 318.5,40.5C 318.5,42.5 318.5,44.5 318.5,46.5C 314.556,46.1156 313.556,44.1156 315.5,40.5 Z"/></g>
<g><path style="opacity:1" fill="#3d3d3d" d="M 352.5,43.5 C 352.738,41.3551 353.738,39.6885 355.5,38.5C 356.833,41.8333 356.833,45.1667 355.5,48.5C 354.692,46.5767 354.192,44.5767 354,42.5C 353.617,43.056 353.117,43.3893 352.5,43.5 Z"/></g>
<g><path style="opacity:1" fill="#252525" d="M 293.5,38.5 C 295.314,38.7721 297.314,38.9387 299.5,39C 302.167,42 302.167,45 299.5,48C 297.888,48.7203 296.388,48.5536 295,47.5C 294.667,49.1667 294.333,50.8333 294,52.5C 293.501,47.8452 293.334,43.1785 293.5,38.5 Z"/></g>
<g><path style="opacity:1" fill="#ececec" d="M 295.5,40.5 C 296.833,40.5 298.167,40.5 299.5,40.5C 299.5,42.5 299.5,44.5 299.5,46.5C 294.74,46.7993 293.406,44.7993 295.5,40.5 Z"/></g>
<g><path style="opacity:1" fill="#282828" d="M 327.5,38.5 C 329.197,40.3052 330.03,42.6385 330,45.5C 331.015,42.7899 332.515,40.4566 334.5,38.5C 335.657,41.7844 335.824,45.1177 335,48.5C 335.186,39.5467 333.686,39.2133 330.5,47.5C 329.675,48.3857 328.675,48.719 327.5,48.5C 327.5,45.1667 327.5,41.8333 327.5,38.5 Z"/></g>
<g><path style="opacity:1" fill="#cfcfcf" d="M 307.5,47.5 C 304.827,47.3155 304.16,46.1489 305.5,44C 309.817,43.3035 310.484,44.4702 307.5,47.5 Z"/></g>
<g><path style="opacity:1" fill="#353535" d="M 338.5,38.5 C 340.045,39.2297 340.878,40.563 341,42.5C 344.941,37.0624 345.774,37.2291 343.5,43C 344.484,44.6565 345.484,46.3232 346.5,48C 345.833,48.6667 345.167,48.6667 344.5,48C 343.54,46.5806 342.707,45.0806 342,43.5C 341.02,45.0589 340.187,46.7256 339.5,48.5C 338.513,45.2317 338.18,41.8984 338.5,38.5 Z"/></g>
<g><path style="opacity:1" fill="#323232" d="M 364.5,35.5 C 366.792,35.2436 368.959,35.5769 371,36.5C 371.392,39.1879 371.892,41.8546 372.5,44.5C 371.086,48.4208 368.42,49.4208 364.5,47.5C 366.396,46.5344 368.396,46.2011 370.5,46.5C 371.21,43.1405 369.876,41.3071 366.5,41C 368.286,40.8038 369.619,39.9705 370.5,38.5C 368.025,38.0358 366.025,37.0358 364.5,35.5 Z"/></g>
<g><path style="opacity:1" fill="#0a0a0a" d="M 46.5,53.5 C 46.56,52.9569 46.8933,52.6236 47.5,52.5C 48.4841,55.4281 48.8174,58.4281 48.5,61.5C 51.2627,62.4551 50.2627,62.6218 45.5,62C 46.6841,60.8197 47.3507,59.3197 47.5,57.5C 47.4892,55.9549 47.1558,54.6216 46.5,53.5 Z"/></g>
<g><path style="opacity:1" fill="#525252" d="M 53.5,52.5 C 59.7863,53.3146 61.1196,56.4812 57.5,62C 55.5665,62.7826 54.0665,62.2826 53,60.5C 52.3985,57.7795 52.5651,55.1128 53.5,52.5 Z"/></g>
<g><path style="opacity:1" fill="#f4f4f4" d="M 54.5,53.5 C 56.8896,53.6848 57.8896,55.0182 57.5,57.5C 57.6578,59.3186 56.9911,60.6519 55.5,61.5C 54.52,58.9135 54.1866,56.2469 54.5,53.5 Z"/></g>
<g><path style="opacity:1" fill="#242424" d="M 62.5,52.5 C 64.1439,52.2865 65.6439,52.6198 67,53.5C 67.7772,56.4294 67.6105,59.2628 66.5,62C 64.8876,62.7203 63.3876,62.5536 62,61.5C 61.2642,58.408 61.4309,55.408 62.5,52.5 Z"/></g>
<g><path style="opacity:1" fill="#eeeeee" d="M 63.5,53.5 C 65.8896,53.6848 66.8896,55.0182 66.5,57.5C 65.1667,62.8333 63.8333,62.8333 62.5,57.5C 62.6233,56.0755 62.9566,54.7421 63.5,53.5 Z"/></g>
<g><path style="opacity:1" fill="#000000" d="M 75.5,58.5 C 242.333,57.5003 409.333,57.167 576.5,57.5C 576.833,183.522 576.5,306.855 575.5,427.5C 555.167,427.5 534.833,427.5 514.5,427.5C 514.167,432.833 513.833,432.833 513.5,427.5C 493.167,427.5 472.833,427.5 452.5,427.5C 452.167,432.833 451.833,432.833 451.5,427.5C 431.167,427.5 410.833,427.5 390.5,427.5C 390.167,432.833 389.833,432.833 389.5,427.5C 369.167,427.5 348.833,427.5 328.5,427.5C 328.167,432.833 327.833,432.833 327.5,427.5C 307.167,427.5 286.833,427.5 266.5,427.5C 266.167,432.833 265.833,432.833 265.5,427.5C 245.167,427.5 224.833,427.5 204.5,427.5C 204.167,432.833 203.833,432.833 203.5,427.5C 183.167,427.5 162.833,427.5 142.5,427.5C 142.167,432.833 141.833,432.833 141.5,427.5C 121.167,427.5 100.833,427.5 80.5,427.5C 80.1667,432.833 79.8333,432.833 79.5,427.5C 74.1667,427.167 74.1667,426.833 79.5,426.5C 79.5,406.5 79.5,386.5 79.5,366.5C 74.1667,366.167 74.1667,365.833 79.5,365.5C 79.5,345.167 79.5,324.833 79.5,304.5C 74.1667,304.167 74.1667,303.833 79.5,303.5C 79.5,283.167 79.5,262.833 79.5,242.5C 74.1667,242.167 74.1667,241.833 79.5,241.5C 79.5,221.5 79.5,201.5 79.5,181.5C 74.1667,181.167 74.1667,180.833 79.5,180.5C 79.5,160.167 79.5,139.833 79.5,119.5C 74.1667,119.167 74.1667,118.833 79.5,118.5C 79.5,98.5 79.5,78.5 79.5,58.5C 78.1667,58.5 76.8333,58.5 75.5,58.5 Z"/></g>
<g><path style="opacity:1" fill="#fefefe" d="M 141.5,58.5 C 141.5,78.5 141.5,98.5 141.5,118.5C 121.167,118.5 100.833,118.5 80.5,118.5C 80.5,98.5 80.5,78.5 80.5,58.5C 100.833,58.5 121.167,58.5 141.5,58.5 Z"/></g>
<g><path style="opacity:1" fill="#b2b2b2" d="M 141.5,58.5 C 141.833,58.5 142.167,58.5 142.5,58.5C 142.5,78.5 142.5,98.5 142.5,118.5C 162.833,118.5 183.167,118.5 203.5,118.5C 203.5,98.5 203.5,78.5 203.5,58.5C 203.833,58.5 204.167,58.5 204.5,58.5C 204.5,78.5 204.5,98.5 204.5,118.5C 224.833,118.5 245.167,118.5 265.5,118.5C 265.5,98.5 265.5,78.5 265.5,58.5C 265.833,58.5 266.167,58.5 266.5,58.5C 266.5,78.5 266.5,98.5 266.5,118.5C 286.833,118.5 307.167,118.5 327.5,118.5C 327.5,98.5 327.5,78.5 327.5,58.5C 327.833,58.5 328.167,58.5 328.5,58.5C 328.5,78.5 328.5,98.5 328.5,118.5C 348.833,118.5 369.167,118.5 389.5,118.5C 389.5,98.5 389.5,78.5 389.5,58.5C 389.833,58.5 390.167,58.5 390.5,58.5C 390.5,78.5 390.5,98.5 390.5,118.5C 409.5,118.5 428.5,118.5 447.5,118.5C 447.5,119.167 447.167,119.5 446.5,119.5C 427.833,119.5 409.167,119.5 390.5,119.5C 390.5,139.833 390.5,160.167 390.5,180.5C 409.167,180.5 427.833,180.5 446.5,180.5C 446.5,180.833 446.5,181.167 446.5,181.5C 427.833,181.5 409.167,181.5 390.5,181.5C 390.5,201.5 390.5,221.5 390.5,241.5C 408.833,241.5 427.167,241.5 445.5,241.5C 445.5,241.833 445.5,242.167 445.5,242.5C 427.167,242.5 408.833,242.5 390.5,242.5C 390.5,262.833 390.5,283.167 390.5,303.5C 408.5,303.5 426.5,303.5 444.5,303.5C 444.81,306.713 444.477,309.713 443.5,312.5C 443.5,309.833 443.5,307.167 443.5,304.5C 425.833,304.5 408.167,304.5 390.5,304.5C 390.5,323.167 390.5,341.833 390.5,360.5C 390.167,360.5 389.833,360.5 389.5,360.5C 389.5,341.833 389.5,323.167 389.5,304.5C 369.167,304.5 348.833,304.5 328.5,304.5C 328.5,323.167 328.5,341.833 328.5,360.5C 328.167,360.5 327.833,360.5 327.5,360.5C 327.5,341.833 327.5,323.167 327.5,304.5C 307.167,304.5 286.833,304.5 266.5,304.5C 266.5,323.167 266.5,341.833 266.5,360.5C 266.167,360.5 265.833,360.5 265.5,360.5C 265.5,341.833 265.5,323.167 265.5,304.5C 245.167,304.5 224.833,304.5 204.5,304.5C 204.5,323.167 204.5,341.833 204.5,360.5C 204.167,360.5 203.833,360.5 203.5,360.5C 203.5,341.833 203.5,323.167 203.5,304.5C 183.167,304.5 162.833,304.5 142.5,304.5C 142.5,324.833 142.5,345.167 142.5,365.5C 163.007,365.83 183.34,365.497 203.5,364.5C 229.167,364.5 254.833,364.5 280.5,364.5C 320.348,364.069 360.015,364.736 399.5,366.5C 396.5,366.5 393.5,366.5 390.5,366.5C 390.5,386.5 390.5,406.5 390.5,426.5C 390.167,426.5 389.833,426.5 389.5,426.5C 389.5,406.5 389.5,386.5 389.5,366.5C 369.167,366.5 348.833,366.5 328.5,366.5C 328.5,386.5 328.5,406.5 328.5,426.5C 328.167,426.5 327.833,426.5 327.5,426.5C 327.5,406.5 327.5,386.5 327.5,366.5C 307.167,366.5 286.833,366.5 266.5,366.5C 266.5,386.5 266.5,406.5 266.5,426.5C 266.167,426.5 265.833,426.5 265.5,426.5C 265.5,406.5 265.5,386.5 265.5,366.5C 245.167,366.5 224.833,366.5 204.5,366.5C 204.5,386.5 204.5,406.5 204.5,426.5C 204.167,426.5 203.833,426.5 203.5,426.5C 203.5,406.5 203.5,386.5 203.5,366.5C 183.167,366.5 162.833,366.5 142.5,366.5C 142.5,386.5 142.5,406.5 142.5,426.5C 142.167,426.5 141.833,426.5 141.5,426.5C 141.5,406.5 141.5,386.5 141.5,366.5C 121.167,366.5 100.833,366.5 80.5,366.5C 80.5,366.167 80.5,365.833 80.5,365.5C 100.833,365.5 121.167,365.5 141.5,365.5C 141.5,345.167 141.5,324.833 141.5,304.5C 121.167,304.5 100.833,304.5 80.5,304.5C 80.5,304.167 80.5,303.833 80.5,303.5C 100.833,303.5 121.167,303.5 141.5,303.5C 141.5,283.167 141.5,262.833 141.5,242.5C 121.167,242.5 100.833,242.5 80.5,242.5C 80.5,242.167 80.5,241.833 80.5,241.5C 100.833,241.5 121.167,241.5 141.5,241.5C 141.5,221.5 141.5,201.5 141.5,181.5C 121.167,181.5 100.833,181.5 80.5,181.5C 80.5,181.167 80.5,180.833 80.5,180.5C 100.833,180.5 121.167,180.5 141.5,180.5C 141.5,160.167 141.5,139.833 141.5,119.5C 121.167,119.5 100.833,119.5 80.5,119.5C 80.5,119.167 80.5,118.833 80.5,118.5C 100.833,118.5 121.167,118.5 141.5,118.5C 141.5,98.5 141.5,78.5 141.5,58.5 Z"/></g>
<g><path style="opacity:1" fill="#fefefe" d="M 142.5,58.5 C 162.833,58.5 183.167,58.5 203.5,58.5C 203.5,78.5 203.5,98.5 203.5,118.5C 183.167,118.5 162.833,118.5 142.5,118.5C 142.5,98.5 142.5,78.5 142.5,58.5 Z"/></g>
<g><path style="opacity:1" fill="#fefefe" d="M 204.5,58.5 C 224.833,58.5 245.167,58.5 265.5,58.5C 265.5,78.5 265.5,98.5 265.5,118.5C 245.167,118.5 224.833,118.5 204.5,118.5C 204.5,98.5 204.5,78.5 204.5,58.5 Z"/></g>
<g><path style="opacity:1" fill="#fefefe" d="M 266.5,58.5 C 286.833,58.5 307.167,58.5 327.5,58.5C 327.5,78.5 327.5,98.5 327.5,118.5C 307.167,118.5 286.833,118.5 266.5,118.5C 266.5,98.5 266.5,78.5 266.5,58.5 Z"/></g>
<g><path style="opacity:1" fill="#fefefe" d="M 328.5,58.5 C 348.833,58.5 369.167,58.5 389.5,58.5C 389.5,78.5 389.5,98.5 389.5,118.5C 369.167,118.5 348.833,118.5 328.5,118.5C 328.5,98.5 328.5,78.5 328.5,58.5 Z"/></g>
<g><path style="opacity:1" fill="#fdfefd" d="M 390.5,58.5 C 410.833,58.5 431.167,58.5 451.5,58.5C 452.155,78.8613 451.488,98.8613 449.5,118.5C 448.833,39.8333 448.167,39.8333 447.5,118.5C 428.5,118.5 409.5,118.5 390.5,118.5C 390.5,98.5 390.5,78.5 390.5,58.5 Z"/></g>
<g><path style="opacity:1" fill="#379330" d="M 449.5,118.5 C 449.5,118.833 449.5,119.167 449.5,119.5C 449.5,139.833 449.5,160.167 449.5,180.5C 448.833,180.5 448.5,180.833 448.5,181.5C 448.5,201.5 448.5,221.5 448.5,241.5C 448.5,241.833 448.5,242.167 448.5,242.5C 447.719,262.673 447.052,283.007 446.5,303.5C 446.5,303.833 446.5,304.167 446.5,304.5C 446.464,318.006 444.964,331.34 442,344.5C 440.67,351.331 436.837,356.164 430.5,359C 421.766,360.744 413.1,361.911 404.5,362.5C 395.167,362.5 385.833,362.5 376.5,362.5C 318.5,362.5 260.5,362.5 202.5,362.5C 202.328,361.508 202.662,360.842 203.5,360.5C 203.833,360.5 204.167,360.5 204.5,360.5C 224.833,360.5 245.167,360.5 265.5,360.5C 265.833,360.5 266.167,360.5 266.5,360.5C 286.833,360.5 307.167,360.5 327.5,360.5C 327.833,360.5 328.167,360.5 328.5,360.5C 348.833,360.5 369.167,360.5 389.5,360.5C 389.833,360.5 390.167,360.5 390.5,360.5C 402.552,360.44 414.552,359.607 426.5,358C 435.254,355.026 440.088,348.86 441,339.5C 442.576,330.564 443.409,321.564 443.5,312.5C 444.477,309.713 444.81,306.713 444.5,303.5C 445.399,283.183 445.732,262.849 445.5,242.5C 445.5,242.167 445.5,241.833 445.5,241.5C 445.553,221.494 445.886,201.494 446.5,181.5C 446.5,181.167 446.5,180.833 446.5,180.5C 446.5,160.167 446.5,139.833 446.5,119.5C 447.167,119.5 447.5,119.167 447.5,118.5C 448.167,39.8333 448.833,39.8333 449.5,118.5 Z"/></g>
<g><path style="opacity:1" fill="#b0afaf" d="M 451.5,58.5 C 451.833,58.5 452.167,58.5 452.5,58.5C 452.5,78.5 452.5,98.5 452.5,118.5C 471.5,118.5 490.5,118.5 509.5,118.5C 509.5,118.833 509.5,119.167 509.5,119.5C 490.5,119.5 471.5,119.5 452.5,119.5C 452.5,139.833 452.5,160.167 452.5,180.5C 472.833,180.5 493.167,180.5 513.5,180.5C 513.5,164.5 513.5,148.5 513.5,132.5C 513.833,132.5 514.167,132.5 514.5,132.5C 514.5,148.5 514.5,164.5 514.5,180.5C 534.833,180.5 555.167,180.5 575.5,180.5C 575.5,180.833 575.5,181.167 575.5,181.5C 555.167,181.5 534.833,181.5 514.5,181.5C 514.5,201.5 514.5,221.5 514.5,241.5C 534.833,241.5 555.167,241.5 575.5,241.5C 575.5,241.833 575.5,242.167 575.5,242.5C 555.167,242.5 534.833,242.5 514.5,242.5C 514.5,262.833 514.5,283.167 514.5,303.5C 534.833,303.5 555.167,303.5 575.5,303.5C 575.5,303.833 575.5,304.167 575.5,304.5C 555.167,304.5 534.833,304.5 514.5,304.5C 514.5,324.833 514.5,345.167 514.5,365.5C 534.833,365.5 555.167,365.5 575.5,365.5C 575.5,365.833 575.5,366.167 575.5,366.5C 555.167,366.5 534.833,366.5 514.5,366.5C 514.5,386.5 514.5,406.5 514.5,426.5C 514.167,426.5 513.833,426.5 513.5,426.5C 513.5,406.5 513.5,386.5 513.5,366.5C 493.167,366.5 472.833,366.5 452.5,366.5C 452.5,386.5 452.5,406.5 452.5,426.5C 452.167,426.5 451.833,426.5 451.5,426.5C 451.5,406.5 451.5,386.5 451.5,366.5C 447.298,366.183 443.298,366.517 439.5,367.5C 438.29,367.068 437.29,366.401 436.5,365.5C 441.5,365.5 446.5,365.5 451.5,365.5C 451.5,345.167 451.5,324.833 451.5,304.5C 449.833,304.5 448.167,304.5 446.5,304.5C 446.5,304.167 446.5,303.833 446.5,303.5C 448.167,303.5 449.833,303.5 451.5,303.5C 451.5,283.167 451.5,262.833 451.5,242.5C 450.5,242.5 449.5,242.5 448.5,242.5C 448.5,242.167 448.5,241.833 448.5,241.5C 449.5,241.5 450.5,241.5 451.5,241.5C 451.5,221.5 451.5,201.5 451.5,181.5C 450.5,181.5 449.5,181.5 448.5,181.5C 448.5,180.833 448.833,180.5 449.5,180.5C 450.832,170.689 451.499,160.523 451.5,150C 451.499,139.477 450.832,129.311 449.5,119.5C 449.5,119.167 449.5,118.833 449.5,118.5C 451.488,98.8613 452.155,78.8613 451.5,58.5 Z"/></g>
<g><path style="opacity:1" fill="#fefefe" d="M 452.5,58.5 C 472.833,58.5 493.167,58.5 513.5,58.5C 513.5,60.5 513.5,62.5 513.5,64.5C 512.178,64.33 511.011,64.6634 510,65.5C 509.5,83.1635 509.333,100.83 509.5,118.5C 490.5,118.5 471.5,118.5 452.5,118.5C 452.5,98.5 452.5,78.5 452.5,58.5 Z"/></g>
<g><path style="opacity:1" fill="#fafafa" d="M 514.5,58.5 C 534.833,58.5 555.167,58.5 575.5,58.5C 575.5,78.5 575.5,98.5 575.5,118.5C 573.5,118.5 571.5,118.5 569.5,118.5C 569.826,100.59 569.492,82.7566 568.5,65C 550.503,64.5001 532.503,64.3334 514.5,64.5C 514.5,62.5 514.5,60.5 514.5,58.5 Z"/></g>
<g><path style="opacity:1" fill="#777777" d="M 54.5,114.5 C 56.4672,114.261 58.3005,114.594 60,115.5C 60.2022,118.259 60.0355,121.092 59.5,124C 57.5594,124.743 55.7261,124.576 54,123.5C 54.1387,120.473 54.3053,117.473 54.5,114.5 Z"/></g>
<g><path style="opacity:1" fill="#525252" d="M 63.5,114.5 C 69.7863,115.315 71.1196,118.481 67.5,124C 65.5665,124.783 64.0665,124.283 63,122.5C 62.3985,119.779 62.5651,117.113 63.5,114.5 Z"/></g>
<g><path style="opacity:1" fill="#f4f4f4" d="M 64.5,115.5 C 66.8896,115.685 67.8896,117.018 67.5,119.5C 67.6578,121.319 66.9911,122.652 65.5,123.5C 64.52,120.914 64.1866,118.247 64.5,115.5 Z"/></g>
<g><path style="opacity:1" fill="#fefefe" d="M 80.5,119.5 C 100.833,119.5 121.167,119.5 141.5,119.5C 141.5,139.833 141.5,160.167 141.5,180.5C 121.167,180.5 100.833,180.5 80.5,180.5C 80.5,160.167 80.5,139.833 80.5,119.5 Z"/></g>
<g><path style="opacity:1" fill="#fefefe" d="M 142.5,119.5 C 162.833,119.5 183.167,119.5 203.5,119.5C 203.5,139.833 203.5,160.167 203.5,180.5C 183.167,180.5 162.833,180.5 142.5,180.5C 142.5,160.167 142.5,139.833 142.5,119.5 Z"/></g>
<g><path style="opacity:1" fill="#fefefe" d="M 204.5,119.5 C 224.833,119.5 245.167,119.5 265.5,119.5C 265.5,139.833 265.5,160.167 265.5,180.5C 245.167,180.5 224.833,180.5 204.5,180.5C 204.5,160.167 204.5,139.833 204.5,119.5 Z"/></g>
<g><path style="opacity:1" fill="#fefefe" d="M 266.5,119.5 C 286.833,119.5 307.167,119.5 327.5,119.5C 327.5,139.833 327.5,160.167 327.5,180.5C 307.167,180.5 286.833,180.5 266.5,180.5C 266.5,160.167 266.5,139.833 266.5,119.5 Z"/></g>
<g><path style="opacity:1" fill="#fefefe" d="M 328.5,119.5 C 348.833,119.5 369.167,119.5 389.5,119.5C 389.5,139.833 389.5,160.167 389.5,180.5C 369.167,180.5 348.833,180.5 328.5,180.5C 328.5,160.167 328.5,139.833 328.5,119.5 Z"/></g>
<g><path style="opacity:1" fill="#fefefe" d="M 446.5,119.5 C 446.5,139.833 446.5,160.167 446.5,180.5C 427.833,180.5 409.167,180.5 390.5,180.5C 390.5,160.167 390.5,139.833 390.5,119.5C 409.167,119.5 427.833,119.5 446.5,119.5 Z"/></g>
<g><path style="opacity:1" fill="#fcfcfc" d="M 449.5,119.5 C 450.832,129.311 451.499,139.477 451.5,150C 451.499,160.523 450.832,170.689 449.5,180.5C 449.5,160.167 449.5,139.833 449.5,119.5 Z"/></g>
<g><path style="opacity:1" fill="#fefefe" d="M 509.5,119.5 C 509.334,123.514 509.501,127.514 510,131.5C 511.011,132.337 512.178,132.67 513.5,132.5C 513.5,148.5 513.5,164.5 513.5,180.5C 493.167,180.5 472.833,180.5 452.5,180.5C 452.5,160.167 452.5,139.833 452.5,119.5C 471.5,119.5 490.5,119.5 509.5,119.5 Z"/></g>
<g><path style="opacity:1" fill="#fefefe" d="M 575.5,119.5 C 575.5,139.833 575.5,160.167 575.5,180.5C 555.167,180.5 534.833,180.5 514.5,180.5C 514.5,164.5 514.5,148.5 514.5,132.5C 532.503,132.667 550.503,132.5 568.5,132C 569.464,127.934 569.797,123.767 569.5,119.5C 571.5,119.5 573.5,119.5 575.5,119.5 Z"/></g>
<g><path style="opacity:1" fill="#d5d5d5" d="M 513.5,58.5 C 513.833,58.5 514.167,58.5 514.5,58.5C 514.5,60.5 514.5,62.5 514.5,64.5C 532.503,64.3334 550.503,64.5001 568.5,65C 569.492,82.7566 569.826,100.59 569.5,118.5C 571.5,118.5 573.5,118.5 575.5,118.5C 575.5,118.833 575.5,119.167 575.5,119.5C 573.5,119.5 571.5,119.5 569.5,119.5C 569.797,123.767 569.464,127.934 568.5,132C 550.503,132.5 532.503,132.667 514.5,132.5C 514.167,132.5 513.833,132.5 513.5,132.5C 512.178,132.67 511.011,132.337 510,131.5C 509.501,127.514 509.334,123.514 509.5,119.5C 509.5,119.167 509.5,118.833 509.5,118.5C 509.333,100.83 509.5,83.1635 510,65.5C 511.011,64.6634 512.178,64.33 513.5,64.5C 513.5,62.5 513.5,60.5 513.5,58.5 Z"/></g>
<g><path style="opacity:1" fill="#fbfbfb" d="M 511.5,65.5 C 530.41,65.174 549.243,65.5073 568,66.5C 568.826,88.0729 568.66,109.573 567.5,131C 548.593,131.825 529.76,131.659 511,130.5C 510.179,108.761 510.345,87.0938 511.5,65.5 Z"/></g>
<g><path style="opacity:1" fill="#464646" d="M 557.5,116.5 C 562.041,116.815 563.041,118.649 560.5,122C 558.741,122.798 557.074,122.631 555.5,121.5C 556.582,121.251 557.915,121.085 559.5,121C 559.957,120.586 560.291,120.086 560.5,119.5C 559.007,118.859 558.007,117.859 557.5,116.5 Z"/></g>
<g><path style="opacity:1" fill="#008000" d="M 514.5,116.5 C 524.522,116.168 534.522,116.501 544.5,117.5C 539.5,117.833 534.5,118.167 529.5,118.5C 524.119,118.494 519.119,117.828 514.5,116.5 Z"/></g>
<g><path style="opacity:1" fill="#0000ff" d="M 514.5,95.5 C 524.522,95.1681 534.522,95.5015 544.5,96.5C 539.5,96.8333 534.5,97.1667 529.5,97.5C 524.119,97.4942 519.119,96.8275 514.5,95.5 Z"/></g>
<g><path style="opacity:1" fill="#2a2a2a" d="M 555.5,91.5 C 562.737,92.2724 563.403,95.1057 557.5,100C 558.833,100.333 560.167,100.667 561.5,101C 559.421,101.808 557.421,101.641 555.5,100.5C 557.167,98.5 558.833,96.5 560.5,94.5C 559.38,92.4038 557.88,92.0705 556,93.5C 555.536,92.9056 555.369,92.2389 555.5,91.5 Z"/></g>
<g><path style="opacity:1" fill="#fe0000" d="M 514.5,74.5 C 524.522,74.1681 534.522,74.5015 544.5,75.5C 539.5,75.8333 534.5,76.1667 529.5,76.5C 524.119,76.4942 519.119,75.8275 514.5,74.5 Z"/></g>
<g><path style="opacity:1" fill="#0a0a0a" d="M 557.5,71.5 C 557.56,70.9569 557.893,70.6236 558.5,70.5C 559.484,73.4281 559.817,76.4281 559.5,79.5C 562.263,80.4551 561.263,80.6218 556.5,80C 557.684,78.8197 558.351,77.3197 558.5,75.5C 558.489,73.9549 558.156,72.6216 557.5,71.5 Z"/></g>
<g><path style="opacity:1" fill="#525252" d="M 63.5,175.5 C 69.7863,176.315 71.1196,179.481 67.5,185C 65.5665,185.783 64.0665,185.283 63,183.5C 62.3985,180.779 62.5651,178.113 63.5,175.5 Z"/></g>
<g><path style="opacity:1" fill="#f4f4f4" d="M 64.5,176.5 C 66.8896,176.685 67.8896,178.018 67.5,180.5C 67.6578,182.319 66.9911,183.652 65.5,184.5C 64.52,181.914 64.1866,179.247 64.5,176.5 Z"/></g>
<g><path style="opacity:1" fill="#fefefe" d="M 80.5,181.5 C 100.833,181.5 121.167,181.5 141.5,181.5C 141.5,201.5 141.5,221.5 141.5,241.5C 121.167,241.5 100.833,241.5 80.5,241.5C 80.5,221.5 80.5,201.5 80.5,181.5 Z"/></g>
<g><path style="opacity:1" fill="#fefefe" d="M 142.5,181.5 C 162.833,181.5 183.167,181.5 203.5,181.5C 203.5,201.5 203.5,221.5 203.5,241.5C 183.167,241.5 162.833,241.5 142.5,241.5C 142.5,221.5 142.5,201.5 142.5,181.5 Z"/></g>
<g><path style="opacity:1" fill="#fefefe" d="M 204.5,181.5 C 224.833,181.5 245.167,181.5 265.5,181.5C 265.5,201.5 265.5,221.5 265.5,241.5C 245.167,241.5 224.833,241.5 204.5,241.5C 204.5,221.5 204.5,201.5 204.5,181.5 Z"/></g>
<g><path style="opacity:1" fill="#fefefe" d="M 266.5,181.5 C 286.833,181.5 307.167,181.5 327.5,181.5C 327.5,201.5 327.5,221.5 327.5,241.5C 307.167,241.5 286.833,241.5 266.5,241.5C 266.5,221.5 266.5,201.5 266.5,181.5 Z"/></g>
<g><path style="opacity:1" fill="#fefefe" d="M 328.5,181.5 C 348.833,181.5 369.167,181.5 389.5,181.5C 389.5,201.5 389.5,221.5 389.5,241.5C 369.167,241.5 348.833,241.5 328.5,241.5C 328.5,221.5 328.5,201.5 328.5,181.5 Z"/></g>
<g><path style="opacity:1" fill="#fefefe" d="M 446.5,181.5 C 445.886,201.494 445.553,221.494 445.5,241.5C 427.167,241.5 408.833,241.5 390.5,241.5C 390.5,221.5 390.5,201.5 390.5,181.5C 409.167,181.5 427.833,181.5 446.5,181.5 Z"/></g>
<g><path style="opacity:1" fill="#fbfcfb" d="M 448.5,181.5 C 449.5,181.5 450.5,181.5 451.5,181.5C 451.5,201.5 451.5,221.5 451.5,241.5C 450.5,241.5 449.5,241.5 448.5,241.5C 448.5,221.5 448.5,201.5 448.5,181.5 Z"/></g>
<g><path style="opacity:1" fill="#fefefe" d="M 452.5,181.5 C 472.833,181.5 493.167,181.5 513.5,181.5C 513.5,201.5 513.5,221.5 513.5,241.5C 493.167,241.5 472.833,241.5 452.5,241.5C 452.5,221.5 452.5,201.5 452.5,181.5 Z"/></g>
<g><path style="opacity:1" fill="#fefefe" d="M 575.5,181.5 C 575.5,201.5 575.5,221.5 575.5,241.5C 555.167,241.5 534.833,241.5 514.5,241.5C 514.5,221.5 514.5,201.5 514.5,181.5C 534.833,181.5 555.167,181.5 575.5,181.5 Z"/></g>
<g><path style="opacity:1" fill="#676767" d="M 55.5,175.5 C 56.8734,175.343 58.2068,175.51 59.5,176C 57.9559,176.29 56.6226,176.956 55.5,178C 59.9177,178.723 61.2511,181.057 59.5,185C 54.0081,185.486 52.1747,182.986 54,177.5C 54.7172,176.956 55.2172,176.289 55.5,175.5 Z"/></g>
<g><path style="opacity:1" fill="#383838" d="M 23.5,223.5 C 26.7248,225.021 30.0581,226.355 33.5,227.5C 34.5827,228.365 34.7494,229.365 34,230.5C 33.3261,229.422 32.3261,228.755 31,228.5C 28.5324,229.503 26.0324,230.003 23.5,230C 29.0551,228.431 29.3885,226.931 24.5,225.5C 23.7025,225.043 23.3691,224.376 23.5,223.5 Z"/></g>
<g><path style="opacity:1" fill="#1b1b1b" d="M 27.5,236.5 C 31.0681,236.759 32.4015,238.759 31.5,242.5C 28.8127,242.664 26.146,242.497 23.5,242C 24.448,241.517 25.448,241.351 26.5,241.5C 26.366,239.708 26.6993,238.042 27.5,236.5 Z"/></g>
<g><path style="opacity:1" fill="#e7e7e7" d="M 27.5,238.5 C 28.5,238.5 29.5,238.5 30.5,238.5C 30.5,239.5 30.5,240.5 30.5,241.5C 29.5,241.5 28.5,241.5 27.5,241.5C 27.5,240.5 27.5,239.5 27.5,238.5 Z"/></g>
<g><path style="opacity:1" fill="#313131" d="M 62.5,237.5 C 68.5477,238.46 69.8811,241.627 66.5,247C 64.8876,247.72 63.3876,247.554 62,246.5C 61.2642,243.408 61.4309,240.408 62.5,237.5 Z"/></g>
<g><path style="opacity:1" fill="#eeeeee" d="M 63.5,238.5 C 65.8896,238.685 66.8896,240.018 66.5,242.5C 65.1667,247.833 63.8333,247.833 62.5,242.5C 62.6233,241.075 62.9566,239.742 63.5,238.5 Z"/></g>
<g><path style="opacity:1" fill="#fefefe" d="M 80.5,242.5 C 100.833,242.5 121.167,242.5 141.5,242.5C 141.5,262.833 141.5,283.167 141.5,303.5C 121.167,303.5 100.833,303.5 80.5,303.5C 80.5,283.167 80.5,262.833 80.5,242.5 Z"/></g>
<g><path style="opacity:1" fill="#fefefe" d="M 142.5,242.5 C 162.833,242.5 183.167,242.5 203.5,242.5C 203.5,262.833 203.5,283.167 203.5,303.5C 183.167,303.5 162.833,303.5 142.5,303.5C 142.5,283.167 142.5,262.833 142.5,242.5 Z"/></g>
<g><path style="opacity:1" fill="#fefefe" d="M 204.5,242.5 C 224.833,242.5 245.167,242.5 265.5,242.5C 265.5,262.833 265.5,283.167 265.5,303.5C 245.167,303.5 224.833,303.5 204.5,303.5C 204.5,283.167 204.5,262.833 204.5,242.5 Z"/></g>
<g><path style="opacity:1" fill="#fefefe" d="M 266.5,242.5 C 286.833,242.5 307.167,242.5 327.5,242.5C 327.5,262.833 327.5,283.167 327.5,303.5C 307.167,303.5 286.833,303.5 266.5,303.5C 266.5,283.167 266.5,262.833 266.5,242.5 Z"/></g>
<g><path style="opacity:1" fill="#fefefe" d="M 328.5,242.5 C 348.833,242.5 369.167,242.5 389.5,242.5C 389.5,262.833 389.5,283.167 389.5,303.5C 369.167,303.5 348.833,303.5 328.5,303.5C 328.5,283.167 328.5,262.833 328.5,242.5 Z"/></g>
<g><path style="opacity:1" fill="#fefefe" d="M 445.5,242.5 C 445.732,262.849 445.399,283.183 444.5,303.5C 426.5,303.5 408.5,303.5 390.5,303.5C 390.5,283.167 390.5,262.833 390.5,242.5C 408.833,242.5 427.167,242.5 445.5,242.5 Z"/></g>
<g><path style="opacity:1" fill="#f2f8f2" d="M 448.5,242.5 C 449.5,242.5 450.5,242.5 451.5,242.5C 451.5,262.833 451.5,283.167 451.5,303.5C 449.833,303.5 448.167,303.5 446.5,303.5C 447.052,283.007 447.719,262.673 448.5,242.5 Z"/></g>
<g><path style="opacity:1" fill="#fefefe" d="M 452.5,242.5 C 472.833,242.5 493.167,242.5 513.5,242.5C 513.5,262.833 513.5,283.167 513.5,303.5C 493.167,303.5 472.833,303.5 452.5,303.5C 452.5,283.167 452.5,262.833 452.5,242.5 Z"/></g>
<g><path style="opacity:1" fill="#fefefe" d="M 575.5,242.5 C 575.5,262.833 575.5,283.167 575.5,303.5C 555.167,303.5 534.833,303.5 514.5,303.5C 514.5,283.167 514.5,262.833 514.5,242.5C 534.833,242.5 555.167,242.5 575.5,242.5 Z"/></g>
<g><path style="opacity:1" fill="#2c2c2c" d="M 57.5,237.5 C 59.1408,239.203 60.1408,241.37 60.5,244C 59.9288,245.205 59.2621,246.372 58.5,247.5C 57.6143,246.675 57.281,245.675 57.5,244.5C 56.0222,244.762 54.6888,244.429 53.5,243.5C 54.5575,243.094 55.8908,243.094 57.5,243.5C 57.0651,241.297 57.0651,239.297 57.5,237.5 Z"/></g>
<g><path style="opacity:1" fill="#222222" d="M 23.5,245.5 C 24.3282,249.255 26.4949,250.255 30,248.5C 31.1993,244.814 31.5326,245.147 31,249.5C 28.9361,250.591 26.7695,250.758 24.5,250C 23.6198,248.644 23.2865,247.144 23.5,245.5 Z"/></g>
<g><path style="opacity:1" fill="#292929" d="M 23.5,252.5 C 30.9974,251.804 32.9974,254.637 29.5,261C 21.749,262.091 19.749,259.258 23.5,252.5 Z"/></g>
<g><path style="opacity:1" fill="#ededed" d="M 23.5,254.5 C 25.5273,254.338 27.5273,254.505 29.5,255C 30.6497,259.186 28.983,260.852 24.5,260C 22.3652,258.444 22.0319,256.611 23.5,254.5 Z"/></g>
<g><path style="opacity:1" fill="#2a2a2a" d="M 53.5,299.5 C 60.7365,300.272 61.4032,303.106 55.5,308C 56.8333,308.333 58.1667,308.667 59.5,309C 57.4213,309.808 55.4213,309.641 53.5,308.5C 55.1667,306.5 56.8333,304.5 58.5,302.5C 57.3803,300.404 55.8803,300.07 54,301.5C 53.5357,300.906 53.369,300.239 53.5,299.5 Z"/></g>
<g><path style="opacity:1" fill="#313131" d="M 63.5,299.5 C 69.5477,300.46 70.8811,303.627 67.5,309C 65.8876,309.72 64.3876,309.554 63,308.5C 62.2642,305.408 62.4309,302.408 63.5,299.5 Z"/></g>
<g><path style="opacity:1" fill="#eeeeee" d="M 64.5,300.5 C 66.8896,300.685 67.8896,302.018 67.5,304.5C 66.1667,309.833 64.8333,309.833 63.5,304.5C 63.6233,303.075 63.9566,301.742 64.5,300.5 Z"/></g>
<g><path style="opacity:1" fill="#fefefe" d="M 80.5,304.5 C 100.833,304.5 121.167,304.5 141.5,304.5C 141.5,324.833 141.5,345.167 141.5,365.5C 121.167,365.5 100.833,365.5 80.5,365.5C 80.5,345.167 80.5,324.833 80.5,304.5 Z"/></g>
<g><path style="opacity:1" fill="#fefefe" d="M 203.5,360.5 C 202.662,360.842 202.328,361.508 202.5,362.5C 202.328,363.492 202.662,364.158 203.5,364.5C 183.34,365.497 163.007,365.83 142.5,365.5C 142.5,345.167 142.5,324.833 142.5,304.5C 162.833,304.5 183.167,304.5 203.5,304.5C 203.5,323.167 203.5,341.833 203.5,360.5 Z"/></g>
<g><path style="opacity:1" fill="#fefefe" d="M 265.5,360.5 C 245.167,360.5 224.833,360.5 204.5,360.5C 204.5,341.833 204.5,323.167 204.5,304.5C 224.833,304.5 245.167,304.5 265.5,304.5C 265.5,323.167 265.5,341.833 265.5,360.5 Z"/></g>
<g><path style="opacity:1" fill="#fefefe" d="M 327.5,360.5 C 307.167,360.5 286.833,360.5 266.5,360.5C 266.5,341.833 266.5,323.167 266.5,304.5C 286.833,304.5 307.167,304.5 327.5,304.5C 327.5,323.167 327.5,341.833 327.5,360.5 Z"/></g>
<g><path style="opacity:1" fill="#fefefe" d="M 389.5,360.5 C 369.167,360.5 348.833,360.5 328.5,360.5C 328.5,341.833 328.5,323.167 328.5,304.5C 348.833,304.5 369.167,304.5 389.5,304.5C 389.5,323.167 389.5,341.833 389.5,360.5 Z"/></g>
<g><path style="opacity:1" fill="#fdfefd" d="M 443.5,312.5 C 443.409,321.564 442.576,330.564 441,339.5C 440.088,348.86 435.254,355.026 426.5,358C 414.552,359.607 402.552,360.44 390.5,360.5C 390.5,341.833 390.5,323.167 390.5,304.5C 408.167,304.5 425.833,304.5 443.5,304.5C 443.5,307.167 443.5,309.833 443.5,312.5 Z"/></g>
<g><path style="opacity:1" fill="#fafbf8" d="M 446.5,304.5 C 448.167,304.5 449.833,304.5 451.5,304.5C 451.5,324.833 451.5,345.167 451.5,365.5C 446.5,365.5 441.5,365.5 436.5,365.5C 425.897,363.841 415.231,362.841 404.5,362.5C 413.1,361.911 421.766,360.744 430.5,359C 436.837,356.164 440.67,351.331 442,344.5C 444.964,331.34 446.464,318.006 446.5,304.5 Z"/></g>
<g><path style="opacity:1" fill="#fefefe" d="M 452.5,304.5 C 472.833,304.5 493.167,304.5 513.5,304.5C 513.5,324.833 513.5,345.167 513.5,365.5C 493.167,365.5 472.833,365.5 452.5,365.5C 452.5,345.167 452.5,324.833 452.5,304.5 Z"/></g>
<g><path style="opacity:1" fill="#fefefe" d="M 575.5,304.5 C 575.5,324.833 575.5,345.167 575.5,365.5C 555.167,365.5 534.833,365.5 514.5,365.5C 514.5,345.167 514.5,324.833 514.5,304.5C 534.833,304.5 555.167,304.5 575.5,304.5 Z"/></g>
<g><path style="opacity:1" fill="#1d1d1d" d="M 64.5,361.5 C 63.9396,363.801 63.4396,366.134 63,368.5C 62.3333,366.5 62.3333,364.5 63,362.5C 63.3826,361.944 63.8826,361.611 64.5,361.5 Z"/></g>
<g><path style="opacity:1" fill="#7278cc" d="M 202.5,362.5 C 260.5,362.5 318.5,362.5 376.5,362.5C 376.5,362.833 376.5,363.167 376.5,363.5C 344.329,363.168 312.329,363.502 280.5,364.5C 254.833,364.5 229.167,364.5 203.5,364.5C 202.662,364.158 202.328,363.492 202.5,362.5 Z"/></g>
<g><path style="opacity:1" fill="#3929fa" d="M 280.5,364.5 C 312.329,363.502 344.329,363.168 376.5,363.5C 392.919,363.368 409.253,364.368 425.5,366.5C 436.509,368.49 443.509,374.823 446.5,385.5C 447.092,388.127 447.425,390.794 447.5,393.5C 448.387,401.476 449.054,409.476 449.5,417.5C 449.662,419.527 449.495,421.527 449,423.5C 448.722,422.584 448.222,421.918 447.5,421.5C 447.317,408.339 445.817,395.339 443,382.5C 439.433,374.619 433.266,370.119 424.5,369C 416.268,367.123 407.935,366.29 399.5,366.5C 360.015,364.736 320.348,364.069 280.5,364.5 Z"/></g>
<g><path style="opacity:1" fill="#494949" d="M 64.5,361.5 C 66.1534,360.201 67.6534,360.534 69,362.5C 70.2965,366.175 69.2965,368.842 66,370.5C 65.5,370.333 65,370.167 64.5,370C 67.3788,368.334 68.2121,365.834 67,362.5C 66.3292,361.748 65.4959,361.414 64.5,361.5 Z"/></g>
<g><path style="opacity:1" fill="#fefefe" d="M 80.5,366.5 C 100.833,366.5 121.167,366.5 141.5,366.5C 141.5,386.5 141.5,406.5 141.5,426.5C 121.167,426.5 100.833,426.5 80.5,426.5C 80.5,406.5 80.5,386.5 80.5,366.5 Z"/></g>
<g><path style="opacity:1" fill="#fefefe" d="M 203.5,426.5 C 183.167,426.5 162.833,426.5 142.5,426.5C 142.5,406.5 142.5,386.5 142.5,366.5C 162.833,366.5 183.167,366.5 203.5,366.5C 203.5,386.5 203.5,406.5 203.5,426.5 Z"/></g>
<g><path style="opacity:1" fill="#fefefe" d="M 265.5,426.5 C 245.167,426.5 224.833,426.5 204.5,426.5C 204.5,406.5 204.5,386.5 204.5,366.5C 224.833,366.5 245.167,366.5 265.5,366.5C 265.5,386.5 265.5,406.5 265.5,426.5 Z"/></g>
<g><path style="opacity:1" fill="#fefefe" d="M 327.5,426.5 C 307.167,426.5 286.833,426.5 266.5,426.5C 266.5,406.5 266.5,386.5 266.5,366.5C 286.833,366.5 307.167,366.5 327.5,366.5C 327.5,386.5 327.5,406.5 327.5,426.5 Z"/></g>
<g><path style="opacity:1" fill="#fefefe" d="M 389.5,426.5 C 369.167,426.5 348.833,426.5 328.5,426.5C 328.5,406.5 328.5,386.5 328.5,366.5C 348.833,366.5 369.167,366.5 389.5,366.5C 389.5,386.5 389.5,406.5 389.5,426.5 Z"/></g>
<g><path style="opacity:1" fill="#fdfdfe" d="M 399.5,366.5 C 407.935,366.29 416.268,367.123 424.5,369C 433.266,370.119 439.433,374.619 443,382.5C 445.817,395.339 447.317,408.339 447.5,421.5C 448.222,421.918 448.722,422.584 449,423.5C 449.495,421.527 449.662,419.527 449.5,417.5C 449.054,409.476 448.387,401.476 447.5,393.5C 449.906,386.157 449.073,378.823 445,371.5C 443.568,369.561 441.735,368.228 439.5,367.5C 443.298,366.517 447.298,366.183 451.5,366.5C 451.5,386.5 451.5,406.5 451.5,426.5C 431.167,426.5 410.833,426.5 390.5,426.5C 390.5,406.5 390.5,386.5 390.5,366.5C 393.5,366.5 396.5,366.5 399.5,366.5 Z"/></g>
<g><path style="opacity:1" fill="#fefefe" d="M 513.5,426.5 C 493.167,426.5 472.833,426.5 452.5,426.5C 452.5,406.5 452.5,386.5 452.5,366.5C 472.833,366.5 493.167,366.5 513.5,366.5C 513.5,386.5 513.5,406.5 513.5,426.5 Z"/></g>
<g><path style="opacity:1" fill="#fefefe" d="M 575.5,366.5 C 575.5,386.5 575.5,406.5 575.5,426.5C 555.167,426.5 534.833,426.5 514.5,426.5C 514.5,406.5 514.5,386.5 514.5,366.5C 534.833,366.5 555.167,366.5 575.5,366.5 Z"/></g>
<g><path style="opacity:1" fill="#f5e0ec" d="M 425.5,366.5 C 439.216,365.553 446.216,371.887 446.5,385.5C 443.509,374.823 436.509,368.49 425.5,366.5 Z"/></g>
<g><path style="opacity:1" fill="#f93029" d="M 376.5,363.5 C 376.5,363.167 376.5,362.833 376.5,362.5C 385.833,362.5 395.167,362.5 404.5,362.5C 415.231,362.841 425.897,363.841 436.5,365.5C 437.29,366.401 438.29,367.068 439.5,367.5C 441.735,368.228 443.568,369.561 445,371.5C 449.073,378.823 449.906,386.157 447.5,393.5C 447.425,390.794 447.092,388.127 446.5,385.5C 446.216,371.887 439.216,365.553 425.5,366.5C 409.253,364.368 392.919,363.368 376.5,363.5 Z"/></g>
<g><path style="opacity:1" fill="#9590ff" d="M 449.5,417.5 C 450.468,419.607 450.802,421.941 450.5,424.5C 449.5,424.5 448.5,424.5 447.5,424.5C 447.5,423.5 447.5,422.5 447.5,421.5C 447.5,422.5 447.5,423.5 447.5,424.5C 448.5,424.5 449.5,424.5 450.5,424.5C 450.802,421.941 450.468,419.607 449.5,417.5 Z"/></g>
<g><path style="opacity:1" fill="#626262" d="M 66.5,423.5 C 67.7479,424.334 68.4146,425.667 68.5,427.5C 68.3451,432.75 66.1785,433.75 62,430.5C 61.0561,427.653 61.5561,425.153 63.5,423C 64.7494,422.26 65.7494,422.427 66.5,423.5 Z"/></g>
<g><path style="opacity:1" fill="#f2f2f2" d="M 66.5,423.5 C 66.8134,426.247 66.48,428.914 65.5,431.5C 64.0089,430.652 63.3422,429.319 63.5,427.5C 63.1104,425.018 64.1104,423.685 66.5,423.5 Z"/></g>
<g><path style="opacity:1" fill="#3b3b3b" d="M 57.5,423.5 C 59.3442,424.204 59.8442,425.537 59,427.5C 57.8333,428.667 56.6667,429.833 55.5,431C 56.8333,431.333 58.1667,431.667 59.5,432C 52.8985,433.074 52.0651,431.574 57,427.5C 57.49,426.207 57.6567,424.873 57.5,423.5 Z"/></g>
<g><path style="opacity:1" fill="#111111" d="M 71.5,438.5 C 72.209,437.596 73.209,437.263 74.5,437.5C 73.9889,441.03 74.6556,444.196 76.5,447C 71.7373,447.622 70.7373,447.455 73.5,446.5C 74.0356,443.302 73.369,440.635 71.5,438.5 Z"/></g>
<g><path style="opacity:1" fill="#111111" d="M 133.5,438.5 C 134.209,437.596 135.209,437.263 136.5,437.5C 135.989,441.03 136.656,444.196 138.5,447C 133.737,447.622 132.737,447.455 135.5,446.5C 136.036,443.302 135.369,440.635 133.5,438.5 Z"/></g>
<g><path style="opacity:1" fill="#0f0f0f" d="M 158.5,441.5 C 157.167,441.5 155.833,441.5 154.5,441.5C 154.5,440.167 154.5,438.833 154.5,437.5C 160.324,437.347 160.657,438.013 155.5,439.5C 156.602,440.176 157.602,440.842 158.5,441.5 Z"/></g>
<g><path style="opacity:1" fill="#111111" d="M 195.5,438.5 C 196.209,437.596 197.209,437.263 198.5,437.5C 197.989,441.03 198.656,444.196 200.5,447C 195.737,447.622 194.737,447.455 197.5,446.5C 198.036,443.302 197.369,440.635 195.5,438.5 Z"/></g>
<g><path style="opacity:1" fill="#0f0f0f" d="M 327.5,441.5 C 326.167,441.5 324.833,441.5 323.5,441.5C 323.5,440.167 323.5,438.833 323.5,437.5C 329.324,437.347 329.657,438.013 324.5,439.5C 325.602,440.176 326.602,440.842 327.5,441.5 Z"/></g>
<g><path style="opacity:1" fill="#363636" d="M 204.5,437.5 C 206.144,437.286 207.644,437.62 209,438.5C 209.777,441.429 209.61,444.263 208.5,447C 205.783,448.033 203.949,447.2 203,444.5C 202.167,441.829 202.667,439.496 204.5,437.5 Z"/></g>
<g><path style="opacity:1" fill="#2a2a2a" d="M 503.5,437.5 C 510.737,438.272 511.403,441.106 505.5,446C 506.833,446.333 508.167,446.667 509.5,447C 507.421,447.808 505.421,447.641 503.5,446.5C 505.167,444.5 506.833,442.5 508.5,440.5C 507.38,438.404 505.88,438.07 504,439.5C 503.536,438.906 503.369,438.239 503.5,437.5 Z"/></g>
<g><path style="opacity:1" fill="#ededed" d="M 205.5,438.5 C 207.89,438.685 208.89,440.018 208.5,442.5C 207.167,447.833 205.833,447.833 204.5,442.5C 204.623,441.075 204.957,439.742 205.5,438.5 Z"/></g>
<g><path style="opacity:1" fill="#232323" d="M 261.5,438.5 C 263.265,437.539 265.265,437.205 267.5,437.5C 266.754,441.07 265.421,444.404 263.5,447.5C 263.167,447.333 262.833,447.167 262.5,447C 263.929,444.31 264.929,441.477 265.5,438.5C 264.167,438.5 262.833,438.5 261.5,438.5 Z"/></g>
<g><path style="opacity:1" fill="#1d1d1d" d="M 444.5,438.5 C 443.94,440.801 443.44,443.134 443,445.5C 442.333,443.5 442.333,441.5 443,439.5C 443.383,438.944 443.883,438.611 444.5,438.5 Z"/></g>
<g><path style="opacity:1" fill="#3b3b3b" d="M 456.5,437.5 C 458.39,437.297 459.89,437.963 461,439.5C 461.851,442.053 461.518,444.386 460,446.5C 460.305,444.557 460.305,442.557 460,440.5C 455.64,439.377 454.473,441.044 456.5,445.5C 456.154,446.696 455.654,446.696 455,445.5C 454.109,442.502 454.609,439.836 456.5,437.5 Z"/></g>
<g><path style="opacity:1" fill="#202020" d="M 566.5,437.5 C 572.324,437.347 572.657,438.013 567.5,439.5C 571.398,440.806 572.398,443.306 570.5,447C 568.741,447.798 567.074,447.631 565.5,446.5C 566.582,446.251 567.915,446.085 569.5,446C 571.161,442.85 570.161,441.35 566.5,441.5C 566.5,440.167 566.5,438.833 566.5,437.5 Z"/></g>
<g><path style="opacity:1" fill="#3b3b3b" d="M 579.5,437.5 C 581.39,437.297 582.89,437.963 584,439.5C 584.851,442.053 584.518,444.386 583,446.5C 583.305,444.557 583.305,442.557 583,440.5C 578.64,439.377 577.473,441.044 579.5,445.5C 579.154,446.696 578.654,446.696 578,445.5C 577.109,442.502 577.609,439.836 579.5,437.5 Z"/></g>
<g><path style="opacity:1" fill="#242424" d="M 93.5,437.5 C 95.1439,437.286 96.6439,437.62 98,438.5C 98.7772,441.429 98.6105,444.263 97.5,447C 95.8876,447.72 94.3876,447.554 93,446.5C 92.2642,443.408 92.4309,440.408 93.5,437.5 Z"/></g>
<g><path style="opacity:1" fill="#eeeeee" d="M 94.5,438.5 C 96.8896,438.685 97.8896,440.018 97.5,442.5C 96.1667,447.833 94.8333,447.833 93.5,442.5C 93.6233,441.075 93.9566,439.742 94.5,438.5 Z"/></g>
<g><path style="opacity:1" fill="#242424" d="M 217.5,437.5 C 219.144,437.286 220.644,437.62 222,438.5C 222.777,441.429 222.61,444.263 221.5,447C 219.888,447.72 218.388,447.554 217,446.5C 216.264,443.408 216.431,440.408 217.5,437.5 Z"/></g>
<g><path style="opacity:1" fill="#eeeeee" d="M 218.5,438.5 C 220.89,438.685 221.89,440.018 221.5,442.5C 220.167,447.833 218.833,447.833 217.5,442.5C 217.623,441.075 217.957,439.742 218.5,438.5 Z"/></g>
<g><path style="opacity:1" fill="#2b2b2b" d="M 274.5,437.5 C 276.527,437.338 278.527,437.505 280.5,438C 275.46,438.744 275.293,439.91 280,441.5C 281.5,446.667 279.667,448.5 274.5,447C 278.638,447.218 279.972,445.552 278.5,442C 277.207,441.51 275.873,441.343 274.5,441.5C 274.5,440.167 274.5,438.833 274.5,437.5 Z"/></g>
<g><path style="opacity:1" fill="#313131" d="M 337.5,437.5 C 343.548,438.46 344.881,441.627 341.5,447C 339.888,447.72 338.388,447.554 337,446.5C 336.264,443.408 336.431,440.408 337.5,437.5 Z"/></g>
<g><path style="opacity:1" fill="#eeeeee" d="M 338.5,438.5 C 340.89,438.685 341.89,440.018 341.5,442.5C 340.167,447.833 338.833,447.833 337.5,442.5C 337.623,441.075 337.957,439.742 338.5,438.5 Z"/></g>
<g><path style="opacity:1" fill="#2b2b2b" d="M 398.5,437.5 C 400.527,437.338 402.527,437.505 404.5,438C 399.46,438.744 399.293,439.91 404,441.5C 405.5,446.667 403.667,448.5 398.5,447C 402.638,447.218 403.972,445.552 402.5,442C 401.207,441.51 399.873,441.343 398.5,441.5C 398.5,440.167 398.5,438.833 398.5,437.5 Z"/></g>
<g><path style="opacity:1" fill="#494949" d="M 444.5,438.5 C 446.153,437.201 447.653,437.534 449,439.5C 450.297,443.175 449.297,445.842 446,447.5C 445.5,447.333 445,447.167 444.5,447C 447.379,445.334 448.212,442.834 447,439.5C 446.329,438.748 445.496,438.414 444.5,438.5 Z"/></g>
<g><path style="opacity:1" fill="#3b3b3b" d="M 389.5,438.5 C 391.344,439.204 391.844,440.537 391,442.5C 389.833,443.667 388.667,444.833 387.5,446C 388.833,446.333 390.167,446.667 391.5,447C 384.898,448.074 384.065,446.574 389,442.5C 389.49,441.207 389.657,439.873 389.5,438.5 Z"/></g>
<g><path style="opacity:1" fill="#3d3d3d" d="M 145.5,438.5 C 146.497,438.47 147.164,438.97 147.5,440C 146.917,442.499 145.584,444.499 143.5,446C 144.833,446.333 146.167,446.667 147.5,447C 140.898,448.074 140.065,446.574 145,442.5C 145.49,441.207 145.657,439.873 145.5,438.5 Z"/></g>
<g><path style="opacity:1" fill="#4e4e4e" d="M 79.5,437.5 C 85.3239,437.347 85.6572,438.013 80.5,439.5C 84.5032,440.27 86.0032,442.604 85,446.5C 83.2739,447.576 81.4406,447.743 79.5,447C 80.7932,446.51 82.1266,446.343 83.5,446.5C 83.5,445.167 83.5,443.833 83.5,442.5C 82.1667,442.5 80.8333,442.5 79.5,442.5C 79.5,440.833 79.5,439.167 79.5,437.5 Z"/></g>
<g><path style="opacity:1" fill="#262626" d="M 158.5,441.5 C 159.649,441.791 160.316,442.624 160.5,444C 159.862,447.293 157.862,448.293 154.5,447C 158.895,447.128 160.229,445.294 158.5,441.5 Z"/></g>
<g><path style="opacity:1" fill="#262626" d="M 327.5,441.5 C 328.649,441.791 329.316,442.624 329.5,444C 328.862,447.293 326.862,448.293 323.5,447C 327.895,447.128 329.229,445.294 327.5,441.5 Z"/></g>
<g><path style="opacity:1" fill="#2f2f2f" d="M 517.5,437.5 C 523.324,437.347 523.657,438.013 518.5,439.5C 523.348,440.769 524.348,443.269 521.5,447C 519.741,447.798 518.074,447.631 516.5,446.5C 517.582,446.251 518.915,446.085 520.5,446C 522.161,442.85 521.161,441.35 517.5,441.5C 517.5,440.167 517.5,438.833 517.5,437.5 Z"/></g>
<g><path style="opacity:1" fill="#2c2c2c" d="M 310.5,456.5 C 317.628,456.706 319.294,459.873 315.5,466C 309.498,466.993 307.332,464.493 309,458.5C 309.717,457.956 310.217,457.289 310.5,456.5 Z"/></g>
<g><path style="opacity:1" fill="#ededed" d="M 311.5,457.5 C 312.822,457.33 313.989,457.663 315,458.5C 315.667,460.5 315.667,462.5 315,464.5C 311.958,465.986 310.125,464.986 309.5,461.5C 309.752,459.927 310.418,458.594 311.5,457.5 Z"/></g>
<g><path style="opacity:1" fill="#1a1a1a" d="M 320.5,458.5 C 324.893,458.457 325.226,458.957 321.5,460C 319.682,463.387 320.682,465.387 324.5,466C 322.888,466.72 321.388,466.554 320,465.5C 319.297,463.071 319.463,460.738 320.5,458.5 Z"/></g>
<g><path style="opacity:1" fill="#343434" d="M 339.5,459.5 C 339.56,458.957 339.893,458.624 340.5,458.5C 341.937,461.044 343.437,461.044 345,458.5C 345.333,460.047 344.833,461.38 343.5,462.5C 346.328,466.198 345.995,466.865 342.5,464.5C 339.005,466.865 338.672,466.198 341.5,462.5C 341.058,461.261 340.391,460.261 339.5,459.5 Z"/></g>
<g><path style="opacity:1" fill="#303030" d="M 327.5,458.5 C 328.404,459.209 328.737,460.209 328.5,461.5C 332.676,460.831 334.009,462.331 332.5,466C 330.866,466.494 329.199,466.66 327.5,466.5C 327.5,463.833 327.5,461.167 327.5,458.5 Z"/></g>
<g><path style="opacity:1" fill="#e6e6e6" d="M 328.5,462.5 C 329.5,462.5 330.5,462.5 331.5,462.5C 331.5,463.5 331.5,464.5 331.5,465.5C 330.5,465.5 329.5,465.5 328.5,465.5C 328.5,464.5 328.5,463.5 328.5,462.5 Z"/></g>
</svg>
