<?xml version="1.0" encoding="UTF-8"?>
<!DOCTYPE svg PUBLIC "-//W3C//DTD SVG 1.1//EN" "http://www.w3.org/Graphics/SVG/1.1/DTD/svg11.dtd">
<svg xmlns="http://www.w3.org/2000/svg" version="1.1" width="640px" height="480px" style="shape-rendering:geometricPrecision; text-rendering:geometricPrecision; image-rendering:optimizeQuality; fill-rule:evenodd; clip-rule:evenodd" xmlns:xlink="http://www.w3.org/1999/xlink">
<g><path style="opacity:1" fill="#fefefe" d="M -0.5,-0.5 C 212.833,-0.5 426.167,-0.5 639.5,-0.5C 639.5,159.5 639.5,319.5 639.5,479.5C 426.167,479.5 212.833,479.5 -0.5,479.5C -0.5,319.5 -0.5,159.5 -0.5,-0.5 Z"/></g>
<g><path style="opacity:1" fill="#000000" d="M 283.5,35.5 C 285.857,35.3367 288.19,35.5034 290.5,36C 288.527,36.4955 286.527,36.6621 284.5,36.5C 284.666,40.5138 284.499,44.5138 284,48.5C 283.501,44.1794 283.334,39.8461 283.5,35.5 Z"/></g>
<g><path style="opacity:1" fill="#242424" d="M 365.5,35.5 C 366.833,35.5 368.167,35.5 369.5,35.5C 369.5,39.5 369.5,43.5 369.5,47.5C 371.626,48.6852 370.293,48.6852 365.5,47.5C 368.022,43.5087 368.022,39.5087 365.5,35.5 Z"/></g>
<g><path style="opacity:1" fill="#3d3d3d" d="M 352.5,43.5 C 352.262,45.6449 351.262,47.3115 349.5,48.5C 348.167,45.1667 348.167,41.8333 349.5,38.5C 350.308,40.4233 350.808,42.4233 351,44.5C 351.383,43.944 351.883,43.6107 352.5,43.5 Z"/></g>
<g><path style="opacity:1" fill="#202020" d="M 307.5,47.5 C 305.316,48.9829 303.983,48.3163 303.5,45.5C 303.608,44.5581 303.941,43.7247 304.5,43C 310.817,41.9079 310.483,40.9079 303.5,40C 307.978,37.4077 310.311,38.7411 310.5,44C 310.333,45.5 310.167,47 310,48.5C 309.329,47.7476 308.496,47.4142 307.5,47.5 Z"/></g>
<g><path style="opacity:1" fill="#2a2a2a" d="M 318.5,35.5 C 320.048,35.8212 320.715,36.8212 320.5,38.5C 325.151,39.1742 326.651,41.8408 325,46.5C 323.89,48.0368 322.39,48.7035 320.5,48.5C 320.762,49.9778 320.429,51.3112 319.5,52.5C 318.702,50.9223 318.202,49.2556 318,47.5C 316.667,48.8333 315.333,48.8333 314,47.5C 313.333,45.1667 313.333,42.8333 314,40.5C 314.953,38.4078 316.286,38.0745 318,39.5C 318.49,38.2068 318.657,36.8734 318.5,35.5 Z"/></g>
<g><path style="opacity:1" fill="#f6f6f6" d="M 320.5,40.5 C 321.5,40.5 322.5,40.5 323.5,40.5C 322.5,49.8333 321.5,49.8333 320.5,40.5 Z"/></g>
<g><path style="opacity:1" fill="#f0f0f0" d="M 315.5,40.5 C 316.5,40.5 317.5,40.5 318.5,40.5C 318.5,42.5 318.5,44.5 318.5,46.5C 314.556,46.1156 313.556,44.1156 315.5,40.5 Z"/></g>
<g><path style="opacity:1" fill="#3d3d3d" d="M 352.5,43.5 C 352.738,41.3551 353.738,39.6885 355.5,38.5C 356.833,41.8333 356.833,45.1667 355.5,48.5C 354.692,46.5767 354.192,44.5767 354,42.5C 353.617,43.056 353.117,43.3893 352.5,43.5 Z"/></g>
<g><path style="opacity:1" fill="#252525" d="M 293.5,38.5 C 295.314,38.7721 297.314,38.9387 299.5,39C 302.167,42 302.167,45 299.5,48C 297.888,48.7203 296.388,48.5536 295,47.5C 294.667,49.1667 294.333,50.8333 294,52.5C 293.501,47.8452 293.334,43.1785 293.5,38.5 Z"/></g>
<g><path style="opacity:1" fill="#ececec" d="M 295.5,40.5 C 296.833,40.5 298.167,40.5 299.5,40.5C 299.5,42.5 299.5,44.5 299.5,46.5C 294.74,46.7993 293.406,44.7993 295.5,40.5 Z"/></g>
<g><path style="opacity:1" fill="#282828" d="M 327.5,38.5 C 329.197,40.3052 330.03,42.6385 330,45.5C 331.015,42.7899 332.515,40.4566 334.5,38.5C 335.657,41.7844 335.824,45.1177 335,48.5C 335.186,39.5467 333.686,39.2133 330.5,47.5C 329.675,48.3857 328.675,48.719 327.5,48.5C 327.5,45.1667 327.5,41.8333 327.5,38.5 Z"/></g>
<g><path style="opacity:1" fill="#cfcfcf" d="M 307.5,47.5 C 304.827,47.3155 304.16,46.1489 305.5,44C 309.817,43.3035 310.484,44.4702 307.5,47.5 Z"/></g>
<g><path style="opacity:1" fill="#353535" d="M 338.5,38.5 C 340.045,39.2297 340.878,40.563 341,42.5C 344.941,37.0624 345.774,37.2291 343.5,43C 344.484,44.6565 345.484,46.3232 346.5,48C 345.833,48.6667 345.167,48.6667 344.5,48C 343.54,46.5806 342.707,45.0806 342,43.5C 341.02,45.0589 340.187,46.7256 339.5,48.5C 338.513,45.2317 338.18,41.8984 338.5,38.5 Z"/></g>
<g><path style="opacity:1" fill="#0a0a0a" d="M 46.5,53.5 C 46.56,52.9569 46.8933,52.6236 47.5,52.5C 48.4841,55.4281 48.8174,58.4281 48.5,61.5C 51.2627,62.4551 50.2627,62.6218 45.5,62C 46.6841,60.8197 47.3507,59.3197 47.5,57.5C 47.4892,55.9549 47.1558,54.6216 46.5,53.5 Z"/></g>
<g><path style="opacity:1" fill="#525252" d="M 53.5,52.5 C 59.7863,53.3146 61.1196,56.4812 57.5,62C 55.5665,62.7826 54.0665,62.2826 53,60.5C 52.3985,57.7795 52.5651,55.1128 53.5,52.5 Z"/></g>
<g><path style="opacity:1" fill="#f4f4f4" d="M 54.5,53.5 C 56.8896,53.6848 57.8896,55.0182 57.5,57.5C 57.6578,59.3186 56.9911,60.6519 55.5,61.5C 54.52,58.9135 54.1866,56.2469 54.5,53.5 Z"/></g>
<g><path style="opacity:1" fill="#242424" d="M 62.5,52.5 C 64.1439,52.2865 65.6439,52.6198 67,53.5C 67.7772,56.4294 67.6105,59.2628 66.5,62C 64.8876,62.7203 63.3876,62.5536 62,61.5C 61.2642,58.408 61.4309,55.408 62.5,52.5 Z"/></g>
<g><path style="opacity:1" fill="#eeeeee" d="M 63.5,53.5 C 65.8896,53.6848 66.8896,55.0182 66.5,57.5C 65.1667,62.8333 63.8333,62.8333 62.5,57.5C 62.6233,56.0755 62.9566,54.7421 63.5,53.5 Z"/></g>
<g><path style="opacity:1" fill="#000000" d="M 75.5,58.5 C 242.333,57.5003 409.333,57.167 576.5,57.5C 576.833,183.522 576.5,306.855 575.5,427.5C 548.167,427.5 520.833,427.5 493.5,427.5C 493.167,432.833 492.833,432.833 492.5,427.5C 465.5,427.5 438.5,427.5 411.5,427.5C 411.167,432.833 410.833,432.833 410.5,427.5C 383.167,427.5 355.833,427.5 328.5,427.5C 328.167,432.833 327.833,432.833 327.5,427.5C 300.167,427.5 272.833,427.5 245.5,427.5C 245.167,432.833 244.833,432.833 244.5,427.5C 217.5,427.5 190.5,427.5 163.5,427.5C 163.167,432.833 162.833,432.833 162.5,427.5C 135.167,427.5 107.833,427.5 80.5,427.5C 80.1667,432.833 79.8333,432.833 79.5,427.5C 74.1667,427.167 74.1667,426.833 79.5,426.5C 79.5,406.5 79.5,386.5 79.5,366.5C 74.1667,366.167 74.1667,365.833 79.5,365.5C 79.5,345.167 79.5,324.833 79.5,304.5C 74.1667,304.167 74.1667,303.833 79.5,303.5C 79.5,283.167 79.5,262.833 79.5,242.5C 74.1667,242.167 74.1667,241.833 79.5,241.5C 79.5,221.5 79.5,201.5 79.5,181.5C 74.1667,181.167 74.1667,180.833 79.5,180.5C 79.5,160.167 79.5,139.833 79.5,119.5C 74.1667,119.167 74.1667,118.833 79.5,118.5C 79.5,98.5 79.5,78.5 79.5,58.5C 78.1667,58.5 76.8333,58.5 75.5,58.5 Z"/></g>
<g><path style="opacity:1" fill="#fefefe" d="M 162.5,58.5 C 162.5,78.5 162.5,98.5 162.5,118.5C 135.167,118.5 107.833,118.5 80.5,118.5C 80.5,98.5 80.5,78.5 80.5,58.5C 107.833,58.5 135.167,58.5 162.5,58.5 Z"/></g>
<g><path style="opacity:1" fill="#afb1af" d="M 162.5,58.5 C 162.833,58.5 163.167,58.5 163.5,58.5C 163.5,78.5 163.5,98.5 163.5,118.5C 190.5,118.5 217.5,118.5 244.5,118.5C 244.5,98.5 244.5,78.5 244.5,58.5C 244.833,58.5 245.167,58.5 245.5,58.5C 245.5,78.5 245.5,98.5 245.5,118.5C 271.833,118.5 298.167,118.5 324.5,118.5C 324.83,134.009 324.496,149.342 323.5,164.5C 323.5,149.5 323.5,134.5 323.5,119.5C 297.5,119.5 271.5,119.5 245.5,119.5C 245.5,139.833 245.5,160.167 245.5,180.5C 271.5,180.5 297.5,180.5 323.5,180.5C 323.5,180.833 323.5,181.167 323.5,181.5C 297.5,181.5 271.5,181.5 245.5,181.5C 245.5,201.5 245.5,221.5 245.5,241.5C 271.5,241.5 297.5,241.5 323.5,241.5C 323.5,241.833 323.5,242.167 323.5,242.5C 297.5,242.5 271.5,242.5 245.5,242.5C 245.5,262.833 245.5,283.167 245.5,303.5C 271.167,303.5 296.833,303.5 322.5,303.5C 322.81,306.713 322.477,309.713 321.5,312.5C 321.5,309.833 321.5,307.167 321.5,304.5C 296.167,304.5 270.833,304.5 245.5,304.5C 245.5,323.167 245.5,341.833 245.5,360.5C 245.167,360.5 244.833,360.5 244.5,360.5C 244.5,341.833 244.5,323.167 244.5,304.5C 217.5,304.5 190.5,304.5 163.5,304.5C 163.5,323.167 163.5,341.833 163.5,360.5C 163.167,360.5 162.833,360.5 162.5,360.5C 162.5,341.833 162.5,323.167 162.5,304.5C 135.167,304.5 107.833,304.5 80.5,304.5C 80.5,304.167 80.5,303.833 80.5,303.5C 107.833,303.5 135.167,303.5 162.5,303.5C 162.5,283.167 162.5,262.833 162.5,242.5C 135.167,242.5 107.833,242.5 80.5,242.5C 80.5,242.167 80.5,241.833 80.5,241.5C 107.833,241.5 135.167,241.5 162.5,241.5C 162.5,221.5 162.5,201.5 162.5,181.5C 135.167,181.5 107.833,181.5 80.5,181.5C 80.5,181.167 80.5,180.833 80.5,180.5C 107.833,180.5 135.167,180.5 162.5,180.5C 162.5,160.167 162.5,139.833 162.5,119.5C 135.167,119.5 107.833,119.5 80.5,119.5C 80.5,119.167 80.5,118.833 80.5,118.5C 107.833,118.5 135.167,118.5 162.5,118.5C 162.5,98.5 162.5,78.5 162.5,58.5 Z"/></g>
<g><path style="opacity:1" fill="#fefefe" d="M 163.5,58.5 C 190.5,58.5 217.5,58.5 244.5,58.5C 244.5,78.5 244.5,98.5 244.5,118.5C 217.5,118.5 190.5,118.5 163.5,118.5C 163.5,98.5 163.5,78.5 163.5,58.5 Z"/></g>
<g><path style="opacity:1" fill="#fefefe" d="M 245.5,58.5 C 271.833,58.5 298.167,58.5 324.5,58.5C 324.5,58.8333 324.5,59.1667 324.5,59.5C 324.5,79.1667 324.5,98.8333 324.5,118.5C 298.167,118.5 271.833,118.5 245.5,118.5C 245.5,98.5 245.5,78.5 245.5,58.5 Z"/></g>
<g><path style="opacity:1" fill="#268c20" d="M 324.5,59.5 C 325.833,74.9856 326.499,90.819 326.5,107C 325.86,152.165 325.527,197.331 325.5,242.5C 325.745,276.218 324.579,309.885 322,343.5C 321.048,348.902 318.882,353.735 315.5,358C 309.936,360.339 304.27,361.839 298.5,362.5C 291.167,362.5 283.833,362.5 276.5,362.5C 237.996,362.832 199.663,362.499 161.5,361.5C 161.5,360.833 161.833,360.5 162.5,360.5C 162.833,360.5 163.167,360.5 163.5,360.5C 190.5,360.5 217.5,360.5 244.5,360.5C 244.833,360.5 245.167,360.5 245.5,360.5C 265.856,360.801 286.189,360.301 306.5,359C 314.085,357.746 318.252,353.246 319,345.5C 320.868,334.579 321.701,323.579 321.5,312.5C 322.477,309.713 322.81,306.713 322.5,303.5C 323.263,283.176 323.596,262.843 323.5,242.5C 323.5,242.167 323.5,241.833 323.5,241.5C 323.5,221.5 323.5,201.5 323.5,181.5C 323.5,181.167 323.5,180.833 323.5,180.5C 323.5,175.167 323.5,169.833 323.5,164.5C 324.496,149.342 324.83,134.009 324.5,118.5C 324.5,98.8333 324.5,79.1667 324.5,59.5 Z"/></g>
<g><path style="opacity:1" fill="#318c29" d="M 330.5,59.5 C 330.5,79.1667 330.5,98.8333 330.5,118.5C 330.17,135.342 330.503,152.008 331.5,168.5C 331.5,172.5 331.5,176.5 331.5,180.5C 331.5,180.833 331.5,181.167 331.5,181.5C 331.5,201.5 331.5,221.5 331.5,241.5C 331.5,241.833 331.5,242.167 331.5,242.5C 331.404,262.843 331.737,283.176 332.5,303.5C 332.19,306.713 332.523,309.713 333.5,312.5C 333.131,325.489 334.465,338.156 337.5,350.5C 338.833,353.833 341.167,356.167 344.5,357.5C 346.838,359.04 349.505,359.706 352.5,359.5C 365.451,360.463 378.451,360.796 391.5,360.5C 425.5,361.167 459.5,361.833 493.5,362.5C 493.5,362.833 493.5,363.167 493.5,363.5C 493.167,363.5 492.833,363.5 492.5,363.5C 465.5,363.5 438.5,363.5 411.5,363.5C 411.167,363.5 410.833,363.5 410.5,363.5C 390.813,363.751 371.146,363.251 351.5,362C 348.071,361.467 344.738,360.633 341.5,359.5C 339.64,358.061 337.973,356.395 336.5,354.5C 336.204,352.597 335.537,350.93 334.5,349.5C 331.639,333.309 330.306,316.976 330.5,300.5C 329.642,236.176 328.976,171.843 328.5,107.5C 328.501,91.1524 329.167,75.1524 330.5,59.5 Z"/></g>
<g><path style="opacity:1" fill="#fefefe" d="M 330.5,58.5 C 357.167,58.5 383.833,58.5 410.5,58.5C 410.5,78.5 410.5,98.5 410.5,118.5C 383.833,118.5 357.167,118.5 330.5,118.5C 330.5,98.8333 330.5,79.1667 330.5,59.5C 330.5,59.1667 330.5,58.8333 330.5,58.5 Z"/></g>
<g><path style="opacity:1" fill="#b0b1b1" d="M 410.5,58.5 C 410.833,58.5 411.167,58.5 411.5,58.5C 411.5,78.5 411.5,98.5 411.5,118.5C 438.5,118.5 465.5,118.5 492.5,118.5C 492.5,98.5 492.5,78.5 492.5,58.5C 492.833,58.5 493.167,58.5 493.5,58.5C 493.5,78.5 493.5,98.5 493.5,118.5C 498.833,118.5 504.167,118.5 509.5,118.5C 509.5,118.833 509.5,119.167 509.5,119.5C 504.167,119.5 498.833,119.5 493.5,119.5C 493.5,139.833 493.5,160.167 493.5,180.5C 498.833,180.5 504.167,180.5 509.5,180.5C 509.5,180.833 509.5,181.167 509.5,181.5C 504.167,181.5 498.833,181.5 493.5,181.5C 493.5,201.5 493.5,221.5 493.5,241.5C 520.833,241.5 548.167,241.5 575.5,241.5C 575.5,241.833 575.5,242.167 575.5,242.5C 548.167,242.5 520.833,242.5 493.5,242.5C 493.5,262.833 493.5,283.167 493.5,303.5C 520.833,303.5 548.167,303.5 575.5,303.5C 575.5,303.833 575.5,304.167 575.5,304.5C 548.167,304.5 520.833,304.5 493.5,304.5C 493.5,323.167 493.5,341.833 493.5,360.5C 479.656,360.829 465.99,360.496 452.5,359.5C 465.833,359.5 479.167,359.5 492.5,359.5C 492.5,341.167 492.5,322.833 492.5,304.5C 465.5,304.5 438.5,304.5 411.5,304.5C 411.5,322.833 411.5,341.167 411.5,359.5C 411.167,359.5 410.833,359.5 410.5,359.5C 410.5,341.167 410.5,322.833 410.5,304.5C 384.833,304.5 359.167,304.5 333.5,304.5C 333.5,307.167 333.5,309.833 333.5,312.5C 332.523,309.713 332.19,306.713 332.5,303.5C 358.5,303.5 384.5,303.5 410.5,303.5C 410.5,283.167 410.5,262.833 410.5,242.5C 384.167,242.5 357.833,242.5 331.5,242.5C 331.5,242.167 331.5,241.833 331.5,241.5C 357.833,241.5 384.167,241.5 410.5,241.5C 410.5,221.5 410.5,201.5 410.5,181.5C 384.167,181.5 357.833,181.5 331.5,181.5C 331.5,181.167 331.5,180.833 331.5,180.5C 357.833,180.5 384.167,180.5 410.5,180.5C 410.5,160.167 410.5,139.833 410.5,119.5C 384.167,119.5 357.833,119.5 331.5,119.5C 331.5,135.833 331.5,152.167 331.5,168.5C 330.503,152.008 330.17,135.342 330.5,118.5C 357.167,118.5 383.833,118.5 410.5,118.5C 410.5,98.5 410.5,78.5 410.5,58.5 Z"/></g>
<g><path style="opacity:1" fill="#fefefe" d="M 411.5,58.5 C 438.5,58.5 465.5,58.5 492.5,58.5C 492.5,78.5 492.5,98.5 492.5,118.5C 465.5,118.5 438.5,118.5 411.5,118.5C 411.5,98.5 411.5,78.5 411.5,58.5 Z"/></g>
<g><path style="opacity:1" fill="#fcfcfc" d="M 493.5,58.5 C 520.833,58.5 548.167,58.5 575.5,58.5C 575.5,78.5 575.5,98.5 575.5,118.5C 573.5,118.5 571.5,118.5 569.5,118.5C 569.667,100.83 569.5,83.1635 569,65.5C 559.241,64.8393 549.408,64.506 539.5,64.5C 529.592,64.506 519.759,64.8393 510,65.5C 509.5,83.1635 509.333,100.83 509.5,118.5C 504.167,118.5 498.833,118.5 493.5,118.5C 493.5,98.5 493.5,78.5 493.5,58.5 Z"/></g>
<g><path style="opacity:1" fill="#d5d5d5" d="M 575.5,118.5 C 575.5,118.833 575.5,119.167 575.5,119.5C 573.5,119.5 571.5,119.5 569.5,119.5C 569.5,139.833 569.5,160.167 569.5,180.5C 571.5,180.5 573.5,180.5 575.5,180.5C 575.5,180.833 575.5,181.167 575.5,181.5C 573.5,181.5 571.5,181.5 569.5,181.5C 569.797,185.767 569.464,189.934 568.5,194C 549.167,194.667 529.833,194.667 510.5,194C 509.536,189.934 509.203,185.767 509.5,181.5C 509.5,181.167 509.5,180.833 509.5,180.5C 509.5,160.167 509.5,139.833 509.5,119.5C 509.5,119.167 509.5,118.833 509.5,118.5C 509.333,100.83 509.5,83.1635 510,65.5C 519.759,64.8393 529.592,64.506 539.5,64.5C 549.408,64.506 559.241,64.8393 569,65.5C 569.5,83.1635 569.667,100.83 569.5,118.5C 571.5,118.5 573.5,118.5 575.5,118.5 Z"/></g>
<g><path style="opacity:1" fill="#c3cfc3" d="M 324.5,59.5 C 324.5,59.1667 324.5,58.8333 324.5,58.5C 326.5,58.5 328.5,58.5 330.5,58.5C 330.5,58.8333 330.5,59.1667 330.5,59.5C 329.167,75.1524 328.501,91.1524 328.5,107.5C 328.976,171.843 329.642,236.176 330.5,300.5C 329.833,300.5 329.167,300.5 328.5,300.5C 328.167,300.5 327.833,300.5 327.5,300.5C 328.154,280.804 327.488,261.471 325.5,242.5C 325.527,197.331 325.86,152.165 326.5,107C 326.499,90.819 325.833,74.9856 324.5,59.5 Z"/></g>
<g><path style="opacity:1" fill="#777777" d="M 54.5,114.5 C 56.4672,114.261 58.3005,114.594 60,115.5C 60.2022,118.259 60.0355,121.092 59.5,124C 57.5594,124.743 55.7261,124.576 54,123.5C 54.1387,120.473 54.3053,117.473 54.5,114.5 Z"/></g>
<g><path style="opacity:1" fill="#525252" d="M 63.5,114.5 C 69.7863,115.315 71.1196,118.481 67.5,124C 65.5665,124.783 64.0665,124.283 63,122.5C 62.3985,119.779 62.5651,117.113 63.5,114.5 Z"/></g>
<g><path style="opacity:1" fill="#f4f4f4" d="M 64.5,115.5 C 66.8896,115.685 67.8896,117.018 67.5,119.5C 67.6578,121.319 66.9911,122.652 65.5,123.5C 64.52,120.914 64.1866,118.247 64.5,115.5 Z"/></g>
<g><path style="opacity:1" fill="#fefefe" d="M 80.5,119.5 C 107.833,119.5 135.167,119.5 162.5,119.5C 162.5,139.833 162.5,160.167 162.5,180.5C 135.167,180.5 107.833,180.5 80.5,180.5C 80.5,160.167 80.5,139.833 80.5,119.5 Z"/></g>
<g><path style="opacity:1" fill="#fefefe" d="M 163.5,119.5 C 190.5,119.5 217.5,119.5 244.5,119.5C 244.5,139.833 244.5,160.167 244.5,180.5C 217.5,180.5 190.5,180.5 163.5,180.5C 163.5,160.167 163.5,139.833 163.5,119.5 Z"/></g>
<g><path style="opacity:1" fill="#fefefe" d="M 323.5,164.5 C 323.5,169.833 323.5,175.167 323.5,180.5C 297.5,180.5 271.5,180.5 245.5,180.5C 245.5,160.167 245.5,139.833 245.5,119.5C 271.5,119.5 297.5,119.5 323.5,119.5C 323.5,134.5 323.5,149.5 323.5,164.5 Z"/></g>
<g><path style="opacity:1" fill="#fefefe" d="M 331.5,180.5 C 331.5,176.5 331.5,172.5 331.5,168.5C 331.5,152.167 331.5,135.833 331.5,119.5C 357.833,119.5 384.167,119.5 410.5,119.5C 410.5,139.833 410.5,160.167 410.5,180.5C 384.167,180.5 357.833,180.5 331.5,180.5 Z"/></g>
<g><path style="opacity:1" fill="#fefefe" d="M 411.5,119.5 C 438.5,119.5 465.5,119.5 492.5,119.5C 492.5,139.833 492.5,160.167 492.5,180.5C 465.5,180.5 438.5,180.5 411.5,180.5C 411.5,160.167 411.5,139.833 411.5,119.5 Z"/></g>
<g><path style="opacity:1" fill="#fefefe" d="M 509.5,119.5 C 509.5,139.833 509.5,160.167 509.5,180.5C 504.167,180.5 498.833,180.5 493.5,180.5C 493.5,160.167 493.5,139.833 493.5,119.5C 498.833,119.5 504.167,119.5 509.5,119.5 Z"/></g>
<g><path style="opacity:1" fill="#fcfcfc" d="M 511.5,65.5 C 530.41,65.174 549.243,65.5073 568,66.5C 568.83,108.738 568.663,150.904 567.5,193C 548.593,193.825 529.76,193.659 511,192.5C 510.173,150.096 510.339,107.762 511.5,65.5 Z"/></g>
<g><path style="opacity:1" fill="#0000ff" d="M 514.5,116.5 C 524.522,116.168 534.522,116.501 544.5,117.5C 539.5,117.833 534.5,118.167 529.5,118.5C 524.119,118.494 519.119,117.828 514.5,116.5 Z"/></g>
<g><path style="opacity:1" fill="#2a2a2a" d="M 555.5,112.5 C 562.737,113.272 563.403,116.106 557.5,121C 558.833,121.333 560.167,121.667 561.5,122C 559.421,122.808 557.421,122.641 555.5,121.5C 557.167,119.5 558.833,117.5 560.5,115.5C 559.38,113.404 557.88,113.07 556,114.5C 555.536,113.906 555.369,113.239 555.5,112.5 Z"/></g>
<g><path style="opacity:1" fill="#fe0000" d="M 514.5,95.5 C 524.522,95.1681 534.522,95.5015 544.5,96.5C 539.5,96.8333 534.5,97.1667 529.5,97.5C 524.119,97.4942 519.119,96.8275 514.5,95.5 Z"/></g>
<g><path style="opacity:1" fill="#0a0a0a" d="M 557.5,92.5 C 557.56,91.9569 557.893,91.6236 558.5,91.5C 559.484,94.4281 559.817,97.4281 559.5,100.5C 562.263,101.455 561.263,101.622 556.5,101C 557.684,99.8197 558.351,98.3197 558.5,96.5C 558.489,94.9549 558.156,93.6216 557.5,92.5 Z"/></g>
<g><path style="opacity:1" fill="#fe0000" d="M 514.5,74.5 C 524.522,74.1681 534.522,74.5015 544.5,75.5C 539.5,75.8333 534.5,76.1667 529.5,76.5C 524.119,76.4942 519.119,75.8275 514.5,74.5 Z"/></g>
<g><path style="opacity:1" fill="#0a0a0a" d="M 557.5,71.5 C 557.56,70.9569 557.893,70.6236 558.5,70.5C 559.484,73.4281 559.817,76.4281 559.5,79.5C 562.263,80.4551 561.263,80.6218 556.5,80C 557.684,78.8197 558.351,77.3197 558.5,75.5C 558.489,73.9549 558.156,72.6216 557.5,71.5 Z"/></g>
<g><path style="opacity:1" fill="#fafafa" d="M 575.5,119.5 C 575.5,139.833 575.5,160.167 575.5,180.5C 573.5,180.5 571.5,180.5 569.5,180.5C 569.5,160.167 569.5,139.833 569.5,119.5C 571.5,119.5 573.5,119.5 575.5,119.5 Z"/></g>
<g><path style="opacity:1" fill="#2a2a2a" d="M 555.5,133.5 C 562.737,134.272 563.403,137.106 557.5,142C 558.833,142.333 560.167,142.667 561.5,143C 559.421,143.808 557.421,143.641 555.5,142.5C 557.167,140.5 558.833,138.5 560.5,136.5C 559.38,134.404 557.88,134.07 556,135.5C 555.536,134.906 555.369,134.239 555.5,133.5 Z"/></g>
<g><path style="opacity:1" fill="#0000ff" d="M 514.5,137.5 C 524.522,137.168 534.522,137.501 544.5,138.5C 539.5,138.833 534.5,139.167 529.5,139.5C 524.119,139.494 519.119,138.828 514.5,137.5 Z"/></g>
<g><path style="opacity:1" fill="#008000" d="M 514.5,158.5 C 524.522,158.168 534.522,158.501 544.5,159.5C 539.5,159.833 534.5,160.167 529.5,160.5C 524.119,160.494 519.119,159.828 514.5,158.5 Z"/></g>
<g><path style="opacity:1" fill="#464646" d="M 557.5,158.5 C 562.041,158.815 563.041,160.649 560.5,164C 558.741,164.798 557.074,164.631 555.5,163.5C 556.582,163.251 557.915,163.085 559.5,163C 559.957,162.586 560.291,162.086 560.5,161.5C 559.007,160.859 558.007,159.859 557.5,158.5 Z"/></g>
<g><path style="opacity:1" fill="#525252" d="M 63.5,175.5 C 69.7863,176.315 71.1196,179.481 67.5,185C 65.5665,185.783 64.0665,185.283 63,183.5C 62.3985,180.779 62.5651,178.113 63.5,175.5 Z"/></g>
<g><path style="opacity:1" fill="#f4f4f4" d="M 64.5,176.5 C 66.8896,176.685 67.8896,178.018 67.5,180.5C 67.6578,182.319 66.9911,183.652 65.5,184.5C 64.52,181.914 64.1866,179.247 64.5,176.5 Z"/></g>
<g><path style="opacity:1" fill="#008000" d="M 514.5,179.5 C 524.522,179.168 534.522,179.501 544.5,180.5C 539.5,180.833 534.5,181.167 529.5,181.5C 524.119,181.494 519.119,180.828 514.5,179.5 Z"/></g>
<g><path style="opacity:1" fill="#fefefe" d="M 80.5,181.5 C 107.833,181.5 135.167,181.5 162.5,181.5C 162.5,201.5 162.5,221.5 162.5,241.5C 135.167,241.5 107.833,241.5 80.5,241.5C 80.5,221.5 80.5,201.5 80.5,181.5 Z"/></g>
<g><path style="opacity:1" fill="#fefefe" d="M 163.5,181.5 C 190.5,181.5 217.5,181.5 244.5,181.5C 244.5,201.5 244.5,221.5 244.5,241.5C 217.5,241.5 190.5,241.5 163.5,241.5C 163.5,221.5 163.5,201.5 163.5,181.5 Z"/></g>
<g><path style="opacity:1" fill="#fefefe" d="M 323.5,181.5 C 323.5,201.5 323.5,221.5 323.5,241.5C 297.5,241.5 271.5,241.5 245.5,241.5C 245.5,221.5 245.5,201.5 245.5,181.5C 271.5,181.5 297.5,181.5 323.5,181.5 Z"/></g>
<g><path style="opacity:1" fill="#fefefe" d="M 331.5,181.5 C 357.833,181.5 384.167,181.5 410.5,181.5C 410.5,201.5 410.5,221.5 410.5,241.5C 384.167,241.5 357.833,241.5 331.5,241.5C 331.5,221.5 331.5,201.5 331.5,181.5 Z"/></g>
<g><path style="opacity:1" fill="#fefefe" d="M 411.5,181.5 C 438.5,181.5 465.5,181.5 492.5,181.5C 492.5,201.5 492.5,221.5 492.5,241.5C 465.5,241.5 438.5,241.5 411.5,241.5C 411.5,221.5 411.5,201.5 411.5,181.5 Z"/></g>
<g><path style="opacity:1" fill="#fefefe" d="M 509.5,181.5 C 509.203,185.767 509.536,189.934 510.5,194C 529.833,194.667 549.167,194.667 568.5,194C 569.464,189.934 569.797,185.767 569.5,181.5C 571.5,181.5 573.5,181.5 575.5,181.5C 575.5,201.5 575.5,221.5 575.5,241.5C 548.167,241.5 520.833,241.5 493.5,241.5C 493.5,221.5 493.5,201.5 493.5,181.5C 498.833,181.5 504.167,181.5 509.5,181.5 Z"/></g>
<g><path style="opacity:1" fill="#454545" d="M 557.5,179.5 C 562.041,179.815 563.041,181.649 560.5,185C 558.741,185.798 557.074,185.631 555.5,184.5C 556.582,184.251 557.915,184.085 559.5,184C 559.957,183.586 560.291,183.086 560.5,182.5C 559.007,181.859 558.007,180.859 557.5,179.5 Z"/></g>
<g><path style="opacity:1" fill="#676767" d="M 55.5,175.5 C 56.8734,175.343 58.2068,175.51 59.5,176C 57.9559,176.29 56.6226,176.956 55.5,178C 59.9177,178.723 61.2511,181.057 59.5,185C 54.0081,185.486 52.1747,182.986 54,177.5C 54.7172,176.956 55.2172,176.289 55.5,175.5 Z"/></g>
<g><path style="opacity:1" fill="#383838" d="M 23.5,223.5 C 26.7248,225.021 30.0581,226.355 33.5,227.5C 34.5827,228.365 34.7494,229.365 34,230.5C 33.3261,229.422 32.3261,228.755 31,228.5C 28.5324,229.503 26.0324,230.003 23.5,230C 29.0551,228.431 29.3885,226.931 24.5,225.5C 23.7025,225.043 23.3691,224.376 23.5,223.5 Z"/></g>
<g><path style="opacity:1" fill="#1b1b1b" d="M 27.5,236.5 C 31.0681,236.759 32.4015,238.759 31.5,242.5C 28.8127,242.664 26.146,242.497 23.5,242C 24.448,241.517 25.448,241.351 26.5,241.5C 26.366,239.708 26.6993,238.042 27.5,236.5 Z"/></g>
<g><path style="opacity:1" fill="#e7e7e7" d="M 27.5,238.5 C 28.5,238.5 29.5,238.5 30.5,238.5C 30.5,239.5 30.5,240.5 30.5,241.5C 29.5,241.5 28.5,241.5 27.5,241.5C 27.5,240.5 27.5,239.5 27.5,238.5 Z"/></g>
<g><path style="opacity:1" fill="#313131" d="M 62.5,237.5 C 68.5477,238.46 69.8811,241.627 66.5,247C 64.8876,247.72 63.3876,247.554 62,246.5C 61.2642,243.408 61.4309,240.408 62.5,237.5 Z"/></g>
<g><path style="opacity:1" fill="#eeeeee" d="M 63.5,238.5 C 65.8896,238.685 66.8896,240.018 66.5,242.5C 65.1667,247.833 63.8333,247.833 62.5,242.5C 62.6233,241.075 62.9566,239.742 63.5,238.5 Z"/></g>
<g><path style="opacity:1" fill="#fefefe" d="M 80.5,242.5 C 107.833,242.5 135.167,242.5 162.5,242.5C 162.5,262.833 162.5,283.167 162.5,303.5C 135.167,303.5 107.833,303.5 80.5,303.5C 80.5,283.167 80.5,262.833 80.5,242.5 Z"/></g>
<g><path style="opacity:1" fill="#fefefe" d="M 163.5,242.5 C 190.5,242.5 217.5,242.5 244.5,242.5C 244.5,262.833 244.5,283.167 244.5,303.5C 217.5,303.5 190.5,303.5 163.5,303.5C 163.5,283.167 163.5,262.833 163.5,242.5 Z"/></g>
<g><path style="opacity:1" fill="#fefefe" d="M 323.5,242.5 C 323.596,262.843 323.263,283.176 322.5,303.5C 296.833,303.5 271.167,303.5 245.5,303.5C 245.5,283.167 245.5,262.833 245.5,242.5C 271.5,242.5 297.5,242.5 323.5,242.5 Z"/></g>
<g><path style="opacity:1" fill="#fefefe" d="M 331.5,242.5 C 357.833,242.5 384.167,242.5 410.5,242.5C 410.5,262.833 410.5,283.167 410.5,303.5C 384.5,303.5 358.5,303.5 332.5,303.5C 331.737,283.176 331.404,262.843 331.5,242.5 Z"/></g>
<g><path style="opacity:1" fill="#fefefe" d="M 411.5,242.5 C 438.5,242.5 465.5,242.5 492.5,242.5C 492.5,262.833 492.5,283.167 492.5,303.5C 465.5,303.5 438.5,303.5 411.5,303.5C 411.5,283.167 411.5,262.833 411.5,242.5 Z"/></g>
<g><path style="opacity:1" fill="#fefefe" d="M 575.5,242.5 C 575.5,262.833 575.5,283.167 575.5,303.5C 548.167,303.5 520.833,303.5 493.5,303.5C 493.5,283.167 493.5,262.833 493.5,242.5C 520.833,242.5 548.167,242.5 575.5,242.5 Z"/></g>
<g><path style="opacity:1" fill="#2c2c2c" d="M 57.5,237.5 C 59.1408,239.203 60.1408,241.37 60.5,244C 59.9288,245.205 59.2621,246.372 58.5,247.5C 57.6143,246.675 57.281,245.675 57.5,244.5C 56.0222,244.762 54.6888,244.429 53.5,243.5C 54.5575,243.094 55.8908,243.094 57.5,243.5C 57.0651,241.297 57.0651,239.297 57.5,237.5 Z"/></g>
<g><path style="opacity:1" fill="#222222" d="M 23.5,245.5 C 24.3282,249.255 26.4949,250.255 30,248.5C 31.1993,244.814 31.5326,245.147 31,249.5C 28.9361,250.591 26.7695,250.758 24.5,250C 23.6198,248.644 23.2865,247.144 23.5,245.5 Z"/></g>
<g><path style="opacity:1" fill="#292929" d="M 23.5,252.5 C 30.9974,251.804 32.9974,254.637 29.5,261C 21.749,262.091 19.749,259.258 23.5,252.5 Z"/></g>
<g><path style="opacity:1" fill="#ededed" d="M 23.5,254.5 C 25.5273,254.338 27.5273,254.505 29.5,255C 30.6497,259.186 28.983,260.852 24.5,260C 22.3652,258.444 22.0319,256.611 23.5,254.5 Z"/></g>
<g><path style="opacity:1" fill="#2a2a2a" d="M 53.5,299.5 C 60.7365,300.272 61.4032,303.106 55.5,308C 56.8333,308.333 58.1667,308.667 59.5,309C 57.4213,309.808 55.4213,309.641 53.5,308.5C 55.1667,306.5 56.8333,304.5 58.5,302.5C 57.3803,300.404 55.8803,300.07 54,301.5C 53.5357,300.906 53.369,300.239 53.5,299.5 Z"/></g>
<g><path style="opacity:1" fill="#2b1ff0" d="M 328.5,300.5 C 329.167,300.5 329.833,300.5 330.5,300.5C 330.306,316.976 331.639,333.309 334.5,349.5C 334.167,349.5 333.833,349.5 333.5,349.5C 331.428,343.331 330.094,336.998 329.5,330.5C 329.167,320.5 328.833,310.5 328.5,300.5 Z"/></g>
<g><path style="opacity:1" fill="#313131" d="M 63.5,299.5 C 69.5477,300.46 70.8811,303.627 67.5,309C 65.8876,309.72 64.3876,309.554 63,308.5C 62.2642,305.408 62.4309,302.408 63.5,299.5 Z"/></g>
<g><path style="opacity:1" fill="#eeeeee" d="M 64.5,300.5 C 66.8896,300.685 67.8896,302.018 67.5,304.5C 66.1667,309.833 64.8333,309.833 63.5,304.5C 63.6233,303.075 63.9566,301.742 64.5,300.5 Z"/></g>
<g><path style="opacity:1" fill="#fefefe" d="M 80.5,304.5 C 107.833,304.5 135.167,304.5 162.5,304.5C 162.5,323.167 162.5,341.833 162.5,360.5C 161.833,360.5 161.5,360.833 161.5,361.5C 160.285,362.779 160.618,363.779 162.5,364.5C 135.338,365.498 108.005,365.831 80.5,365.5C 80.5,345.167 80.5,324.833 80.5,304.5 Z"/></g>
<g><path style="opacity:1" fill="#fefefe" d="M 244.5,360.5 C 217.5,360.5 190.5,360.5 163.5,360.5C 163.5,341.833 163.5,323.167 163.5,304.5C 190.5,304.5 217.5,304.5 244.5,304.5C 244.5,323.167 244.5,341.833 244.5,360.5 Z"/></g>
<g><path style="opacity:1" fill="#fefefe" d="M 321.5,312.5 C 321.701,323.579 320.868,334.579 319,345.5C 318.252,353.246 314.085,357.746 306.5,359C 286.189,360.301 265.856,360.801 245.5,360.5C 245.5,341.833 245.5,323.167 245.5,304.5C 270.833,304.5 296.167,304.5 321.5,304.5C 321.5,307.167 321.5,309.833 321.5,312.5 Z"/></g>
<g><path style="opacity:1" fill="#f7f9f5" d="M 325.5,242.5 C 327.488,261.471 328.154,280.804 327.5,300.5C 327.5,322.167 327.5,343.833 327.5,365.5C 324.167,365.5 320.833,365.5 317.5,365.5C 311.252,364.041 304.919,363.041 298.5,362.5C 304.27,361.839 309.936,360.339 315.5,358C 318.882,353.735 321.048,348.902 322,343.5C 324.579,309.885 325.745,276.218 325.5,242.5 Z"/></g>
<g><path style="opacity:1" fill="#fefefe" d="M 410.5,359.5 C 389.385,360.195 368.385,359.029 347.5,356C 343.689,354.93 340.356,353.097 337.5,350.5C 334.465,338.156 333.131,325.489 333.5,312.5C 333.5,309.833 333.5,307.167 333.5,304.5C 359.167,304.5 384.833,304.5 410.5,304.5C 410.5,322.833 410.5,341.167 410.5,359.5 Z"/></g>
<g><path style="opacity:1" fill="#fefefe" d="M 452.5,359.5 C 438.833,359.5 425.167,359.5 411.5,359.5C 411.5,341.167 411.5,322.833 411.5,304.5C 438.5,304.5 465.5,304.5 492.5,304.5C 492.5,322.833 492.5,341.167 492.5,359.5C 479.167,359.5 465.833,359.5 452.5,359.5 Z"/></g>
<g><path style="opacity:1" fill="#fefefe" d="M 575.5,304.5 C 575.5,324.833 575.5,345.167 575.5,365.5C 547.813,366.158 520.48,365.491 493.5,363.5C 493.5,363.167 493.5,362.833 493.5,362.5C 494.833,361.833 494.833,361.167 493.5,360.5C 493.5,341.833 493.5,323.167 493.5,304.5C 520.833,304.5 548.167,304.5 575.5,304.5 Z"/></g>
<g><path style="opacity:1" fill="#bcb9bb" d="M 327.5,300.5 C 327.833,300.5 328.167,300.5 328.5,300.5C 328.833,310.5 329.167,320.5 329.5,330.5C 328.461,334.342 328.461,338.342 329.5,342.5C 328.508,349.982 328.175,357.648 328.5,365.5C 356.187,366.158 383.52,365.491 410.5,363.5C 410.833,363.5 411.167,363.5 411.5,363.5C 424.65,364.833 438.15,365.499 452,365.5C 465.85,365.499 479.35,364.833 492.5,363.5C 492.833,363.5 493.167,363.5 493.5,363.5C 520.48,365.491 547.813,366.158 575.5,365.5C 575.5,365.833 575.5,366.167 575.5,366.5C 548.167,366.5 520.833,366.5 493.5,366.5C 493.5,386.5 493.5,406.5 493.5,426.5C 493.167,426.5 492.833,426.5 492.5,426.5C 492.5,406.5 492.5,386.5 492.5,366.5C 465.5,366.5 438.5,366.5 411.5,366.5C 411.5,386.5 411.5,406.5 411.5,426.5C 411.167,426.5 410.833,426.5 410.5,426.5C 410.5,406.5 410.5,386.5 410.5,366.5C 383.167,366.5 355.833,366.5 328.5,366.5C 328.5,386.5 328.5,406.5 328.5,426.5C 328.167,426.5 327.833,426.5 327.5,426.5C 326.9,425.1 325.9,424.1 324.5,423.5C 325.82,420.572 326.486,417.239 326.5,413.5C 326.166,406.829 325.833,400.163 325.5,393.5C 326.714,385.305 325.548,377.305 322,369.5C 320.603,367.93 319.103,366.596 317.5,365.5C 320.833,365.5 324.167,365.5 327.5,365.5C 327.5,343.833 327.5,322.167 327.5,300.5 Z"/></g>
<g><path style="opacity:1" fill="#fd362a" d="M 329.5,330.5 C 330.094,336.998 331.428,343.331 333.5,349.5C 333.273,351.933 334.273,353.599 336.5,354.5C 337.973,356.395 339.64,358.061 341.5,359.5C 332.877,357.196 328.877,351.529 329.5,342.5C 328.461,338.342 328.461,334.342 329.5,330.5 Z"/></g>
<g><path style="opacity:1" fill="#fdfbfb" d="M 329.5,342.5 C 328.877,351.529 332.877,357.196 341.5,359.5C 344.738,360.633 348.071,361.467 351.5,362C 371.146,363.251 390.813,363.751 410.5,363.5C 383.52,365.491 356.187,366.158 328.5,365.5C 328.175,357.648 328.508,349.982 329.5,342.5 Z"/></g>
<g><path style="opacity:1" fill="#ddddd3" d="M 333.5,349.5 C 333.833,349.5 334.167,349.5 334.5,349.5C 335.537,350.93 336.204,352.597 336.5,354.5C 334.273,353.599 333.273,351.933 333.5,349.5 Z"/></g>
<g><path style="opacity:1" fill="#381dee" d="M 337.5,350.5 C 340.356,353.097 343.689,354.93 347.5,356C 368.385,359.029 389.385,360.195 410.5,359.5C 410.833,359.5 411.167,359.5 411.5,359.5C 405.021,360.491 398.354,360.824 391.5,360.5C 378.451,360.796 365.451,360.463 352.5,359.5C 350.095,358.232 347.428,357.565 344.5,357.5C 341.167,356.167 338.833,353.833 337.5,350.5 Z"/></g>
<g><path style="opacity:1" fill="#a64f85" d="M 344.5,357.5 C 347.428,357.565 350.095,358.232 352.5,359.5C 349.505,359.706 346.838,359.04 344.5,357.5 Z"/></g>
<g><path style="opacity:1" fill="#2d5988" d="M 411.5,359.5 C 425.167,359.5 438.833,359.5 452.5,359.5C 465.99,360.496 479.656,360.829 493.5,360.5C 494.833,361.167 494.833,361.833 493.5,362.5C 459.5,361.833 425.5,361.167 391.5,360.5C 398.354,360.824 405.021,360.491 411.5,359.5 Z"/></g>
<g><path style="opacity:1" fill="#4056a0" d="M 161.5,361.5 C 199.663,362.499 237.996,362.832 276.5,362.5C 276.5,362.833 276.5,363.167 276.5,363.5C 258.992,363.17 241.659,363.503 224.5,364.5C 203.833,364.5 183.167,364.5 162.5,364.5C 160.618,363.779 160.285,362.779 161.5,361.5 Z"/></g>
<g><path style="opacity:1" fill="#1d1d1d" d="M 64.5,361.5 C 63.9396,363.801 63.4396,366.134 63,368.5C 62.3333,366.5 62.3333,364.5 63,362.5C 63.3826,361.944 63.8826,361.611 64.5,361.5 Z"/></g>
<g><path style="opacity:1" fill="#4129f6" d="M 224.5,364.5 C 241.659,363.503 258.992,363.17 276.5,363.5C 287.989,363.034 299.322,364.034 310.5,366.5C 316.897,369.231 321.23,373.897 323.5,380.5C 324.352,384.794 325.018,389.127 325.5,393.5C 325.833,400.163 326.166,406.829 326.5,413.5C 326.486,417.239 325.82,420.572 324.5,423.5C 324.048,412.501 323.548,401.501 323,390.5C 322.639,375.806 315.139,367.973 300.5,367C 296.514,366.501 292.514,366.334 288.5,366.5C 267.36,364.764 246.026,364.097 224.5,364.5 Z"/></g>
<g><path style="opacity:1" fill="#f6221f" d="M 276.5,363.5 C 276.5,363.167 276.5,362.833 276.5,362.5C 283.833,362.5 291.167,362.5 298.5,362.5C 304.919,363.041 311.252,364.041 317.5,365.5C 319.103,366.596 320.603,367.93 322,369.5C 325.548,377.305 326.714,385.305 325.5,393.5C 325.018,389.127 324.352,384.794 323.5,380.5C 323.241,371.911 318.908,367.245 310.5,366.5C 299.322,364.034 287.989,363.034 276.5,363.5 Z"/></g>
<g><path style="opacity:1" fill="#fcfcfc" d="M 411.5,363.5 C 438.5,363.5 465.5,363.5 492.5,363.5C 479.35,364.833 465.85,365.499 452,365.5C 438.15,365.499 424.65,364.833 411.5,363.5 Z"/></g>
<g><path style="opacity:1" fill="#494949" d="M 64.5,361.5 C 66.1534,360.201 67.6534,360.534 69,362.5C 70.2965,366.175 69.2965,368.842 66,370.5C 65.5,370.333 65,370.167 64.5,370C 67.3788,368.334 68.2121,365.834 67,362.5C 66.3292,361.748 65.4959,361.414 64.5,361.5 Z"/></g>
<g><path style="opacity:1" fill="#bdbdbf" d="M 162.5,364.5 C 183.167,364.5 203.833,364.5 224.5,364.5C 246.026,364.097 267.36,364.764 288.5,366.5C 274.167,366.5 259.833,366.5 245.5,366.5C 245.5,386.5 245.5,406.5 245.5,426.5C 245.167,426.5 244.833,426.5 244.5,426.5C 244.5,406.5 244.5,386.5 244.5,366.5C 217.5,366.5 190.5,366.5 163.5,366.5C 163.5,386.5 163.5,406.5 163.5,426.5C 163.167,426.5 162.833,426.5 162.5,426.5C 162.5,406.5 162.5,386.5 162.5,366.5C 135.167,366.5 107.833,366.5 80.5,366.5C 80.5,366.167 80.5,365.833 80.5,365.5C 108.005,365.831 135.338,365.498 162.5,364.5 Z"/></g>
<g><path style="opacity:1" fill="#fefefe" d="M 80.5,366.5 C 107.833,366.5 135.167,366.5 162.5,366.5C 162.5,386.5 162.5,406.5 162.5,426.5C 135.167,426.5 107.833,426.5 80.5,426.5C 80.5,406.5 80.5,386.5 80.5,366.5 Z"/></g>
<g><path style="opacity:1" fill="#fefefe" d="M 244.5,426.5 C 217.5,426.5 190.5,426.5 163.5,426.5C 163.5,406.5 163.5,386.5 163.5,366.5C 190.5,366.5 217.5,366.5 244.5,366.5C 244.5,386.5 244.5,406.5 244.5,426.5 Z"/></g>
<g><path style="opacity:1" fill="#fefefe" d="M 288.5,366.5 C 292.514,366.334 296.514,366.501 300.5,367C 315.139,367.973 322.639,375.806 323,390.5C 323.548,401.501 324.048,412.501 324.5,423.5C 325.9,424.1 326.9,425.1 327.5,426.5C 300.167,426.5 272.833,426.5 245.5,426.5C 245.5,406.5 245.5,386.5 245.5,366.5C 259.833,366.5 274.167,366.5 288.5,366.5 Z"/></g>
<g><path style="opacity:1" fill="#fefefe" d="M 410.5,426.5 C 383.167,426.5 355.833,426.5 328.5,426.5C 328.5,406.5 328.5,386.5 328.5,366.5C 355.833,366.5 383.167,366.5 410.5,366.5C 410.5,386.5 410.5,406.5 410.5,426.5 Z"/></g>
<g><path style="opacity:1" fill="#fefefe" d="M 492.5,426.5 C 465.5,426.5 438.5,426.5 411.5,426.5C 411.5,406.5 411.5,386.5 411.5,366.5C 438.5,366.5 465.5,366.5 492.5,366.5C 492.5,386.5 492.5,406.5 492.5,426.5 Z"/></g>
<g><path style="opacity:1" fill="#fefefe" d="M 575.5,366.5 C 575.5,386.5 575.5,406.5 575.5,426.5C 548.167,426.5 520.833,426.5 493.5,426.5C 493.5,406.5 493.5,386.5 493.5,366.5C 520.833,366.5 548.167,366.5 575.5,366.5 Z"/></g>
<g><path style="opacity:1" fill="#f5d3df" d="M 310.5,366.5 C 318.908,367.245 323.241,371.911 323.5,380.5C 321.23,373.897 316.897,369.231 310.5,366.5 Z"/></g>
<g><path style="opacity:1" fill="#868686" d="M 63.5,422.5 C 64.9305,422.421 66.2638,422.754 67.5,423.5C 68.7825,426.372 68.7825,429.205 67.5,432C 62.0081,432.486 60.1747,429.986 62,424.5C 62.7172,423.956 63.2172,423.289 63.5,422.5 Z"/></g>
<g><path style="opacity:1" fill="#3b3b3b" d="M 57.5,423.5 C 59.3442,424.204 59.8442,425.537 59,427.5C 57.8333,428.667 56.6667,429.833 55.5,431C 56.8333,431.333 58.1667,431.667 59.5,432C 52.8985,433.074 52.0651,431.574 57,427.5C 57.49,426.207 57.6567,424.873 57.5,423.5 Z"/></g>
<g><path style="opacity:1" fill="#111111" d="M 78.5,438.5 C 79.209,437.596 80.209,437.263 81.5,437.5C 80.9889,441.03 81.6556,444.196 83.5,447C 78.7373,447.622 77.7373,447.455 80.5,446.5C 81.0356,443.302 80.369,440.635 78.5,438.5 Z"/></g>
<g><path style="opacity:1" fill="#111111" d="M 161.5,438.5 C 162.209,437.596 163.209,437.263 164.5,437.5C 163.989,441.03 164.656,444.196 166.5,447C 161.737,447.622 160.737,447.455 163.5,446.5C 164.036,443.302 163.369,440.635 161.5,438.5 Z"/></g>
<g><path style="opacity:1" fill="#0f0f0f" d="M 251.5,441.5 C 250.167,441.5 248.833,441.5 247.5,441.5C 247.5,440.167 247.5,438.833 247.5,437.5C 253.324,437.347 253.657,438.013 248.5,439.5C 249.602,440.176 250.602,440.842 251.5,441.5 Z"/></g>
<g><path style="opacity:1" fill="#0a0a0a" d="M 487.5,438.5 C 487.56,437.957 487.893,437.624 488.5,437.5C 489.484,440.428 489.817,443.428 489.5,446.5C 492.263,447.455 491.263,447.622 486.5,447C 487.684,445.82 488.351,444.32 488.5,442.5C 488.489,440.955 488.156,439.622 487.5,438.5 Z"/></g>
<g><path style="opacity:1" fill="#0a0a0a" d="M 570.5,438.5 C 570.56,437.957 570.893,437.624 571.5,437.5C 572.484,440.428 572.817,443.428 572.5,446.5C 575.263,447.455 574.263,447.622 569.5,447C 570.684,445.82 571.351,444.32 571.5,442.5C 571.489,440.955 571.156,439.622 570.5,438.5 Z"/></g>
<g><path style="opacity:1" fill="#363636" d="M 170.5,437.5 C 172.144,437.286 173.644,437.62 175,438.5C 175.777,441.429 175.61,444.263 174.5,447C 171.783,448.033 169.949,447.2 169,444.5C 168.167,441.829 168.667,439.496 170.5,437.5 Z"/></g>
<g><path style="opacity:1" fill="#ededed" d="M 171.5,438.5 C 173.89,438.685 174.89,440.018 174.5,442.5C 173.167,447.833 171.833,447.833 170.5,442.5C 170.623,441.075 170.957,439.742 171.5,438.5 Z"/></g>
<g><path style="opacity:1" fill="#1d1d1d" d="M 326.5,438.5 C 325.94,440.801 325.44,443.134 325,445.5C 324.333,443.5 324.333,441.5 325,439.5C 325.383,438.944 325.883,438.611 326.5,438.5 Z"/></g>
<g><path style="opacity:1" fill="#202020" d="M 407.5,437.5 C 413.324,437.347 413.657,438.013 408.5,439.5C 412.398,440.806 413.398,443.306 411.5,447C 409.741,447.798 408.074,447.631 406.5,446.5C 407.582,446.251 408.915,446.085 410.5,446C 412.161,442.85 411.161,441.35 407.5,441.5C 407.5,440.167 407.5,438.833 407.5,437.5 Z"/></g>
<g><path style="opacity:1" fill="#494949" d="M 326.5,438.5 C 328.153,437.201 329.653,437.534 331,439.5C 332.297,443.175 331.297,445.842 328,447.5C 327.5,447.333 327,447.167 326.5,447C 329.379,445.334 330.212,442.834 329,439.5C 328.329,438.748 327.496,438.414 326.5,438.5 Z"/></g>
<g><path style="opacity:1" fill="#525252" d="M 494.5,437.5 C 500.786,438.315 502.12,441.481 498.5,447C 496.567,447.783 495.067,447.283 494,445.5C 493.398,442.779 493.565,440.113 494.5,437.5 Z"/></g>
<g><path style="opacity:1" fill="#f4f4f4" d="M 495.5,438.5 C 497.89,438.685 498.89,440.018 498.5,442.5C 498.658,444.319 497.991,445.652 496.5,446.5C 495.52,443.914 495.187,441.247 495.5,438.5 Z"/></g>
<g><path style="opacity:1" fill="#2c2c2c" d="M 576.5,437.5 C 578.527,437.338 580.527,437.505 582.5,438C 577.46,438.744 577.293,439.91 582,441.5C 583.45,446.885 581.617,448.552 576.5,446.5C 577.582,446.251 578.915,446.085 580.5,446C 582.009,442.331 580.676,440.831 576.5,441.5C 576.5,440.167 576.5,438.833 576.5,437.5 Z"/></g>
<g><path style="opacity:1" fill="#4e4e4e" d="M 86.5,437.5 C 92.3239,437.347 92.6572,438.013 87.5,439.5C 91.5032,440.27 93.0032,442.604 92,446.5C 90.2739,447.576 88.4406,447.743 86.5,447C 87.7932,446.51 89.1266,446.343 90.5,446.5C 90.5,445.167 90.5,443.833 90.5,442.5C 89.1667,442.5 87.8333,442.5 86.5,442.5C 86.5,440.833 86.5,439.167 86.5,437.5 Z"/></g>
<g><path style="opacity:1" fill="#262626" d="M 251.5,441.5 C 252.649,441.791 253.316,442.624 253.5,444C 252.862,447.293 250.862,448.293 247.5,447C 251.895,447.128 253.229,445.294 251.5,441.5 Z"/></g>
<g><path style="opacity:1" fill="#2c2c2c" d="M 310.5,456.5 C 317.628,456.706 319.294,459.873 315.5,466C 309.498,466.993 307.332,464.493 309,458.5C 309.717,457.956 310.217,457.289 310.5,456.5 Z"/></g>
<g><path style="opacity:1" fill="#ededed" d="M 311.5,457.5 C 312.822,457.33 313.989,457.663 315,458.5C 315.667,460.5 315.667,462.5 315,464.5C 311.958,465.986 310.125,464.986 309.5,461.5C 309.752,459.927 310.418,458.594 311.5,457.5 Z"/></g>
<g><path style="opacity:1" fill="#1a1a1a" d="M 320.5,458.5 C 324.893,458.457 325.226,458.957 321.5,460C 319.682,463.387 320.682,465.387 324.5,466C 322.888,466.72 321.388,466.554 320,465.5C 319.297,463.071 319.463,460.738 320.5,458.5 Z"/></g>
<g><path style="opacity:1" fill="#343434" d="M 339.5,459.5 C 339.56,458.957 339.893,458.624 340.5,458.5C 341.937,461.044 343.437,461.044 345,458.5C 345.333,460.047 344.833,461.38 343.5,462.5C 346.328,466.198 345.995,466.865 342.5,464.5C 339.005,466.865 338.672,466.198 341.5,462.5C 341.058,461.261 340.391,460.261 339.5,459.5 Z"/></g>
<g><path style="opacity:1" fill="#303030" d="M 327.5,458.5 C 328.404,459.209 328.737,460.209 328.5,461.5C 332.676,460.831 334.009,462.331 332.5,466C 330.866,466.494 329.199,466.66 327.5,466.5C 327.5,463.833 327.5,461.167 327.5,458.5 Z"/></g>
<g><path style="opacity:1" fill="#e6e6e6" d="M 328.5,462.5 C 329.5,462.5 330.5,462.5 331.5,462.5C 331.5,463.5 331.5,464.5 331.5,465.5C 330.5,465.5 329.5,465.5 328.5,465.5C 328.5,464.5 328.5,463.5 328.5,462.5 Z"/></g>
</svg>
